<?xml version="1.0" encoding="utf-8"?>
<!-- Generator: Adobe Illustrator 23.0.1, SVG Export Plug-In . SVG Version: 6.00 Build 0)  -->
<svg version="1.1" id="Layer_1" xmlns="http://www.w3.org/2000/svg" xmlns:xlink="http://www.w3.org/1999/xlink" x="0px" y="0px"
	 viewBox="0 0 150 150" style="enable-background:new 0 0 150 150;" xml:space="preserve">
<style type="text/css">
	.st0{fill:#FFDAAA;}
	.st1{fill:#FFC477;}
	.st2{fill:#FF5023;}
	.st3{fill:#FFB655;}
	.st4{fill:#006DF0;}
	.st5{fill:#F1F2F2;}
	.st6{fill:#FF9811;}
	.st7{fill:#FFCD00;}
	.st8{fill:#5EAC24;}
	.st9{fill:#ED1C24;}
	.st10{fill:#FF6243;}
	.st11{fill:#7ED63E;}
	.st12{fill:#4E901E;}
	.st13{fill:#FF7956;}
</style>
<g>
	<path class="st0" d="M117.1,22.8c-1.9,0-3.6,0.8-4.9,2.1c-1.3,1.3-2,3.2-2,5.1v90c0,1.9-0.7,3.7-2,5.1c-1.3,1.4-3.1,2.1-4.9,2.1
		s-3.6-0.8-4.9-2.1c-1.3-1.3-2-3.2-2-5.1v-3.6H43.8V30c0-1.9,0.7-3.7,2-5.1c1.3-1.3,3.1-2.1,4.9-2.1H117.1z"/>
	<path class="st1" d="M79.6,116.4h16.6v3.6c0,1.9,0.7,3.7,2,5.1c1.3,1.4,3.1,2.1,4.9,2.1c1.9,0,3.6-0.8,4.9-2.1c1.3-1.3,2-3.2,2-5.1
		V58.8c0,11.5-2.8,22.8-8.1,32.8C96.6,101.7,88.9,110.2,79.6,116.4L79.6,116.4z"/>
	<path class="st2" d="M106.6,76.8c7.7,0,14-6.4,14-14.4s-6.2-14.4-14-14.4s-14,6.4-14,14.4S98.9,76.8,106.6,76.8z"/>
	<path class="st3" d="M117.1,22.8c-1.9,0-3.6,0.8-4.9,2.1c-1.3,1.3-2,3.2-2,5.1v10.8h14V30c0-1.9-0.7-3.7-2-5.1
		C120.7,23.6,118.9,22.8,117.1,22.8z"/>
	<path class="st3" d="M96.2,120v-3.6H36.8v3.6c0,1.9,0.7,3.7,2,5.1c1.3,1.4,3.1,2.1,4.9,2.1h59.3c-1.9,0-3.6-0.8-4.9-2.1
		C96.9,123.7,96.2,121.9,96.2,120z"/>
	<path class="st4" d="M68.2,44.4H26.4c-1.9,0-3.5,1.6-3.5,3.6v57.6c0,2,1.6,3.6,3.5,3.6h41.9c1.9,0,3.5-1.6,3.5-3.6V48
		C71.7,46,70.2,44.4,68.2,44.4z"/>
	<path class="st5" d="M64.8,66V51.6H29.9V66h17.4H64.8z"/>
	<path class="st6" d="M64.8,66H47.3v18h17.4V66z"/>
	<path class="st7" d="M47.3,84H29.9v18h17.4V84z"/>
	<path class="st8" d="M64.8,84H47.3v18h17.4V84z"/>
	<path class="st9" d="M47.3,66H29.9v18h17.4V66z"/>
	<path class="st10" d="M99.7,76.8c7.7,0,14-6.4,14-14.4S107.4,48,99.7,48s-14,6.4-14,14.4S91.9,76.8,99.7,76.8z"/>
	<path class="st11" d="M124.1,76.8H71.7v28.8h52.3V76.8z"/>
	<path class="st8" d="M127.1,74.8h-3.3v26h3.3V74.8z"/>
	<path class="st12" d="M118.8,87.6v7.2c-1.4,0-2.7,0.6-3.7,1.6c-1,1-1.5,2.4-1.5,3.8H82.2c0-1.4-0.6-2.8-1.5-3.8
		c-1-1-2.3-1.6-3.7-1.6v-7.2c1.4,0,2.7-0.6,3.7-1.6c1-1,1.5-2.4,1.5-3.8h31.4c0,1.4,0.6,2.8,1.5,3.8C116.1,87,117.5,87.6,118.8,87.6
		z"/>
	<path class="st5" d="M97.9,96.6c2.9,0,5.2-2.4,5.2-5.4s-2.3-5.4-5.2-5.4s-5.2,2.4-5.2,5.4S95,96.6,97.9,96.6z"/>
	<path class="st13" d="M92.7,76.8c7.7,0,14-6.4,14-14.4S100.4,48,92.7,48s-14,6.4-14,14.4S85,76.8,92.7,76.8z"/>
	<path class="st5" d="M42.1,73.2h-1.7v-1.8c0-0.5-0.2-0.9-0.5-1.3c-0.3-0.3-0.8-0.5-1.2-0.5s-0.9,0.2-1.2,0.5
		c-0.3,0.3-0.5,0.8-0.5,1.3v1.8h-1.7c-0.5,0-0.9,0.2-1.2,0.5c-0.3,0.3-0.5,0.8-0.5,1.3s0.2,0.9,0.5,1.3c0.3,0.3,0.8,0.5,1.2,0.5h1.7
		v1.8c0,0.5,0.2,0.9,0.5,1.3c0.3,0.3,0.8,0.5,1.2,0.5s0.9-0.2,1.2-0.5c0.3-0.3,0.5-0.8,0.5-1.3v-1.8h1.7c0.5,0,0.9-0.2,1.2-0.5
		c0.3-0.3,0.5-0.8,0.5-1.3s-0.2-0.9-0.5-1.3C43,73.4,42.5,73.2,42.1,73.2z"/>
	<path class="st5" d="M41.1,93l1.2-1.3c0.2-0.2,0.3-0.4,0.4-0.6c0.1-0.2,0.1-0.5,0.1-0.7c0-0.2,0-0.5-0.1-0.7
		c-0.1-0.2-0.2-0.4-0.4-0.6s-0.4-0.3-0.6-0.4c-0.2-0.1-0.4-0.1-0.7-0.1c-0.2,0-0.5,0.1-0.7,0.1S40,89,39.8,89.2l-1.2,1.3l-1.2-1.3
		c-0.2-0.2-0.4-0.3-0.6-0.4s-0.4-0.1-0.7-0.1c-0.2,0-0.5,0-0.7,0.1c-0.2,0.1-0.4,0.2-0.6,0.4c-0.2,0.2-0.3,0.4-0.4,0.6
		c-0.1,0.2-0.1,0.5-0.1,0.7c0,0.2,0.1,0.5,0.1,0.7c0.1,0.2,0.2,0.4,0.4,0.6l1.2,1.3l-1.2,1.3c-0.2,0.2-0.3,0.4-0.4,0.6
		c-0.1,0.2-0.1,0.5-0.1,0.7c0,0.2,0,0.5,0.1,0.7c0.1,0.2,0.2,0.4,0.4,0.6c0.2,0.2,0.4,0.3,0.6,0.4c0.2,0.1,0.4,0.1,0.7,0.1
		c0.2,0,0.5-0.1,0.7-0.1c0.2-0.1,0.4-0.2,0.6-0.4l1.2-1.3l1.2,1.3c0.2,0.2,0.4,0.3,0.6,0.4c0.2,0.1,0.4,0.1,0.7,0.1
		c0.2,0,0.5,0,0.7-0.1c0.2-0.1,0.4-0.2,0.6-0.4s0.3-0.4,0.4-0.6c0.1-0.2,0.1-0.5,0.1-0.7c0-0.2-0.1-0.5-0.1-0.7
		c-0.1-0.2-0.2-0.4-0.4-0.6L41.1,93z"/>
	<path class="st5" d="M59.5,73.2h-7c-0.5,0-0.9,0.2-1.2,0.5c-0.3,0.3-0.5,0.8-0.5,1.3s0.2,0.9,0.5,1.3c0.3,0.3,0.8,0.5,1.2,0.5h7
		c0.5,0,0.9-0.2,1.2-0.5c0.3-0.3,0.5-0.8,0.5-1.3s-0.2-0.9-0.5-1.3C60.4,73.4,60,73.2,59.5,73.2z"/>
	<path class="st5" d="M59.5,89.4h-7c-0.5,0-0.9,0.2-1.2,0.5c-0.3,0.3-0.5,0.8-0.5,1.3s0.2,0.9,0.5,1.3c0.3,0.3,0.8,0.5,1.2,0.5h7
		c0.5,0,0.9-0.2,1.2-0.5c0.3-0.3,0.5-0.8,0.5-1.3s-0.2-0.9-0.5-1.3C60.4,89.6,60,89.4,59.5,89.4z"/>
	<path class="st5" d="M59.5,94.8h-7c-0.5,0-0.9,0.2-1.2,0.5c-0.3,0.3-0.5,0.8-0.5,1.3c0,0.5,0.2,0.9,0.5,1.3
		c0.3,0.3,0.8,0.5,1.2,0.5h7c0.5,0,0.9-0.2,1.2-0.5c0.3-0.3,0.5-0.8,0.5-1.3c0-0.5-0.2-0.9-0.5-1.3C60.4,95,60,94.8,59.5,94.8z"/>
	<path class="st13" d="M99.7,28.2H54.3c-0.5,0-0.9,0.2-1.2,0.5c-0.3,0.3-0.5,0.8-0.5,1.3s0.2,0.9,0.5,1.3c0.3,0.3,0.8,0.5,1.2,0.5
		h45.4c0.5,0,0.9-0.2,1.2-0.5c0.3-0.3,0.5-0.8,0.5-1.3s-0.2-0.9-0.5-1.3C100.6,28.4,100.1,28.2,99.7,28.2z"/>
	<path class="st13" d="M99.7,35.4H54.3c-0.5,0-0.9,0.2-1.2,0.5c-0.3,0.3-0.5,0.8-0.5,1.3c0,0.5,0.2,0.9,0.5,1.3
		c0.3,0.3,0.8,0.5,1.2,0.5h45.4c0.5,0,0.9-0.2,1.2-0.5c0.3-0.3,0.5-0.8,0.5-1.3c0-0.5-0.2-0.9-0.5-1.3
		C100.6,35.6,100.1,35.4,99.7,35.4z"/>
	<g>
		<path class="st9" d="M99.5,57.7c-0.1-0.1-0.2-0.1-0.3-0.1h-2.4c-0.2-0.8-0.5-1.5-0.9-2.1h3.3c0.1,0,0.2,0,0.3-0.1
			c0.1-0.1,0.1-0.2,0.1-0.3v-1.5c0-0.1,0-0.2-0.1-0.3C99.4,53,99.3,53,99.1,53H87.3c-0.1,0-0.2,0-0.3,0.1c-0.1,0.1-0.1,0.2-0.1,0.3
			v1.9c0,0.1,0,0.2,0.1,0.3c0.1,0.1,0.2,0.1,0.3,0.1h2.1c2,0,3.3,0.6,3.8,1.7h-5.9c-0.1,0-0.2,0-0.3,0.1c-0.1,0.1-0.1,0.2-0.1,0.3
			v1.5c0,0.1,0,0.2,0.1,0.3c0.1,0.1,0.2,0.1,0.3,0.1h6.1c-0.2,0.8-0.7,1.4-1.5,1.8c-0.8,0.4-1.8,0.6-3,0.6h-1.6
			c-0.1,0-0.2,0-0.3,0.1c-0.1,0.1-0.1,0.2-0.1,0.3v1.9c0,0.1,0,0.2,0.1,0.3c1.8,2,4.2,4.8,7.1,8.4c0.1,0.1,0.2,0.2,0.4,0.2h2.8
			c0.2,0,0.3-0.1,0.4-0.3c0.1-0.2,0.1-0.3-0.1-0.5c-2.8-3.5-4.9-6.1-6.5-7.9c1.6-0.2,2.9-0.7,3.9-1.6c1-0.9,1.6-2,1.8-3.4h2.4
			c0.1,0,0.2,0,0.3-0.1c0.1-0.1,0.1-0.2,0.1-0.3V58C99.6,57.9,99.6,57.8,99.5,57.7z"/>
	</g>
</g>
</svg>
