<?xml version="1.0" encoding="utf-8"?>
<!-- Generator: Adobe Illustrator 23.0.1, SVG Export Plug-In . SVG Version: 6.00 Build 0)  -->
<svg version="1.1" id="Layer_1" xmlns="http://www.w3.org/2000/svg" xmlns:xlink="http://www.w3.org/1999/xlink" x="0px" y="0px"
	 viewBox="0 0 150 150" style="enable-background:new 0 0 150 150;" xml:space="preserve">
<style type="text/css">
	.st0{fill:#C0AB91;}
	.st1{fill:#A78966;}
	.st2{fill:#57A4FF;}
	.st3{fill:#006DF0;}
	.st4{fill:#46F8FF;}
	.st5{fill:#FF3051;}
	.st6{fill:#CD2A00;}
	.st7{fill:#FF7956;}
	.st8{fill:#9CDD05;}
	.st9{fill:#FEE9AB;}
	.st10{fill:#FF5023;}
	.st11{fill:#FFD422;}
</style>
<g id="Data_analysis-research-analysis-report-presentation">
	<path class="st0" d="M123.4,70c0,11.1-9,20-20,20s-20-9-20-20c0-3.7,1-7.3,2.9-10.4c5.7-9.5,18.1-12.5,27.5-6.7
		C119.8,56.5,123.4,63,123.4,70z"/>
	<path class="st1" d="M123.4,70c0,11.1-8.9,20-20,20c-1.1,0-2.3-0.1-3.4-0.3c10.9-1.8,18.3-12.2,16.4-23.1c-1.4-8.4-8-15-16.4-16.4
		c1.1-0.2,2.2-0.3,3.3-0.3C114.5,49.9,123.4,58.9,123.4,70z"/>
	<circle class="st2" cx="103.4" cy="70" r="13.4"/>
	<path class="st3" d="M116.8,70c0,7.4-6,13.4-13.4,13.4c-1.1,0-2.2-0.1-3.3-0.4c7.2-1.9,11.4-9.2,9.6-16.3c-1.2-4.7-4.9-8.4-9.6-9.6
		c1.1-0.3,2.2-0.4,3.3-0.4C110.8,56.6,116.8,62.6,116.8,70z"/>
	<path class="st0" d="M110.1,96.7v20c0,3.7-3,6.7-6.7,6.7c-3.7,0-6.7-3-6.7-6.7v-20H110.1z"/>
	<path class="st1" d="M106.7,89.8v7h-6.7v-7C102.3,90.1,104.5,90.1,106.7,89.8z"/>
	<path class="st4" d="M38.2,93.4V53.3c0-3.7,3-6.7,6.7-6.7h10.4c-1.8,9,4,17.9,13,19.7c6.6,1.4,13.4-1.4,17.2-7l0.8,0.3
		c-1.9,3.1-2.9,6.7-2.9,10.4c0,9.8,7.1,18.1,16.7,19.8v7h-3.3v6.7H44.9c-3.7,0-6.7-3-6.7-6.7V93.4z"/>
	<path class="st5" d="M95,43.3H78.3V26.6C87.6,26.6,95,34,95,43.3z"/>
	<path class="st6" d="M95,43.3h-6.7c0-6.6-3.9-12.7-10-15.3v-1.4C87.6,26.6,95,34,95,43.3z"/>
	<path class="st7" d="M90,120.1v3.3H60v-3.3c0-1.8,1.5-3.3,3.3-3.3h23.4C88.5,116.8,90,118.3,90,120.1z"/>
	<path class="st8" d="M71.7,49.9h16.7c0,9.2-7.5,16.7-16.7,16.7S55,59.2,55,49.9s7.5-16.7,16.7-16.7V49.9z"/>
	<rect x="70" y="103.4" class="st9" width="10" height="13.4"/>
	<path class="st1" d="M110.1,96.7v20c0,3.7-3,6.7-6.7,6.7c-1.2,0-2.3-0.3-3.4-0.9c2.1-1.2,3.3-3.4,3.3-5.8v-20H110.1z"/>
	<path class="st10" d="M90,120.1v3.3h-6.7v-3.3c0-1.8-1.5-3.3-3.3-3.3h6.7C88.5,116.8,90,118.3,90,120.1z"/>
	<rect x="75" y="103.4" class="st11" width="5" height="13.4"/>
	<path d="M78.3,44.9H95c0.9,0,1.7-0.7,1.7-1.7c0-10.1-8.2-18.4-18.4-18.4c-0.9,0-1.7,0.7-1.7,1.7v16.7
		C76.7,44.2,77.4,44.9,78.3,44.9z M80,28.3c7,0.8,12.5,6.3,13.3,13.3H80V28.3z"/>
	<path d="M104.1,28.2h11v-3.3h-11.7c-0.4,0-0.9,0.2-1.2,0.5l-5,5l2.4,2.4L104.1,28.2z"/>
	<rect x="118.4" y="24.9" width="6.7" height="3.3"/>
	<path d="M50.4,32.7l2.4-2.4l-5-5c-0.3-0.3-0.7-0.5-1.2-0.5H34.9v3.3h11L50.4,32.7z"/>
	<rect x="24.9" y="24.9" width="6.7" height="3.3"/>
	<rect x="105.1" y="34.9" width="13.4" height="3.3"/>
	<rect x="121.8" y="34.9" width="3.3" height="3.3"/>
	<rect x="24.9" y="34.9" width="20" height="3.3"/>
	<path d="M64.3,81.7h-11V85H65c0.4,0,0.9-0.2,1.2-0.5l5-5l-2.4-2.4L64.3,81.7z"/>
	<rect x="43.3" y="81.7" width="6.7" height="3.3"/>
	<rect x="43.3" y="71.7" width="20" height="3.3"/>
	<path d="M125.1,70c0-12-9.7-21.7-21.7-21.7c-5,0-9.8,1.7-13.7,4.9c0.2-1.1,0.3-2.1,0.3-3.2c0-0.9-0.7-1.7-1.7-1.7h-15v-15
		c0-0.9-0.7-1.7-1.7-1.7c-8.2,0-15.4,5.5-17.7,13.4h-9.1c-4.6,0-8.4,3.7-8.4,8.4v43.4c0,4.6,3.7,8.4,8.4,8.4h23.4v10h-5
		c-2.8,0-5,2.2-5,5v3.3c0,0.9,0.7,1.7,1.7,1.7H90c0.9,0,1.7-0.7,1.7-1.7v-3.3c0-2.8-2.2-5-5-5h-5v-10H95v11.7c0,4.6,3.7,8.4,8.4,8.4
		c4.6,0,8.4-3.7,8.4-8.4v-20c0-0.9-0.7-1.7-1.7-1.7h-1.7v-3.9C118.2,88.8,125.1,80,125.1,70z M70,35v14.9c0,0.9,0.7,1.7,1.7,1.7
		h14.9c-0.9,8.3-8.4,14.2-16.6,13.3c-8.3-0.9-14.2-8.4-13.3-16.6C57.5,41.3,63,35.8,70,35z M86.7,118.4c0.9,0,1.7,0.7,1.7,1.7v1.7
		H61.6v-1.7c0-0.9,0.7-1.7,1.7-1.7H86.7z M71.7,115.1v-10h6.7v10H71.7z M96.7,95c-0.9,0-1.7,0.7-1.7,1.7v5H44.9c-2.8,0-5-2.2-5-5V95
		h51.8v-3.3H39.9V53.3c0-2.8,2.2-5,5-5h8.4c-0.1,0.6-0.1,1.1-0.1,1.7c0,10.1,8.2,18.4,18.3,18.4c3.8,0,7.6-1.2,10.7-3.4
		c-0.4,1.7-0.6,3.4-0.6,5.1c0,10.1,6.9,18.8,16.7,21.1V95H96.7z M108.4,116.8c0,2.8-2.2,5-5,5c-2.8,0-5-2.2-5-5V98.4h10V116.8z
		 M101.7,95v-3.4c0.6,0,1.1,0.1,1.7,0.1c0.6,0,1.1-0.1,1.7-0.1V95H101.7z M103.4,88.4C93.3,88.4,85,80.1,85,70s8.2-18.4,18.4-18.4
		s18.4,8.2,18.4,18.4C121.8,80.1,113.5,88.4,103.4,88.4z"/>
	<path d="M103.4,55c-8.3,0-15,6.7-15,15s6.7,15,15,15s15-6.7,15-15C118.4,61.7,111.7,55,103.4,55z M103.4,81.7
		c-6.5,0-11.7-5.2-11.7-11.7s5.2-11.7,11.7-11.7s11.7,5.2,11.7,11.7C115.1,76.4,109.9,81.7,103.4,81.7z"/>
	<path d="M95,70h3.3c0-2.8,2.2-5,5-5v-3.3C98.8,61.6,95.1,65.4,95,70z"/>
	<rect x="101.7" y="101.7" width="3.3" height="3.3"/>
	<rect x="101.7" y="108.4" width="3.3" height="10"/>
</g>
</svg>
