<?xml version="1.0" encoding="utf-8"?>
<!-- Generator: Adobe Illustrator 23.0.1, SVG Export Plug-In . SVG Version: 6.00 Build 0)  -->
<svg version="1.1" id="Layer_1" xmlns="http://www.w3.org/2000/svg" xmlns:xlink="http://www.w3.org/1999/xlink" x="0px" y="0px"
	 viewBox="0 0 150 150" style="enable-background:new 0 0 150 150;" xml:space="preserve">
<style type="text/css">
	.st0{fill:#555A66;}
	.st1{fill:#F2F2F2;}
	.st2{fill:#F0582F;}
	.st3{fill:#87C7FF;}
	.st4{fill:#333940;}
	.st5{fill:#22282D;}
	.st6{fill:#EFC203;}
	.st7{fill:#F5EA0A;}
	.st8{fill:#07CC66;}
	.st9{fill:#4A7AFF;}
	.st10{fill:#404651;}
</style>
<g id="_x31_0_x2C__Advertising_x2C__Digital_x2C__Marketing_x2C__Promotion">
	<g>
		<g>
			<path class="st0" d="M116.5,43.3c-3.6,0-79.8,0-83.4,0c-4.4,0-8,3.6-8,8c0,59,0,55.1,0,55.5c0.2,4.2,3.7,7.6,8,7.6
				c5.2,0,88.7,0,83.4,0c4.3,0,7.7-3.3,8-7.6c0-0.3,0,3.6,0-55.5C124.4,46.9,120.9,43.3,116.5,43.3z"/>
			<path class="st1" d="M33.3,52.8c0,2.3,0,49.5,0,52.1c4.3,0,78.1,0,82.8,0c0-2.3,0-49.5,0-52.1C68.8,52.8,92.5,52.8,33.3,52.8z"/>
			<polygon class="st2" points="129.7,46.5 124.2,41.9 123,34.9 115.9,34.9 110.5,30.4 105.1,34.9 98,34.9 96.7,41.9 95.1,43.3 
				95.1,43.3 91.3,46.5 94.9,52.6 94.8,52.8 93.6,59.6 100.3,62 103.8,68.2 110.5,65.7 116.2,67.8 117.2,68.2 120.7,62 124.4,60.7 
				127.4,59.6 126.1,52.6 			"/>
			<path class="st3" d="M89.5,22c2.9,0,5.3,2.4,5.3,5.3s-2.4,5.3-5.3,5.3c-2.9,0-5.3-2.4-5.3-5.3S86.6,22,89.5,22z"/>
			<path class="st3" d="M35.7,31.5c2,0,3.5,1.6,3.5,3.5s-1.6,3.5-3.5,3.5c-2,0-3.5-1.6-3.5-3.5S33.7,31.5,35.7,31.5z"/>
			<polygon class="st4" points="63.9,86.4 65.4,89.6 63.2,90.6 58.9,92.6 58.9,92.6 57.6,93.2 56.1,89.9 			"/>
			<path class="st5" d="M68.1,101.5c0.5,1.2,0,2.6-1.2,3.1c-0.3,0.1-0.6,0.2-1,0.2c-0.9,0-1.8-0.5-2.2-1.4l-1.1-2.5l-3.8-8.4v0
				l4.3-2l1.8,4.1l2.4,5.4L68.1,101.5z"/>
			<path class="st2" d="M68.5,90.7c0.1,0.3,0.2,0.6,0.2,0.9c0,0.9-0.5,1.7-1.3,2l-2.3,1l-1.8-4.1l2.2-1l0.1-0.1
				C66.6,89.1,68,89.6,68.5,90.7z"/>
			<path class="st6" d="M89.6,82.6c0.5,1.2,0,2.6-1.2,3.1c-1.2,0.5-2.6,0-3.1-1.2l-0.2-0.4L72.6,56.4c-0.5-1.2,0-2.6,1.2-3.1
				c0.3-0.1,0.7-0.2,1-0.2c0.9,0,1.8,0.5,2.2,1.4L89.6,82.6z"/>
			<polygon class="st6" points="59.3,70.2 66.1,85.4 63.9,86.4 56.1,89.9 54.2,90.8 52.8,87.6 48.6,78.4 47.3,75.6 			"/>
			<polygon class="st7" points="72.6,56.4 85.1,84.2 82.9,84.4 66.1,85.4 59.3,70.2 70.5,58.6 			"/>
			<path class="st7" d="M48.6,78.4l4.2,9.3l0,0L52,88c-2.6,1.2-5.6,0-6.7-2.5c-0.3-0.7-0.4-1.4-0.4-2.1c0-1.9,1.1-3.8,3-4.6
				L48.6,78.4L48.6,78.4z"/>
			<path class="st3" d="M66.1,85.4l16.8-1c-2,7.6-7.9,13.6-15.4,15.8l-2.4-5.4l2.3-1c0.8-0.4,1.3-1.2,1.3-2c0-0.3-0.1-0.6-0.2-0.9
				c-0.5-1.1-1.8-1.6-3-1.1l-0.1,0.1l-1.5-3.3L66.1,85.4z"/>
			<path class="st3" d="M70.5,58.6L59.3,70.2l-11.9,5.4l1.2,2.8l0,0l-0.8,0.4c-1.9,0.8-3,2.7-3,4.6c0,0.7,0.1,1.4,0.4,2.1
				c1.2,2.6,4.2,3.7,6.7,2.5l0.8-0.4l0,0l1.4,3.1l1.9-0.9l1.5,3.3l1.3-0.6l3.8,8.4c-0.4,0-0.8,0-1.2,0c-12.2,0-22.2-10-22.2-22.2
				c0-12.2,10-22.2,22.2-22.2C64.7,56.6,67.7,57.3,70.5,58.6z"/>
			<path class="st1" d="M118.6,53.3c1,0.5,1.4,1.7,0.9,2.7c-0.5,1-1.7,1.4-2.7,0.9c-1-0.5-1.4-1.7-0.9-2.7
				C116.3,53.2,117.6,52.8,118.6,53.3z"/>
			<path class="st1" d="M116.8,43.1c0,0.3-0.1,0.6-0.2,0.9l-6.6,13.1c-0.5,1-1.7,1.4-2.7,0.9c-1-0.5-1.4-1.7-0.9-2.7l6.6-13.1
				c0.5-1,1.7-1.4,2.7-0.9C116.4,41.7,116.8,42.4,116.8,43.1z"/>
			<path class="st1" d="M106.1,42.4c1,0.5,1.4,1.7,0.9,2.7c-0.5,1-1.7,1.4-2.7,0.9c-1-0.5-1.4-1.7-0.9-2.7
				C103.9,42.3,105.1,41.9,106.1,42.4z"/>
			<path class="st8" d="M123.8,22c1,0,1.8,0.8,1.8,1.8s-0.8,1.8-1.8,1.8c-1,0-1.8-0.8-1.8-1.8S122.9,22,123.8,22z"/>
			<path class="st9" d="M96,78.8c0.7,0,1.2,0.5,1.2,1.2s-0.5,1.2-1.2,1.2c-0.7,0-1.2-0.5-1.2-1.2S95.4,78.8,96,78.8z"/>
			<path class="st9" d="M96,83.5c0.7,0,1.2,0.5,1.2,1.2s-0.5,1.2-1.2,1.2c-0.7,0-1.2-0.5-1.2-1.2S95.4,83.5,96,83.5z"/>
			<path class="st9" d="M96,88.3c0.7,0,1.2,0.5,1.2,1.2s-0.5,1.2-1.2,1.2c-0.7,0-1.2-0.5-1.2-1.2S95.4,88.3,96,88.3z"/>
			<path class="st9" d="M96,93c0.7,0,1.2,0.5,1.2,1.2s-0.5,1.2-1.2,1.2c-0.7,0-1.2-0.5-1.2-1.2S95.4,93,96,93z"/>
			<path class="st9" d="M96,97.7c0.7,0,1.2,0.5,1.2,1.2s-0.5,1.2-1.2,1.2c-0.7,0-1.2-0.5-1.2-1.2S95.4,97.7,96,97.7z"/>
			<path class="st8" d="M78.9,33.8c1,0,1.8,0.8,1.8,1.8s-0.8,1.8-1.8,1.8c-1,0-1.8-0.8-1.8-1.8S77.9,33.8,78.9,33.8z"/>
			<path class="st8" d="M56.4,26.7c1,0,1.8,0.8,1.8,1.8s-0.8,1.8-1.8,1.8c-1,0-1.8-0.8-1.8-1.8S55.4,26.7,56.4,26.7z"/>
			<path class="st8" d="M23.3,35c1,0,1.8,0.8,1.8,1.8s-0.8,1.8-1.8,1.8c-1,0-1.8-0.8-1.8-1.8S22.3,35,23.3,35z"/>
			<path class="st7" d="M53.5,79.2c-0.5,0-0.9-0.3-1.1-0.7c-0.3-0.6,0-1.3,0.6-1.6l3.5-1.6c0.6-0.3,1.3,0,1.6,0.6
				c0.3,0.6,0,1.3-0.6,1.6L54,79.1C53.8,79.2,53.7,79.2,53.5,79.2z"/>
			<path class="st7" d="M55,82.5c-0.5,0-0.9-0.3-1.1-0.7c-0.3-0.6,0-1.3,0.6-1.6l3.5-1.6c0.6-0.3,1.3,0,1.6,0.6
				c0.3,0.6,0,1.3-0.6,1.6l-3.5,1.6C55.3,82.4,55.1,82.5,55,82.5z"/>
			<path class="st7" d="M56.4,85.7c-0.5,0-0.9-0.3-1.1-0.7c-0.3-0.6,0-1.3,0.6-1.6l3.5-1.6c0.6-0.3,1.3,0,1.6,0.6
				c0.3,0.6,0,1.3-0.6,1.6l-3.5,1.6C56.8,85.7,56.6,85.7,56.4,85.7z"/>
			<path class="st6" d="M78.1,81.2c-0.5,0-0.9-0.3-1.1-0.7l-6.8-15.1c-0.3-0.6,0-1.3,0.6-1.6c0.6-0.3,1.3,0,1.6,0.6l6.8,15.1
				c0.3,0.6,0,1.3-0.6,1.6C78.4,81.1,78.3,81.2,78.1,81.2z"/>
			<path class="st6" d="M72,78.6c-0.5,0-0.9-0.3-1.1-0.7l-3.2-7.4c-0.3-0.6,0-1.3,0.6-1.6c0.6-0.3,1.3,0,1.6,0.6l3.2,7.4
				c0.3,0.6,0,1.3-0.6,1.6C72.3,78.5,72.1,78.6,72,78.6z"/>
			<path class="st9" d="M111.4,100.1H99.6c-0.7,0-1.2-0.5-1.2-1.2c0-0.7,0.5-1.2,1.2-1.2h11.8c0.7,0,1.2,0.5,1.2,1.2
				C112.6,99.6,112.1,100.1,111.4,100.1z"/>
			<path class="st9" d="M111.4,95.3H99.6c-0.7,0-1.2-0.5-1.2-1.2c0-0.7,0.5-1.2,1.2-1.2h11.8c0.7,0,1.2,0.5,1.2,1.2
				C112.6,94.8,112.1,95.3,111.4,95.3z"/>
			<path class="st9" d="M111.4,90.6H99.6c-0.7,0-1.2-0.5-1.2-1.2c0-0.7,0.5-1.2,1.2-1.2h11.8c0.7,0,1.2,0.5,1.2,1.2
				C112.6,90.1,112.1,90.6,111.4,90.6z"/>
			<path class="st9" d="M111.4,85.9H99.6c-0.7,0-1.2-0.5-1.2-1.2c0-0.7,0.5-1.2,1.2-1.2h11.8c0.7,0,1.2,0.5,1.2,1.2
				C112.6,85.4,112.1,85.9,111.4,85.9z"/>
			<path class="st9" d="M111.4,81.2H99.6c-0.7,0-1.2-0.5-1.2-1.2s0.5-1.2,1.2-1.2h11.8c0.7,0,1.2,0.5,1.2,1.2S112.1,81.2,111.4,81.2
				z"/>
			<path class="st10" d="M122.1,113.8c2,0,3.7,0.8,5,2.1c1.3,1.3,2.1,3.1,2.1,5c0,3.9-3.2,7.1-7.1,7.1H27.4c-2,0-3.7-0.8-5-2.1
				c-1.3-1.3-2.1-3.1-2.1-5c0-3.9,3.2-7.1,7.1-7.1H122.1z"/>
			<rect x="102" y="113.8" class="st5" width="13" height="4.7"/>
			<rect x="62.9" y="113.8" class="st5" width="23.7" height="4.7"/>
			<rect x="34.5" y="113.8" class="st5" width="13" height="4.7"/>
		</g>
	</g>
</g>
</svg>
