<?xml version="1.0" encoding="utf-8"?>
<!-- Generator: Adobe Illustrator 23.0.1, SVG Export Plug-In . SVG Version: 6.00 Build 0)  -->
<svg version="1.1" id="Layer_1" xmlns="http://www.w3.org/2000/svg" xmlns:xlink="http://www.w3.org/1999/xlink" x="0px" y="0px"
	 viewBox="0 0 150 150" style="enable-background:new 0 0 150 150;" xml:space="preserve">
<style type="text/css">
	.st0{fill:#55AFF5;}
	.st1{fill:#336993;}
	.st2{fill:#FBC87A;}
	.st3{fill:#234966;}
	.st4{fill:#CD6660;}
	.st5{fill:#954A46;}
</style>
<g>
	<path class="st0" d="M84.6,107.9h-23v15.4h23V107.9z"/>
	<path class="st0" d="M127.1,109.8H22.9c-2,0-3.6-1.6-3.6-3.6V36.6c0-2,1.6-3.6,3.6-3.6h104.2c2,0,3.6,1.6,3.6,3.6v69.6
		C130.7,108.2,129.1,109.8,127.1,109.8z"/>
	<path class="st1" d="M127.1,109.8H22.9c-2,0-3.6-1.6-3.6-3.6v-7.9h111.4v7.9C130.7,108.2,129.1,109.8,127.1,109.8z"/>
	<path class="st1" d="M87.5,121.3H58.6c-5.3,0-10.1,3-12.4,7.7H100C97.6,124.3,92.8,121.3,87.5,121.3z"/>
	<path class="st2" d="M84.4,48.5C81,52,79.6,57,80.8,61.8H69.2c0.3-1.1,0.4-2.3,0.4-3.4c0-3.7-1.4-7.2-4.1-9.9l-0.2-0.2l7.7-6.1
		l1.9-1.5l1.9,1.5l7.7,6.1L84.4,48.5z"/>
	<path class="st3" d="M76.9,42.2v8.1c0,1.1-0.9,1.9-1.9,1.9c-1.1,0-1.9-0.9-1.9-1.9v-8.1l1.9-1.5L76.9,42.2z"/>
	<path class="st3" d="M78.8,98.3h-7.7l-1.9-32.6h11.5L78.8,98.3z"/>
	<path class="st4" d="M78.8,67.6h-7.7c-2.1,0-3.8-1.7-3.8-3.8c0-2.1,1.7-3.8,3.8-3.8h7.7c2.1,0,3.8,1.7,3.8,3.8
		C82.7,65.8,81,67.6,78.8,67.6z"/>
	<path class="st2" d="M57.7,40.7H42.4v57.6h15.4V40.7z"/>
	<path class="st3" d="M50,48.4c0,1.1-0.9,1.9-1.9,1.9h-5.8v-3.8h5.8C49.2,46.4,50,47.3,50,48.4z"/>
	<path class="st3" d="M52,56c0,1.1-0.9,1.9-1.9,1.9h-7.7v-3.8H50C51.1,54.1,52,55,52,56z"/>
	<path class="st3" d="M50,63.7c0,1.1-0.9,1.9-1.9,1.9h-5.8v-3.8h5.8C49.2,61.8,50,62.7,50,63.7z"/>
	<path class="st3" d="M52,71.4c0,1.1-0.9,1.9-1.9,1.9h-7.7v-3.8H50C51.1,69.5,52,70.3,52,71.4z"/>
	<path class="st3" d="M50,79.1c0,1.1-0.9,1.9-1.9,1.9h-5.8v-3.8h5.8C49.2,77.2,50,78,50,79.1z"/>
	<path class="st3" d="M52,86.8c0,1.1-0.9,1.9-1.9,1.9h-7.7v-3.8H50C51.1,84.8,52,85.7,52,86.8z"/>
	<path class="st2" d="M96.1,50.3l5.8-11.5l5.8,11.5v40.3H96.1V50.3z"/>
	<path class="st1" d="M101.9,79.1c-1.1,0-1.9-0.9-1.9-1.9V50.3c0-1.1,0.9-1.9,1.9-1.9c1.1,0,1.9,0.9,1.9,1.9v26.9
		C103.8,78.2,102.9,79.1,101.9,79.1z"/>
	<path class="st1" d="M101.9,92.5c-1.1,0-1.9-0.9-1.9-1.9v-5.8c0-1.1,0.9-1.9,1.9-1.9c1.1,0,1.9,0.9,1.9,1.9v5.8
		C103.8,91.7,102.9,92.5,101.9,92.5z"/>
	<path class="st2" d="M84.6,106H65.4c-1.1,0-1.9-0.9-1.9-1.9s0.9-1.9,1.9-1.9h19.2c1.1,0,1.9,0.9,1.9,1.9S85.7,106,84.6,106z"/>
	<path class="st2" d="M96.1,106h-3.8c-1.1,0-1.9-0.9-1.9-1.9s0.9-1.9,1.9-1.9h3.8c1.1,0,1.9,0.9,1.9,1.9S97.2,106,96.1,106z"/>
	<path class="st2" d="M57.7,106h-3.8c-1.1,0-1.9-0.9-1.9-1.9s0.9-1.9,1.9-1.9h3.8c1.1,0,1.9,0.9,1.9,1.9S58.8,106,57.7,106z"/>
	<path class="st2" d="M34.7,42.6H27v7.7h7.7V42.6z"/>
	<path class="st2" d="M34.7,61.8H27v7.7h7.7V61.8z"/>
	<path class="st2" d="M34.7,81H27v7.7h7.7V81z"/>
	<path class="st5" d="M115.3,50.3h7.7v-7.7h-7.7V50.3z"/>
	<path class="st5" d="M115.3,69.5h7.7v-7.7h-7.7V69.5z"/>
	<path class="st5" d="M115.3,88.7h7.7V81h-7.7V88.7z"/>
	<path class="st3" d="M96.1,50.3l5.8-11.5l5.8,11.5H96.1z"/>
	<path class="st5" d="M107.6,90.6H96.1v1.9c0,3.2,2.6,5.8,5.8,5.8c3.2,0,5.8-2.6,5.8-5.8V90.6z"/>
</g>
</svg>
