<?xml version="1.0" encoding="utf-8"?>
<!-- Generator: Adobe Illustrator 23.0.1, SVG Export Plug-In . SVG Version: 6.00 Build 0)  -->
<svg version="1.1" id="Layer_1" xmlns="http://www.w3.org/2000/svg" xmlns:xlink="http://www.w3.org/1999/xlink" x="0px" y="0px"
	 viewBox="0 0 150 150" style="enable-background:new 0 0 150 150;" xml:space="preserve">
<style type="text/css">
	.st0{fill:#656B76;}
	.st1{fill:#464A51;}
	.st2{fill:#00B4D8;}
	.st3{fill:#0096C7;}
	.st4{fill:#FFD000;}
	.st5{fill:#FFEA00;}
	.st6{fill:#FFB700;}
	.st7{fill:#E9F1F2;}
	.st8{fill:#D0D8DA;}
	.st9{fill:#93999A;}
	.st10{fill:#FFA200;}
	.st11{fill:#ADE8F4;}
	.st12{fill:#48CAE4;}
	.st13{fill:#323232;}
</style>
<path class="st0" d="M101.9,59.9c4.5,0,8.7,1.8,11.9,4.9c3.2,3.2,4.9,7.4,4.9,11.9v13.4c0,1.8-0.7,3.5-2,4.8c-1.3,1.3-3,2-4.8,2
	H91.8c-1.8,0-3.5-0.7-4.8-2c-1.3-1.3-2-3-2-4.8V76.7c0-4.5,1.8-8.7,4.9-11.9C93.2,61.6,97.4,59.9,101.9,59.9z"/>
<path class="st1" d="M115.3,80v-4.8c0-0.7-0.1-1.4-0.4-2c-0.3-0.6-0.7-1.2-1.1-1.7c-0.5-0.5-1.1-0.9-1.7-1.1c-0.6-0.3-1.3-0.4-2-0.4
	h-0.1c-1.5,0-3-0.3-4.3-0.9c-1.4-0.6-2.6-1.4-3.7-2.5l-1.9-1.9c-0.5-0.5-0.8-1-1.1-1.6c-0.3-0.6-0.4-1.3-0.4-1.9v-0.1
	c0-0.3,0-0.6,0.1-0.9C94.8,61,91.4,63,88.9,66c-2.5,3-3.8,6.8-3.8,10.7v13.4c0,1.8,0.7,3.5,2,4.8c1.3,1.3,3,2,4.8,2H112
	c1.8,0,3.5-0.7,4.8-2c1.3-1.3,2-3,2-4.8v-3.4c-1-0.8-1.9-1.8-2.5-2.9C115.6,82.6,115.3,81.3,115.3,80z"/>
<path class="st2" d="M93.5,93.5h16.8c1.8,0,3.5,0.7,4.8,2c1.3,1.3,2,3,2,4.8V117H86.8v-16.8c0-1.8,0.7-3.5,2-4.8
	C90,94.2,91.7,93.5,93.5,93.5L93.5,93.5z"/>
<path class="st3" d="M108.6,108.6c-3.6,0-7-1.4-9.5-3.9c-2.5-2.5-3.9-5.9-3.9-9.5v-0.6c1.5,0.5,3,0.7,4.6,0.5c1.5-0.2,3-0.7,4.3-1.6
	H93.5c-1.8,0-3.5,0.7-4.8,2c-1.3,1.3-2,3-2,4.8V117H117v-8.4H108.6z"/>
<path class="st4" d="M96.8,88.4h10.1v5c0,1.3-0.5,2.6-1.5,3.6c-0.9,0.9-2.2,1.5-3.6,1.5s-2.6-0.5-3.6-1.5c-0.9-0.9-1.5-2.2-1.5-3.6
	V88.4z"/>
<path class="st5" d="M86.8,106.9v3.4H80c-0.9,0-1.7,0.4-2.4,1s-1,1.5-1,2.4s0.4,1.7,1,2.4s1.5,1,2.4,1h13.4v-10.1H86.8z"/>
<path class="st5" d="M110.3,106.9v3.4h-6.7c-0.9,0-1.7,0.4-2.4,1c-0.6,0.6-1,1.5-1,2.4s0.4,1.7,1,2.4c0.6,0.6,1.5,1,2.4,1H117v-10.1
	H110.3z"/>
<path class="st6" d="M105.3,96.8c-0.8,0-1.6-0.2-2.3-0.5c-0.7-0.4-1.3-0.9-1.8-1.5c2.3-0.7,4.4-2.1,5.7-4.2v-2.2H96.8v5
	c0,1,0.3,2,0.9,2.9c0.6,0.8,1.4,1.5,2.4,1.9s2,0.4,3,0.2c1-0.3,1.9-0.8,2.6-1.6C105.5,96.8,105.4,96.8,105.3,96.8z"/>
<path class="st3" d="M110.3,103.6v6.7h-1.7v-5c0-0.4,0.2-0.9,0.5-1.2C109.4,103.7,109.8,103.6,110.3,103.6z"/>
<path class="st4" d="M113.7,110.3v-3.4h-3.4v3.4c0,0.9-0.4,1.7-1,2.4s-1.5,1-2.4,1h-6.7c0,0.9,0.4,1.7,1,2.4c0.6,0.6,1.5,1,2.4,1
	H117v-3.4c-0.9,0-1.7-0.4-2.4-1C114,112,113.7,111.2,113.7,110.3z"/>
<path class="st4" d="M93.5,106.9h-6.7v3.4c0,0.9-0.4,1.7-1,2.4s-1.5,1-2.4,1h-6.7c0,0.9,0.4,1.7,1,2.4s1.5,1,2.4,1h13.4V106.9z"/>
<path class="st5" d="M101.9,91.8c-2.7,0-5.2-1.1-7.1-3c-1.9-1.9-3-4.5-3-7.1v-8.4c1.5,0,2.9-0.5,4.1-1.3c1.2-0.9,2.1-2.1,2.5-3.5
	l0.1-0.3c1.6,1.6,3.5,2.9,5.6,3.7c2.1,0.9,4.3,1.3,6.6,1.3h1.3v8.4c0,2.7-1.1,5.2-3,7.1C107.1,90.7,104.6,91.8,101.9,91.8z"/>
<path class="st4" d="M110.7,73.3c-2.3,0-4.5-0.4-6.6-1.3c-2.1-0.9-4-2.1-5.6-3.7l-0.1,0.3c-0.5,1.4-1.4,2.6-2.5,3.5
	c-1.2,0.9-2.6,1.3-4.1,1.3v8.4c0,2.2,0.7,4.3,2.1,6.1c1.3,1.7,3.2,3,5.3,3.6c2.1,0.6,4.4,0.5,6.4-0.3c2-0.8,3.8-2.2,4.9-4.1
	c-1.5,0.9-3.3,1.4-5.1,1.5c-1.8,0-3.6-0.4-5.1-1.3c-1.6-0.9-2.9-2.2-3.8-3.7c-0.9-1.5-1.4-3.3-1.4-5.1v-2.6c1.5-0.8,2.7-2.2,3.3-3.9
	l0.1-0.3c1.6,1.6,3.5,2.9,5.6,3.7c2.1,0.9,4.3,1.3,6.6,1.3h1.3v-3.4H110.7z"/>
<path class="st7" d="M123.7,117H26.3v6.7h97.5V117z"/>
<path class="st8" d="M34.7,117h-8.4v6.7h97.5v-3.4H38c-0.9,0-1.7-0.4-2.4-1C35,118.8,34.7,117.9,34.7,117z"/>
<path class="st8" d="M71.6,70h-37c-2.8,0-5,2.3-5,5v23.5c0,2.8,2.3,5,5,5h37c2.8,0,5-2.3,5-5V75C76.7,72.2,74.4,70,71.6,70z"/>
<path class="st7" d="M73.3,110.3c0.9,0,1.7,0.4,2.4,1s1,1.5,1,2.4v3.4H70v-3.4c0-0.9,0.4-1.7,1-2.4
	C71.6,110.6,72.4,110.3,73.3,110.3L73.3,110.3z"/>
<path class="st9" d="M76.7,96.8v1.7c0,1.3-0.5,2.6-1.5,3.6c-0.9,0.9-2.2,1.5-3.6,1.5h-37c-1.3,0-2.6-0.5-3.6-1.5
	c-0.9-0.9-1.5-2.2-1.5-3.6V75c0-1.3,0.5-2.6,1.5-3.6c0.9-0.9,2.2-1.5,3.6-1.5h1.7V80c0,2.6,0.6,5.3,1.8,7.6c1.2,2.4,2.9,4.4,5.1,6
	c0.3-1.5,1.2-2.8,2.4-3.7c1.2-0.9,2.7-1.5,4.2-1.5h3.4c0.9,0,1.7,0.4,2.4,1c0.6,0.6,1,1.5,1,2.4v5H76.7z"/>
<path class="st7" d="M53.2,88.4c1.8,0,3.5,0.7,4.8,2c1.3,1.3,2,3,2,4.8v18.5H46.4V95.2c0-1.8,0.7-3.5,2-4.8
	C49.7,89.2,51.4,88.4,53.2,88.4z"/>
<path class="st8" d="M59.9,106.8v6.9H46.4V95.2c0-1.5,0.5-2.9,1.4-4.1c0.9-1.2,2.2-2,3.6-2.4v8.2c0,2.4,0.8,4.7,2.4,6.5
	C55.4,105.2,57.5,106.4,59.9,106.8L59.9,106.8z"/>
<path class="st7" d="M39.7,110.3h26.9c0.9,0,1.7,0.4,2.4,1s1,1.5,1,2.4v3.4H36.3v-3.4c0-0.9,0.4-1.7,1-2.4
	C38,110.6,38.8,110.3,39.7,110.3z"/>
<path class="st8" d="M70,113.7v3.4H36.3v-3.4c0-0.9,0.4-1.7,1-2.4c0.6-0.6,1.5-1,2.4-1H40c0.3,1,1,1.8,1.8,2.4
	c0.9,0.6,1.9,0.9,2.9,0.9H70z"/>
<path class="st7" d="M76.7,75v16.8c-0.9,0-1.7-0.4-2.4-1c-0.6-0.6-1-1.5-1-2.4V76.7c0-0.9-0.4-1.7-1-2.4c-0.6-0.6-1.5-1-2.4-1H51.5
	c-0.9,0-1.7-0.4-2.4-1c-0.6-0.6-1-1.5-1-2.4h23.5c1.3,0,2.6,0.5,3.6,1.5C76.1,72.4,76.7,73.7,76.7,75z"/>
<path class="st5" d="M90.1,43.1c0-0.6-0.1-1.2-0.2-1.9l3.8-2.2l-5-8.7l-3.8,2.2c-1-0.8-2.1-1.4-3.2-1.9v-4.4H71.6v4.4
	c-1.2,0.5-2.2,1.1-3.2,1.9l-3.8-2.2l-5,8.7l3.8,2.2c-0.2,1.2-0.2,2.5,0,3.7l-3.8,2.2l5,8.7l3.8-2.2c1,0.8,2.1,1.4,3.2,1.9v4.4h10.1
	v-4.4c1.2-0.5,2.2-1.1,3.2-1.9l3.8,2.2l5-8.7L90,44.9C90.1,44.3,90.1,43.7,90.1,43.1L90.1,43.1z M76.7,48.1c-1,0-2-0.3-2.8-0.8
	c-0.8-0.6-1.5-1.3-1.9-2.3c-0.4-0.9-0.5-1.9-0.3-2.9c0.2-1,0.7-1.9,1.4-2.6c0.7-0.7,1.6-1.2,2.6-1.4c1-0.2,2-0.1,2.9,0.3
	c0.9,0.4,1.7,1,2.3,1.9c0.6,0.8,0.8,1.8,0.8,2.8c0,1.3-0.5,2.6-1.5,3.6C79.3,47.6,78,48.1,76.7,48.1z"/>
<path class="st4" d="M83.4,51.5c-4.9,0-9.7-1.7-13.6-4.7c-3.9-3.1-6.6-7.3-7.7-12.1L59.6,39l3.8,2.2c-0.2,1.2-0.2,2.5,0,3.7
	l-3.8,2.2l5,8.7l3.8-2.2c1,0.8,2.1,1.4,3.2,1.9v4.4h10.1v-4.4c1.2-0.5,2.2-1.1,3.2-1.9l3.8,2.2l3.6-6.3
	C89.5,50.8,86.5,51.5,83.4,51.5L83.4,51.5z"/>
<path class="st6" d="M76.7,34.7c-1.7,0-3.3,0.5-4.7,1.4c-1.4,0.9-2.5,2.2-3.1,3.8c-0.6,1.5-0.8,3.2-0.5,4.9c0.3,1.6,1.1,3.1,2.3,4.3
	c1.2,1.2,2.7,2,4.3,2.3c1.6,0.3,3.3,0.2,4.9-0.5c1.5-0.6,2.8-1.7,3.8-3.1c0.9-1.4,1.4-3,1.4-4.7c0-2.2-0.9-4.4-2.5-5.9
	C81,35.5,78.9,34.7,76.7,34.7z M76.7,48.1c-1,0-2-0.3-2.8-0.8c-0.8-0.6-1.5-1.3-1.9-2.3c-0.4-0.9-0.5-1.9-0.3-2.9
	c0.2-1,0.7-1.9,1.4-2.6c0.7-0.7,1.6-1.2,2.6-1.4c1-0.2,2-0.1,2.9,0.3c0.9,0.4,1.7,1,2.3,1.9c0.6,0.8,0.8,1.8,0.8,2.8
	c0,1.3-0.5,2.6-1.5,3.6S78,48.1,76.7,48.1z"/>
<path class="st6" d="M68.7,45.8c0.6,1.7,1.6,3.1,3.1,4.1c1.4,1,3.1,1.6,4.9,1.6c0.9,0,1.8-0.1,2.6-0.4
	C75.3,50.3,71.7,48.5,68.7,45.8L68.7,45.8z"/>
<path class="st10" d="M68.7,45.8c0.6,1.7,1.6,3.1,3.1,4.1c1.4,1,3.1,1.6,4.9,1.6c0.9,0,1.8-0.1,2.6-0.4
	C75.3,50.3,71.7,48.5,68.7,45.8L68.7,45.8z"/>
<path class="st5" d="M54.8,49.8c0-0.6-0.1-1.2-0.2-1.8l3.4-2l-3.4-5.8l-3.4,2c-0.9-0.8-2-1.4-3.2-1.8v-3.9h-6.7v3.9
	c-1.2,0.4-2.2,1-3.2,1.8l-3.4-2L31.4,46l3.4,2c-0.2,1.2-0.2,2.5,0,3.7l-3.4,2l3.4,5.8l3.4-2c0.9,0.8,2,1.4,3.2,1.8v3.9h6.7v-3.9
	c1.2-0.4,2.3-1,3.2-1.8l3.4,2l3.4-5.8l-3.4-2C54.8,51,54.8,50.4,54.8,49.8L54.8,49.8z M44.7,53.2c-0.7,0-1.3-0.2-1.9-0.6
	c-0.6-0.4-1-0.9-1.2-1.5c-0.3-0.6-0.3-1.3-0.2-1.9c0.1-0.7,0.4-1.3,0.9-1.7s1.1-0.8,1.7-0.9c0.7-0.1,1.3-0.1,1.9,0.2
	c0.6,0.3,1.1,0.7,1.5,1.2c0.4,0.6,0.6,1.2,0.6,1.9c0,0.9-0.4,1.7-1,2.4C46.5,52.8,45.6,53.2,44.7,53.2z"/>
<path class="st4" d="M57.9,53.5c-2,0.9-4.2,1.3-6.5,1.3c-2.6,0-5.2-0.6-7.5-1.8c-0.6-0.1-1.2-0.4-1.6-0.9c0,0,0,0,0,0c0,0,0,0,0,0
	c0,0,0,0,0,0s0,0,0,0c-2.1-1.3-3.8-3.1-5.1-5.1c-1.3-2.1-2.1-4.4-2.4-6.8l0,0L31.4,46l3.4,2c-0.2,1.2-0.2,2.5,0,3.7l-3.4,2l3.4,5.8
	l3.4-2c0.9,0.8,2,1.4,3.2,1.8v3.9h6.7v-3.9c1.2-0.4,2.2-1,3.2-1.8l3.4,2l3.4-5.8L57.9,53.5z"/>
<path class="st6" d="M44.7,43.1c-1.3,0-2.6,0.4-3.7,1.1c-1.1,0.7-2,1.8-2.5,3c-0.5,1.2-0.6,2.6-0.4,3.9c0.3,1.3,0.9,2.5,1.8,3.4
	s2.1,1.6,3.4,1.8c1.3,0.3,2.7,0.1,3.9-0.4c1.2-0.5,2.3-1.4,3-2.5s1.1-2.4,1.1-3.7c0-1.8-0.7-3.5-2-4.8
	C48.2,43.8,46.5,43.1,44.7,43.1L44.7,43.1z M44.7,53.2c-0.7,0-1.3-0.2-1.9-0.6c-0.6-0.4-1-0.9-1.2-1.5c-0.3-0.6-0.3-1.3-0.2-1.9
	c0.1-0.7,0.4-1.3,0.9-1.7s1.1-0.8,1.7-0.9c0.7-0.1,1.3-0.1,1.9,0.2c0.6,0.3,1.1,0.7,1.5,1.2c0.4,0.6,0.6,1.2,0.6,1.9
	c0,0.9-0.4,1.7-1,2.4C46.5,52.8,45.6,53.1,44.7,53.2L44.7,53.2z"/>
<path class="st10" d="M44,53.1c-0.6-0.1-1.2-0.4-1.6-0.9l0,0c-1.6-1-3-2.3-4.2-3.8c-0.1,0.5-0.2,1-0.2,1.5c0,1.3,0.4,2.6,1.1,3.7
	c0.7,1.1,1.7,2,2.9,2.5c1.2,0.5,2.5,0.7,3.8,0.5s2.5-0.8,3.4-1.7C47.5,54.5,45.7,53.9,44,53.1L44,53.1z"/>
<path class="st11" d="M100.2,35.5v10.1c0,0.9,0.4,1.7,1,2.4c0.6,0.6,1.5,1,2.4,1v6.7l10.1-6.7h6.7c0.9,0,1.7-0.4,2.4-1s1-1.5,1-2.4
	V35.5c0-0.9-0.4-1.7-1-2.4c-0.6-0.6-1.5-1-2.4-1h-16.8c-0.9,0-1.7,0.4-2.4,1C100.6,33.8,100.2,34.6,100.2,35.5z"/>
<path class="st12" d="M123.7,43.1v2.5c0,0.9-0.4,1.7-1,2.4c-0.6,0.6-1.5,1-2.4,1h-6.7l-10.1,6.7v-6.7c-0.9,0-1.7-0.4-2.4-1
	c-0.6-0.6-1-1.5-1-2.4V35.5c0-0.9,0.4-1.7,1-2.4c0.6-0.6,1.5-1,2.4-1h1.7v4.2c0,1.8,0.7,3.5,2,4.8c1.3,1.3,3,2,4.8,2H123.7z"/>
<path class="st13" d="M98.5,80c0.9,0,1.7-0.8,1.7-1.7c0-0.9-0.8-1.7-1.7-1.7c-0.9,0-1.7,0.8-1.7,1.7C96.8,79.3,97.6,80,98.5,80z"/>
<path class="st13" d="M105.3,80c0.9,0,1.7-0.8,1.7-1.7c0-0.9-0.8-1.7-1.7-1.7c-0.9,0-1.7,0.8-1.7,1.7C103.6,79.3,104.3,80,105.3,80z
	"/>
<path class="st13" d="M123.7,115.3h-5.4c0.2-0.5,0.3-1.1,0.3-1.7v-13.4c0-1.4-0.4-2.7-1-4c0.9-0.8,1.5-1.7,2-2.8
	c0.5-1.1,0.7-2.2,0.7-3.4V76.7c0-4.9-1.9-9.6-5.4-13.1c-3.5-3.5-8.2-5.4-13.1-5.4s-9.6,1.9-13.1,5.4c-3.5,3.5-5.4,8.2-5.4,13.1v5
	c0,0.4,0.2,0.9,0.5,1.2c0.3,0.3,0.7,0.5,1.2,0.5c0.4,0,0.9-0.2,1.2-0.5c0.3-0.3,0.5-0.7,0.5-1.2v-5c0-4,1.6-7.9,4.4-10.7
	c2.8-2.8,6.7-4.4,10.7-4.4s7.9,1.6,10.7,4.4c2.8,2.8,4.4,6.7,4.4,10.7v13.4c0,0.7-0.1,1.3-0.4,1.9c-0.3,0.6-0.6,1.2-1.1,1.6
	c-1.5-1.2-3.3-1.9-5.2-1.9h-1.7v-0.4c1.6-1.1,2.8-2.5,3.7-4.2c0.9-1.7,1.3-3.5,1.3-5.4V80c0-0.4-0.2-0.9-0.5-1.2
	c-0.3-0.3-0.7-0.5-1.2-0.5c-0.4,0-0.9,0.2-1.2,0.5c-0.3,0.3-0.5,0.7-0.5,1.2v1.7c0,2.2-0.9,4.4-2.5,5.9c-1.6,1.6-3.7,2.5-5.9,2.5
	s-4.4-0.9-5.9-2.5c-1.6-1.6-2.5-3.7-2.5-5.9v-6.9c1.1-0.2,2.2-0.7,3.2-1.3c1-0.7,1.8-1.5,2.4-2.5c3.3,2.6,7.4,4,11.6,4h1.3
	c0.4,0,0.9-0.2,1.2-0.5c0.3-0.3,0.5-0.7,0.5-1.2s-0.2-0.9-0.5-1.2c-0.3-0.3-0.7-0.5-1.2-0.5h-1.3c-2,0-4.1-0.4-5.9-1.2
	s-3.6-1.9-5-3.4c-0.2-0.2-0.5-0.3-0.7-0.4c-0.3-0.1-0.6-0.1-0.8,0c-0.3,0.1-0.5,0.2-0.7,0.4c-0.2,0.2-0.4,0.4-0.5,0.7L96.8,68
	c-0.4,1.1-1,2-1.9,2.6c-0.9,0.7-2,1-3.1,1c-0.4,0-0.9,0.2-1.2,0.5c-0.3,0.3-0.5,0.7-0.5,1.2v8.4c0,1.9,0.5,3.8,1.3,5.4
	c0.9,1.7,2.1,3.1,3.7,4.2v0.4h-1.7c-1.9,0-3.7,0.7-5.2,1.9c-0.5-0.5-0.9-1-1.1-1.6c-0.3-0.6-0.4-1.3-0.4-1.9v-1.7
	c0-0.4-0.2-0.9-0.5-1.2c-0.3-0.3-0.7-0.5-1.2-0.5c-0.4,0-0.9,0.2-1.2,0.5c-0.3,0.3-0.5,0.7-0.5,1.2v1.7c0,1.2,0.2,2.3,0.7,3.4
	c0.5,1.1,1.2,2,2,2.8c-0.7,1.2-1,2.6-1,4v8.4h-5c-1.2,0-2.4,0.5-3.4,1.3c-0.9-0.8-2.1-1.3-3.4-1.3s-2.4,0.5-3.4,1.3
	c-0.9-0.8-2.1-1.3-3.4-1.3h-5v-3.4h10.1c1.8,0,3.5-0.7,4.8-2c1.3-1.3,2-3,2-4.8V75c0-1.8-0.7-3.5-2-4.8c-1.3-1.3-3-2-4.8-2h-37
	c-1.8,0-3.5,0.7-4.8,2c-1.3,1.3-2,3-2,4.8v23.5c0,1.8,0.7,3.5,2,4.8c1.3,1.3,3,2,4.8,2h5c0.4,0,0.9-0.2,1.2-0.5
	c0.3-0.3,0.5-0.7,0.5-1.2c0-0.4-0.2-0.9-0.5-1.2c-0.3-0.3-0.7-0.5-1.2-0.5h-5c-0.9,0-1.7-0.4-2.4-1c-0.6-0.6-1-1.5-1-2.4V75
	c0-0.9,0.4-1.7,1-2.4c0.6-0.6,1.5-1,2.4-1h37c0.9,0,1.7,0.4,2.4,1c0.6,0.6,1,1.5,1,2.4v23.5c0,0.9-0.4,1.7-1,2.4
	c-0.6,0.6-1.5,1-2.4,1H61.6v-6.7c0-2.2-0.9-4.4-2.5-5.9c-1.6-1.6-3.7-2.5-5.9-2.5c-2.2,0-4.4,0.9-5.9,2.5c-1.6,1.6-2.5,3.7-2.5,5.9
	v13.4h-5c-1.3,0-2.6,0.5-3.6,1.5s-1.5,2.2-1.5,3.6v1.7h-8.4c-0.4,0-0.9,0.2-1.2,0.5c-0.3,0.3-0.5,0.7-0.5,1.2c0,0.4,0.2,0.9,0.5,1.2
	c0.3,0.3,0.7,0.5,1.2,0.5h97.5c0.4,0,0.9-0.2,1.2-0.5c0.3-0.3,0.5-0.7,0.5-1.2c0-0.4-0.2-0.9-0.5-1.2
	C124.6,115.5,124.2,115.3,123.7,115.3z M107.6,95.2h0.2l-1.7,4.2l-1.6-1.1L107.6,95.2z M105,93.1l-3.1,3.1l-3.1-3.1
	C100.8,93.6,103,93.6,105,93.1L105,93.1z M96.2,95.2l3.1,3.1l-1.6,1.1L96,95.2H96.2z M92.4,95.3l2.9,7.2c0.1,0.2,0.2,0.4,0.4,0.6
	c0.2,0.2,0.4,0.3,0.6,0.4c0.2,0.1,0.5,0.1,0.7,0.1c0.2,0,0.5-0.1,0.7-0.3l4.1-2.7l4.1,2.7c0.2,0.1,0.4,0.2,0.7,0.3s0.5,0,0.7-0.1
	c0.2-0.1,0.5-0.2,0.6-0.4c0.2-0.2,0.3-0.4,0.4-0.6l2.9-7.2c1.1,0.2,2.1,0.9,2.8,1.8c0.7,0.9,1.1,2,1.1,3.2v5H112v-1.7
	c0-0.4-0.2-0.9-0.5-1.2c-0.3-0.3-0.7-0.5-1.2-0.5c-0.4,0-0.9,0.2-1.2,0.5c-0.3,0.3-0.5,0.7-0.5,1.2v5h-4.9c-1.2,0-2.4,0.4-3.3,1.2
	s-1.6,1.8-1.8,3c-0.1,0.8,0,1.7,0.2,2.5h-3.7v-11.8c0-0.4-0.2-0.9-0.5-1.2c-0.3-0.3-0.7-0.5-1.2-0.5c-0.4,0-0.9,0.2-1.2,0.5
	c-0.3,0.3-0.5,0.7-0.5,1.2v1.7h-3.4v-5c0-1.1,0.4-2.3,1.1-3.2C90.3,96.2,91.3,95.5,92.4,95.3z M48.1,95.2c0-1.3,0.5-2.6,1.5-3.6
	c0.9-0.9,2.2-1.5,3.6-1.5c1.3,0,2.6,0.5,3.6,1.5c0.9,0.9,1.5,2.2,1.5,3.6v13.4H48.1V95.2z M38,113.7c0-0.4,0.2-0.9,0.5-1.2
	c0.3-0.3,0.7-0.5,1.2-0.5h26.9c0.4,0,0.9,0.2,1.2,0.5c0.3,0.3,0.5,0.7,0.5,1.2v1.7H38V113.7z M71.6,115.3v-1.7
	c0-0.4,0.2-0.9,0.5-1.2c0.3-0.3,0.7-0.5,1.2-0.5s0.9,0.2,1.2,0.5c0.3,0.3,0.5,0.7,0.5,1.2v1.7H71.6z M80,115.3
	c-0.4,0-0.9-0.2-1.2-0.5c-0.3-0.3-0.5-0.7-0.5-1.2c0-0.4,0.2-0.9,0.5-1.2c0.3-0.3,0.7-0.5,1.2-0.5h6.7c0.4,0,0.9-0.2,1.2-0.5
	c0.3-0.3,0.5-0.7,0.5-1.2v-1.7h3.4v6.7H80z M103.6,115.3c-0.2,0-0.5-0.1-0.7-0.2c-0.2-0.1-0.4-0.3-0.6-0.4c-0.2-0.2-0.3-0.4-0.3-0.6
	c-0.1-0.2-0.1-0.5,0-0.7c0.1-0.4,0.3-0.8,0.7-1c0.3-0.3,0.7-0.4,1.2-0.4h6.5c0.4,0,0.9-0.2,1.2-0.5c0.3-0.3,0.5-0.7,0.5-1.2v-1.7
	h3.4v5c0,0.4-0.2,0.9-0.5,1.2c-0.3,0.3-0.7,0.5-1.2,0.5H103.6z"/>
<path class="st13" d="M123.7,122.1H26.3c-0.4,0-0.9,0.2-1.2,0.5c-0.3,0.3-0.5,0.7-0.5,1.2c0,0.4,0.2,0.9,0.5,1.2
	c0.3,0.3,0.7,0.5,1.2,0.5h97.5c0.4,0,0.9-0.2,1.2-0.5c0.3-0.3,0.5-0.7,0.5-1.2c0-0.4-0.2-0.9-0.5-1.2
	C124.6,122.2,124.2,122.1,123.7,122.1z"/>
<path class="st13" d="M61.6,81.7c0.4,0,0.9-0.2,1.2-0.5c0.3-0.3,0.5-0.7,0.5-1.2c0-0.4-0.2-0.9-0.5-1.2c-0.3-0.3-0.7-0.5-1.2-0.5
	H44.7c-0.4,0-0.9,0.2-1.2,0.5c-0.3,0.3-0.5,0.7-0.5,1.2c0,0.4,0.2,0.9,0.5,1.2c0.3,0.3,0.7,0.5,1.2,0.5H61.6z"/>
<path class="st13" d="M58.1,47.9l5,8.7c0.2,0.4,0.6,0.7,1,0.8c0.4,0.1,0.9,0.1,1.3-0.2l2.8-1.6c0.5,0.4,1.1,0.7,1.6,1v3.3
	c0,0.4,0.2,0.9,0.5,1.2c0.3,0.3,0.7,0.5,1.2,0.5h10.1c0.4,0,0.9-0.2,1.2-0.5c0.3-0.3,0.5-0.7,0.5-1.2v-3.3c0.6-0.3,1.1-0.6,1.6-1
	l2.8,1.6c0.4,0.2,0.8,0.3,1.3,0.2s0.8-0.4,1-0.8l5-8.7c0.2-0.4,0.3-0.8,0.2-1.3c-0.1-0.4-0.4-0.8-0.8-1L91.8,44c0-0.3,0-0.6,0-0.9
	s0-0.6,0-0.9l2.8-1.6c0.4-0.2,0.7-0.6,0.8-1c0.1-0.4,0.1-0.9-0.2-1.3l-5-8.7c-0.2-0.4-0.6-0.7-1-0.8c-0.4-0.1-0.9-0.1-1.3,0.2
	c-0.4,0.2-0.7,0.6-0.8,1c-0.1,0.4-0.1,0.9,0.2,1.3l4.2,7.3l-2.3,1.3c-0.3,0.2-0.5,0.4-0.7,0.7c-0.1,0.3-0.2,0.6-0.2,1
	c0.1,0.5,0.1,1.1,0.1,1.6c0,0.5,0,1.1-0.1,1.6c0,0.3,0,0.7,0.2,1c0.1,0.3,0.4,0.5,0.7,0.7l2.3,1.3l-3.4,5.8l-2.3-1.3
	c-0.3-0.2-0.6-0.2-1-0.2c-0.3,0-0.7,0.1-0.9,0.4C83,53,82.1,53.6,81.1,54c-0.3,0.1-0.6,0.3-0.8,0.6c-0.2,0.3-0.3,0.6-0.3,0.9v2.7
	h-6.7v-2.7c0-0.3-0.1-0.7-0.3-0.9c-0.2-0.3-0.5-0.5-0.8-0.6c-1-0.4-2-1-2.8-1.6c-0.3-0.2-0.6-0.3-0.9-0.4c-0.3,0-0.7,0.1-1,0.2
	l-2.3,1.3l-3.4-5.8l2.3-1.3c0.3-0.2,0.5-0.4,0.7-0.7c0.1-0.3,0.2-0.6,0.2-1c-0.2-1.1-0.2-2.2,0-3.3c0-0.3,0-0.7-0.2-1
	c-0.1-0.3-0.4-0.5-0.7-0.7l-2.3-1.3l3.4-5.8l2.3,1.3c0.3,0.2,0.6,0.2,1,0.2c0.3,0,0.7-0.1,0.9-0.4c0.9-0.7,1.8-1.2,2.8-1.6
	c0.3-0.1,0.6-0.3,0.8-0.6c0.2-0.3,0.3-0.6,0.3-0.9v-2.7H80v2.7c0,0.4,0.2,0.9,0.5,1.2c0.3,0.3,0.7,0.5,1.2,0.5s0.9-0.2,1.2-0.5
	c0.3-0.3,0.5-0.7,0.5-1.2v-4.3c0-0.4-0.2-0.9-0.5-1.2c-0.3-0.3-0.7-0.5-1.2-0.5H71.6c-0.4,0-0.9,0.2-1.2,0.5
	c-0.3,0.3-0.5,0.7-0.5,1.2v3.3c-0.6,0.3-1.1,0.6-1.6,1l-2.8-1.6c-0.4-0.2-0.8-0.3-1.3-0.2c-0.4,0.1-0.8,0.4-1,0.8l-5,8.7
	c-0.2,0.4-0.3,0.8-0.2,1.3c0.1,0.4,0.4,0.8,0.8,1l2.8,1.6c0,0.3,0,0.6,0,0.9c0,0.3,0,0.6,0,0.9l-2.8,1.6c-0.4,0.2-0.7,0.6-0.8,1
	C57.9,47.1,57.9,47.6,58.1,47.9z"/>
<path class="st13" d="M76.7,36.3c-1.3,0-2.6,0.4-3.7,1.1c-1.1,0.7-2,1.8-2.5,3c-0.5,1.2-0.6,2.6-0.4,3.9c0.3,1.3,0.9,2.5,1.8,3.4
	c0.9,0.9,2.1,1.6,3.4,1.8c1.3,0.3,2.7,0.1,3.9-0.4c1.2-0.5,2.3-1.4,3-2.5s1.1-2.4,1.1-3.7c0-1.8-0.7-3.5-2-4.8
	C80.2,37.1,78.5,36.3,76.7,36.3L76.7,36.3z M76.7,46.4c-0.7,0-1.3-0.2-1.9-0.6c-0.6-0.4-1-0.9-1.2-1.5c-0.3-0.6-0.3-1.3-0.2-1.9
	c0.1-0.7,0.4-1.3,0.9-1.7c0.5-0.5,1.1-0.8,1.7-0.9c0.7-0.1,1.3-0.1,1.9,0.2c0.6,0.3,1.1,0.7,1.5,1.2c0.4,0.6,0.6,1.2,0.6,1.9
	c0,0.9-0.4,1.7-1,2.4S77.6,46.4,76.7,46.4z"/>
<path class="st13" d="M39.7,49.8c0,1,0.3,2,0.8,2.8c0.6,0.8,1.3,1.5,2.3,1.9c0.9,0.4,1.9,0.5,2.9,0.3c1-0.2,1.9-0.7,2.6-1.4
	c0.7-0.7,1.2-1.6,1.4-2.6c0.2-1,0.1-2-0.3-2.9c-0.4-0.9-1-1.7-1.9-2.3c-0.8-0.6-1.8-0.8-2.8-0.8c-1.3,0-2.6,0.5-3.6,1.5
	C40.2,47.2,39.7,48.5,39.7,49.8L39.7,49.8z M46.4,49.8c0,0.3-0.1,0.7-0.3,0.9c-0.2,0.3-0.4,0.5-0.8,0.6c-0.3,0.1-0.6,0.2-1,0.1
	c-0.3-0.1-0.6-0.2-0.9-0.5c-0.2-0.2-0.4-0.5-0.5-0.9c-0.1-0.3,0-0.7,0.1-1c0.1-0.3,0.3-0.6,0.6-0.8c0.3-0.2,0.6-0.3,0.9-0.3
	c0.4,0,0.9,0.2,1.2,0.5C46.3,48.9,46.4,49.3,46.4,49.8z"/>
<path class="st13" d="M29.8,53.2c-0.1,0.2-0.1,0.4,0,0.7c0,0.2,0.1,0.4,0.2,0.6l3.4,5.8c0.2,0.4,0.6,0.7,1,0.8
	c0.4,0.1,0.9,0.1,1.3-0.2l2.4-1.4c0.5,0.4,1.1,0.7,1.6,0.9v2.8c0,0.4,0.2,0.9,0.5,1.2c0.3,0.3,0.7,0.5,1.2,0.5h6.7
	c0.4,0,0.9-0.2,1.2-0.5c0.3-0.3,0.5-0.7,0.5-1.2v-2.8c0.6-0.3,1.1-0.6,1.6-0.9l2.4,1.4c0.4,0.2,0.8,0.3,1.3,0.2
	c0.4-0.1,0.8-0.4,1-0.8l3.4-5.8c0.1-0.2,0.2-0.4,0.2-0.6c0-0.2,0-0.4,0-0.7c-0.1-0.2-0.2-0.4-0.3-0.6c-0.1-0.2-0.3-0.3-0.5-0.4
	l-2.4-1.4c0-0.3,0-0.6,0-0.9c0-0.7-0.1-1.4-0.2-2.1c0-0.2-0.1-0.4-0.2-0.6c-0.1-0.2-0.3-0.4-0.5-0.5c-0.2-0.1-0.4-0.2-0.6-0.3
	c-0.2,0-0.4-0.1-0.7,0c-0.2,0-0.4,0.1-0.6,0.2c-0.2,0.1-0.3,0.3-0.5,0.5c-0.1,0.2-0.2,0.4-0.3,0.6c0,0.2,0,0.4,0,0.7
	c0.2,1,0.2,2.1,0,3.1c-0.1,0.3,0,0.7,0.1,1c0.1,0.3,0.4,0.6,0.7,0.8l2,1.1l-1.7,2.9l-2-1.1c-0.3-0.2-0.6-0.2-1-0.2
	c-0.3,0-0.7,0.2-0.9,0.4c-0.8,0.7-1.7,1.2-2.7,1.5c-0.3,0.1-0.6,0.3-0.8,0.6c-0.2,0.3-0.3,0.6-0.3,1v2.3h-3.4v-2.3
	c0-0.3-0.1-0.7-0.3-1c-0.2-0.3-0.5-0.5-0.8-0.6c-1-0.3-1.9-0.9-2.7-1.5c-0.3-0.2-0.6-0.4-0.9-0.4c-0.3,0-0.7,0-1,0.2l-2,1.1
	l-1.7-2.9l2-1.1c0.3-0.2,0.5-0.4,0.7-0.8c0.1-0.3,0.2-0.7,0.1-1c-0.2-1-0.2-2.1,0-3.1c0.1-0.3,0-0.7-0.1-1c-0.1-0.3-0.4-0.6-0.7-0.8
	l-2-1.1l1.7-2.9l2,1.1c0.3,0.2,0.6,0.3,1,0.2c0.3,0,0.7-0.2,0.9-0.4c0.8-0.7,1.7-1.2,2.7-1.5c0.3-0.1,0.6-0.3,0.8-0.6
	c0.2-0.3,0.3-0.6,0.3-1V38h3.4v2.3c0,0.3,0.1,0.7,0.3,1c0.2,0.3,0.5,0.5,0.8,0.6c1,0.3,1.9,0.9,2.7,1.5c0.3,0.2,0.6,0.4,0.9,0.4
	c0.3,0,0.7,0,1-0.2l3.4-2c0.2-0.1,0.4-0.3,0.5-0.4s0.2-0.4,0.3-0.6c0.1-0.2,0.1-0.4,0-0.7c0-0.2-0.1-0.4-0.2-0.6
	c-0.1-0.2-0.3-0.4-0.4-0.5c-0.2-0.1-0.4-0.2-0.6-0.3c-0.2-0.1-0.4-0.1-0.7,0c-0.2,0-0.4,0.1-0.6,0.2l-2.4,1.4
	c-0.5-0.4-1.1-0.7-1.6-0.9v-2.8c0-0.4-0.2-0.9-0.5-1.2c-0.3-0.3-0.7-0.5-1.2-0.5h-6.7c-0.4,0-0.9,0.2-1.2,0.5
	c-0.3,0.3-0.5,0.7-0.5,1.2v2.8c-0.6,0.3-1.1,0.6-1.6,0.9l-2.4-1.4c-0.4-0.2-0.8-0.3-1.3-0.2c-0.4,0.1-0.8,0.4-1,0.8L30,45.1
	c-0.1,0.2-0.2,0.4-0.2,0.6c0,0.2,0,0.4,0,0.7c0.1,0.2,0.2,0.4,0.3,0.6c0.1,0.2,0.3,0.3,0.5,0.4l2.4,1.4c0,0.3,0,0.6,0,0.9
	s0,0.6,0,0.9l-2.4,1.4c-0.2,0.1-0.4,0.3-0.5,0.4C30,52.8,29.9,53,29.8,53.2L29.8,53.2z"/>
<path class="st13" d="M120.4,30.5H117c-0.4,0-0.9,0.2-1.2,0.5c-0.3,0.3-0.5,0.7-0.5,1.2c0,0.4,0.2,0.9,0.5,1.2
	c0.3,0.3,0.7,0.5,1.2,0.5h3.4c0.4,0,0.9,0.2,1.2,0.5c0.3,0.3,0.5,0.7,0.5,1.2v10.1c0,0.4-0.2,0.9-0.5,1.2c-0.3,0.3-0.7,0.5-1.2,0.5
	h-6.7c-0.3,0-0.7,0.1-0.9,0.3l-7.5,5v-3.6c0-0.4-0.2-0.9-0.5-1.2c-0.3-0.3-0.7-0.5-1.2-0.5c-0.4,0-0.9-0.2-1.2-0.5
	c-0.3-0.3-0.5-0.7-0.5-1.2V35.5c0-0.4,0.2-0.9,0.5-1.2c0.3-0.3,0.7-0.5,1.2-0.5h6.7c0.4,0,0.9-0.2,1.2-0.5c0.3-0.3,0.5-0.7,0.5-1.2
	c0-0.4-0.2-0.9-0.5-1.2c-0.3-0.3-0.7-0.5-1.2-0.5h-6.7c-1.3,0-2.6,0.5-3.6,1.5c-0.9,0.9-1.5,2.2-1.5,3.6v10.1c0,1,0.3,2.1,0.9,2.9
	c0.6,0.9,1.5,1.5,2.4,1.8v5.3c0,0.3,0.1,0.6,0.2,0.9c0.2,0.3,0.4,0.5,0.6,0.6c0.3,0.1,0.6,0.2,0.9,0.2s0.6-0.1,0.9-0.3l9.7-6.4h6.2
	c1.3,0,2.6-0.5,3.6-1.5c0.9-0.9,1.5-2.2,1.5-3.6V35.5c0-1.3-0.5-2.6-1.5-3.6C123,31,121.7,30.5,120.4,30.5L120.4,30.5z"/>
</svg>
