<?xml version="1.0" encoding="utf-8"?>
<!-- Generator: Adobe Illustrator 23.0.1, SVG Export Plug-In . SVG Version: 6.00 Build 0)  -->
<svg version="1.1" id="Layer_1" xmlns="http://www.w3.org/2000/svg" xmlns:xlink="http://www.w3.org/1999/xlink" x="0px" y="0px"
	 viewBox="0 0 150 150" style="enable-background:new 0 0 150 150;" xml:space="preserve">
<style type="text/css">
	.st0{fill:#CCCCCC;}
	.st1{fill:#E6E6E6;}
	.st2{fill:#E4202B;}
	.st3{fill:#7D8D8F;}
	.st4{fill:#ECE2CE;}
	.st5{fill:#0081AB;}
	.st6{fill:#0097CE;}
</style>
<g id="Layer_16">
	<path class="st0" d="M113.2,21.7h-6.3c-0.6,0-1.1,0.5-1.1,1.2c0,0.1,0,0.2,0.1,0.3c0.2,0,0,6.7,0,6.9c-0.1,0.6,0.4,1.1,1,1.2
		c0,0,0.1,0,0.1,0h6.1c2.5,0,4.4,2,4.5,4.5v76.3c0,2.5-2,4.4-4.5,4.5H36.8c-2.5,0-4.4-2-4.5-4.5V35.9c0-2.5,2-4.4,4.5-4.5H43
		c0.6,0,1.1-0.5,1.1-1.1v0c0-0.1,0-7.2,0.1-7c0.2-0.6-0.1-1.2-0.7-1.4c-0.1,0-0.2-0.1-0.3-0.1h-6.3c-7.8,0-14.1,6.3-14.1,14.1v76.3
		c0,7.8,6.3,14.1,14.1,14.1h76.3c7.8,0,14.1-6.3,14.1-14.1V35.9C127.3,28.1,121,21.8,113.2,21.7z"/>
	<path class="st1" d="M36.8,29.2h76.3c3.7,0,6.7,3,6.7,6.7v76.3c0,3.7-3,6.7-6.7,6.7H36.8c-3.7,0-6.7-3-6.7-6.7V35.9
		C30.1,32.2,33.1,29.2,36.8,29.2z"/>
	<path class="st2" d="M113.1,29.2H36.8c-3.7,0-6.7,3-6.7,6.7v9.2c0,0.6,0.5,1.1,1.1,1.1l0,0h87.5c0.6,0,1.1-0.5,1.1-1.1v-9.2
		C119.8,32.2,116.8,29.2,113.1,29.2z"/>
	<path class="st1" d="M47,19.8c-2.3-0.5-4.5,1-5,3.3c0,0.2-0.1,0.5-0.1,0.7v13c0,5.5,9.1,5.5,9.2,0v-13C51,21.6,49.2,19.8,47,19.8z"
		/>
	<path class="st1" d="M75.5,19.8c-2.3-0.5-4.5,1-5,3.3c0,0.2-0.1,0.5-0.1,0.7v13c0,5.5,9.1,5.5,9.2,0v-13
		C79.6,21.6,77.8,19.8,75.5,19.8z"/>
	<path class="st1" d="M104.1,19.8c-2.3-0.5-4.6,1-5,3.4c0,0.2-0.1,0.5-0.1,0.7v13c0,5.5,9.1,5.5,9.2,0v-13
		C108.1,21.6,106.3,19.8,104.1,19.8z"/>
	<path class="st3" d="M86,97.8L86,97.8V64.7c0.6,0,1.1-0.5,1.1-1.1v-10c0-0.3-0.1-0.6-0.4-0.8c-0.4-0.4-1.1-0.4-1.6,0l-3,3.2
		c-4.4-4.7-3.1-4.7-7.4,0c-4.4-4.7-3.1-4.7-7.5,0c-4.4-4.7-3.1-4.7-7.4,0c-4.4-4.7-3.1-4.7-7.4,0l-2.9-3.2c-0.4-0.5-1.1-0.5-1.6-0.1
		c-0.1,0.1-0.2,0.2-0.3,0.4c0,0.1,0,0.3,0,0.4v40.6h-7.1c-0.1,0-0.3,0-0.4,0c-1.3,0.9-1.3,3.2-1.4,4.7c-0.1,5.6,4.2,10.2,9.8,10.3
		h28.9c5.5-0.2,9.9-4.8,9.8-10.3C87.1,98.2,86.6,97.8,86,97.8z"/>
	<path d="M86,100c-1.4,0-1.1-1.6-1.1-2.5c0-0.6,0.5-1.1,1.1-1.1c1.4,0,1.1,1.6,1.1,2.5C87.1,99.5,86.6,100,86,100z"/>
	<path class="st4" d="M58.7,83.5h17c0.6,0,1.1-0.5,1.1-1.1s-0.5-1.1-1.1-1.1h-17c-0.6,0-1.1,0.5-1.1,1.1S58.1,83.5,58.7,83.5
		L58.7,83.5z"/>
	<path class="st4" d="M75.7,87.7h-17c-0.6,0-1.1,0.5-1.1,1.1c0,0.6,0.5,1.1,1.1,1.1l0,0h17c0.6,0,1.1-0.5,1.1-1.1
		C76.8,88.2,76.3,87.7,75.7,87.7z"/>
	<path class="st4" d="M66.4,72h1.7c1.4,0,1.4,2.5,0,2.5h-3.2c-0.6,0-1.1,0.5-1.1,1.1c0,0.6,0.5,1.1,1.1,1.1l0,0h1.3
		c0,0.9-0.3,2.7,1.1,2.7s1.1-1.9,1.1-2.7c1.9-0.2,3.3-1.9,3.1-3.8c-0.2-1.7-1.6-3.1-3.3-3.1h-1.7c-1.4,0-1.4-2.5,0-2.5h3.2
		c0.6,0,1.1-0.5,1.1-1.1c0-0.6-0.5-1.1-1.1-1.1h-1.3c0-0.9,0.3-2.7-1.1-2.7s-1.1,1.9-1.1,2.7c-1.9,0.2-3.3,1.9-3.1,3.8
		C63.2,70.7,64.6,72,66.4,72z"/>
	<path class="st5" d="M85.9,62.5h21.4c2.2,0,4,1.8,4,4v28.1c0,2.2-1.8,4-4,4H85.9c-2.2,0-4-1.8-4-4V66.5
		C81.9,64.3,83.7,62.5,85.9,62.5z"/>
	<path class="st4" d="M86.1,66.9h21.1c0.6,0,1.1,0.5,1.1,1.1v7.3c0,0.6-0.5,1.1-1.1,1.1H86.1c-0.6,0-1.1-0.5-1.1-1.1V68
		C84.9,67.4,85.4,66.9,86.1,66.9z"/>
	<path class="st4" d="M98.5,83.1h1.9c0,1-0.4,3,1.1,3c1.5,0,1-2,1.1-3c1,0,3,0.4,3-1.1c0-1.5-2-1-3-1.1c0-0.9,0.4-3-1.1-3
		c-1.5,0-1,2-1.1,3h-1.9c-0.6,0-1.1,0.5-1.1,1.1C97.4,82.6,97.9,83.1,98.5,83.1z"/>
	<path class="st4" d="M88.3,85.5c1.2,1.2,2.4-1,3.5-1.9c1.1,0.9,2.2,3,3.4,1.9c1.2-1.2-1-2.4-1.9-3.5c0.9-1.1,3-2.2,1.9-3.4
		s-2.4,1-3.4,1.9c-1.1-0.9-2.2-3-3.5-1.9c-1.2,1.2,1,2.4,1.9,3.4C89.2,83.1,87.1,84.3,88.3,85.5z"/>
	<path class="st4" d="M104.5,90.6h-6c-0.6,0-1.1,0.5-1.1,1.1c0,0.6,0.5,1.1,1.1,1.1h6c0.6,0,1.1-0.5,1.1-1.1
		C105.6,91.1,105.1,90.6,104.5,90.6z"/>
	<path class="st4" d="M94.7,90.6h-6c-0.6,0-1.1,0.5-1.1,1.1c0,0.6,0.5,1.1,1.1,1.1h6c0.6,0,1.1-0.5,1.1-1.1
		C95.8,91.1,95.3,90.6,94.7,90.6z"/>
	<path class="st4" d="M91.3,88.1c-0.1,0.1-0.3,0.1-0.4,0.2c-0.4,0.4-0.5,1.2,0,1.6c0.1,0.1,0.2,0.2,0.4,0.3c0.6,0.2,1.2,0,1.5-0.6
		c0.2-0.6,0-1.2-0.6-1.5C91.9,88.1,91.6,88,91.3,88.1z"/>
	<path class="st4" d="M92.5,93.2c-0.1-0.1-0.2-0.2-0.4-0.2c-0.3-0.1-0.6-0.1-0.9,0c-0.1,0.1-0.3,0.1-0.4,0.2
		c-0.1,0.1-0.2,0.2-0.2,0.4c-0.1,0.3-0.1,0.6,0,0.9c0.1,0.3,0.3,0.5,0.6,0.6c0.6,0.2,1.2,0,1.4-0.6c0.1-0.3,0.1-0.6,0-0.9
		C92.7,93.4,92.6,93.3,92.5,93.2z"/>
	<path class="st6" d="M39.3,52.4c-1.7,0-1-2.3-1.1-3.5c0-0.6,0.5-1.1,1.1-1.1h0c1.7,0,1,2.3,1.1,3.5C40.4,51.9,39.9,52.4,39.3,52.4
		L39.3,52.4z"/>
	<path class="st6" d="M39.3,61.4c-1.7,0-1-2.3-1.1-3.5c0-0.6,0.5-1.1,1.1-1.1h0c1.7,0,1,2.3,1.1,3.5C40.4,60.9,39.9,61.4,39.3,61.4
		L39.3,61.4z"/>
	<path class="st6" d="M41.6,53.4c-0.6,0-1.1-0.5-1.1-1.2c0-0.3,0.1-0.5,0.3-0.7c0.8-0.7,2-2.8,3.2-1.7c1.2,1.1-1,2.4-1.7,3.3
		C42.1,53.3,41.9,53.4,41.6,53.4z"/>
	<path class="st6" d="M44.9,55.7h-2.4c-0.6,0-1.1-0.5-1.1-1.1l0,0c0-1.7,2.3-1,3.5-1.1c0.8,0,1.5,0.3,1.5,1.1c0,0.8-0.7,1.5-1.5,1.5
		C44.9,56.1,44.9,56.1,44.9,55.7z"/>
	<path class="st6" d="M43.3,59.7c-0.3,0-0.6-0.1-0.8-0.3c-0.7-0.9-2.8-2-1.7-3.2s2.4,1,3.2,1.7c0.4,0.5,0.4,1.2,0,1.6
		C43.8,59.6,43.6,59.7,43.3,59.7z"/>
	<path class="st6" d="M35.3,59.7c-0.6,0-1.1-0.6-1.1-1.2c0-0.2,0.1-0.5,0.3-0.7c0.9-0.7,2-2.8,3.3-1.7s-1,2.4-1.7,3.2
		C35.9,59.6,35.6,59.7,35.3,59.7z"/>
	<path class="st6" d="M36,55.7h-2.4c-0.6,0-1.1-0.5-1.1-1.1l0,0c0-1.7,2.3-1,3.5-1.1c0.6,0,1.1,0.5,1.1,1.1
		C37.1,55.2,36.6,55.7,36,55.7z"/>
	<path class="st6" d="M36.9,53.4c-0.7,0.1-2-1.6-2.5-2c-0.4-0.4-0.4-1.1,0-1.6c1.2-1.1,2.4,1,3.3,1.7c0.4,0.4,0.4,1.1,0,1.6
		C37.5,53.2,37.2,53.4,36.9,53.4z"/>
	<path class="st6" d="M106.2,51.8c-0.6,0-1.1-0.5-1.1-1.1c0,0,0,0,0,0c0.1-1.2-0.5-3.5,1.1-3.5c0.6,0,1.1,0.5,1.1,1.1c0,0,0,0,0,0
		C107.2,49.5,107.8,51.8,106.2,51.8z"/>
	<path class="st6" d="M106.2,61c-0.6,0-1.1-0.5-1.1-1.1c0.1-1.2-0.5-3.5,1.1-3.5c0.6,0,1.1,0.5,1.1,1.1c0,0,0,0,0,0
		C107.2,58.7,107.8,60.9,106.2,61z"/>
	<path class="st6" d="M108.5,52.8c-0.6,0-1.1-0.5-1.1-1.2c0-0.3,0.1-0.5,0.3-0.7c0.9-0.7,2.1-2.8,3.3-1.7c0.4,0.4,0.4,1.1,0,1.6
		C110.5,51.2,109.2,52.9,108.5,52.8z"/>
	<path class="st6" d="M111.9,55.2h-2.4c-0.6,0-1.1-0.5-1.1-1.1c0-0.6,0.5-1.1,1.1-1.1l0,0h2.4c0.6,0,1.1,0.5,1.1,1.1
		C113,54.7,112.5,55.2,111.9,55.2z"/>
	<path class="st6" d="M110.3,59.3c-0.7,0.1-2-1.7-2.5-2c-0.4-0.4-0.4-1.1,0-1.5c0,0,0,0,0,0c1.2-1.1,2.4,1,3.3,1.7
		c0.4,0.5,0.4,1.2,0,1.6C110.8,59.1,110.6,59.3,110.3,59.3z"/>
	<path class="st6" d="M102.1,59.3c-0.6,0-1.1-0.6-1.1-1.2c0-0.2,0.1-0.5,0.3-0.7c0.9-0.7,2.1-2.8,3.3-1.7c0.4,0.4,0.4,1.1,0,1.5
		c0,0,0,0,0,0C104.1,57.6,102.9,59.4,102.1,59.3z"/>
	<path class="st6" d="M102.9,55.2h-2.4c-0.6,0-1.1-0.5-1.1-1.1c0-0.6,0.5-1.1,1.1-1.1l0,0h2.4c0.6,0,1.1,0.5,1.1,1.1
		C104,54.7,103.5,55.2,102.9,55.2z"/>
	<path class="st6" d="M103.8,52.8c-0.7,0.1-2-1.7-2.5-2c-0.4-0.4-0.4-1.1,0-1.6c1.2-1.2,2.4,1,3.3,1.7c0.4,0.4,0.4,1.1,0,1.6
		C104.4,52.7,104.1,52.8,103.8,52.8z"/>
	<path class="st6" d="M104.5,104.6c-0.6,0-1.1-0.5-1.1-1.1c0.1-1.2-0.5-3.5,1.1-3.5c0.6,0,1.1,0.5,1.1,1.1
		C105.5,102.3,106.1,104.6,104.5,104.6z"/>
	<path class="st6" d="M104.5,113.7c-0.6,0-1.1-0.5-1.1-1.1c0.1-1.2-0.5-3.5,1.1-3.5c0.6,0,1.1,0.5,1.1,1.1
		C105.5,111.4,106.1,113.6,104.5,113.7z"/>
	<path class="st6" d="M106.9,105.5c-0.6,0-1.1-0.5-1.1-1.1c0-0.3,0.1-0.5,0.3-0.7c0.9-0.7,2.1-2.8,3.3-1.7c1.2,1.1-1,2.4-1.7,3.3
		C107.4,105.4,107.2,105.5,106.9,105.5z"/>
	<path class="st6" d="M110.3,107.9h-2.5c-0.6,0-1.1-0.5-1.1-1.1c0-1.7,2.3-1,3.5-1.1c0.6,0,1.1,0.5,1.1,1.1
		C111.4,107.4,110.9,107.9,110.3,107.9L110.3,107.9z"/>
	<path class="st6" d="M108.6,112c-0.7,0.1-2-1.7-2.5-2c-1-1,0.6-2.6,1.6-1.6l1.7,1.7c0.4,0.5,0.4,1.2,0,1.6
		C109.1,111.9,108.8,112,108.6,112z"/>
	<path class="st6" d="M100.4,112c-0.6,0-1.1-0.6-1-1.2c0-0.2,0.1-0.5,0.3-0.6c0.9-0.7,2.1-2.8,3.3-1.7c1.2,1.1-1,2.4-1.7,3.3
		C101,111.9,100.7,112,100.4,112z"/>
	<path class="st6" d="M101.2,107.9h-2.4c-0.6,0-1.1-0.5-1.1-1.1c0-1.7,2.3-1,3.5-1.1c0.6,0,1.1,0.5,1.1,1.1
		C102.3,107.4,101.8,107.9,101.2,107.9z"/>
	<path class="st6" d="M102.1,105.5c-0.7,0.1-2-1.6-2.5-2c-1-1,0.6-2.6,1.6-1.6l1.7,1.7c0.4,0.4,0.4,1.1,0,1.6
		C102.7,105.4,102.4,105.5,102.1,105.5z"/>
</g>
</svg>
