<?xml version="1.0" encoding="utf-8"?>
<!-- Generator: Adobe Illustrator 23.0.1, SVG Export Plug-In . SVG Version: 6.00 Build 0)  -->
<svg version="1.1" id="icons" xmlns="http://www.w3.org/2000/svg" xmlns:xlink="http://www.w3.org/1999/xlink" x="0px" y="0px"
	 viewBox="0 0 150 150" style="enable-background:new 0 0 150 150;" xml:space="preserve">
<style type="text/css">
	.st0{display:none;}
	.st1{display:inline;fill:#D1D3D4;}
	.st2{display:inline;fill:#FFFFFF;}
	.st3{display:inline;fill:#F1F2F2;}
	.st4{display:inline;fill:none;stroke:#414042;stroke-miterlimit:10;}
	.st5{display:inline;fill:#414042;}
	.st6{display:inline;fill:none;stroke:#F5AB35;stroke-miterlimit:10;}
	.st7{display:inline;}
	.st8{fill:#36D7B7;}
	.st9{fill:#86E7D4;}
	.st10{fill:#5EDFC5;}
	.st11{fill:#AFEFE2;}
	.st12{display:inline;fill:#BCBEC0;}
	.st13{display:inline;fill:#F5AB35;}
	.st14{display:inline;fill:#36D7B7;}
	.st15{fill:#F1F2F2;}
	.st16{fill:#D1D3D4;}
	.st17{fill:none;stroke:#414042;stroke-width:2;stroke-miterlimit:10;}
	.st18{fill:#FFFFFF;}
	.st19{fill:#F5AB35;}
	.st20{fill:none;stroke:#414042;stroke-miterlimit:10;}
	.st21{fill:#29A189;}
	.st22{display:inline;fill:none;stroke:#414042;stroke-miterlimit:10;stroke-dasharray:1;}
	.st23{display:inline;fill:#E6E7E8;}
	.st24{fill:#F9CD86;}
	.st25{display:inline;fill:#29A189;}
	.st26{display:inline;fill:#F9CD86;}
	.st27{display:inline;fill:#5EDFC5;}
	.st28{display:inline;fill:#F7BC5D;}
	.st29{fill:#BCBEC0;}
	.st30{fill:#E6E7E8;}
	.st31{fill:#939598;}
	.st32{display:inline;fill:#A7A9AC;}
	.st33{fill:#58595B;}
	.st34{fill:#414042;}
	.st35{display:inline;fill:none;stroke:#A7A9AC;stroke-miterlimit:10;}
	.st36{display:inline;fill:#808285;}
	.st37{fill:#A7A9AC;}
	.st38{display:inline;fill:none;stroke:#414042;stroke-linecap:round;stroke-miterlimit:10;}
	.st39{clip-path:url(#SVGID_2_);}
	.st40{fill:#F7BC5D;}
	.st41{display:inline;fill:#B88028;}
</style>
<g id="XMLID_46_" class="st0">
	<path id="XMLID_243_" class="st1" d="M94,91.4H55.8c-0.6,0-1-0.5-1-1V67.5c0-0.5,0.4-1,1-1H94c0.5,0,1,0.5,1,1v22.9
		C95,91,94.6,91.4,94,91.4z"/>
	<rect id="XMLID_242_" x="56.7" y="68.8" class="st2" width="36.1" height="19.5"/>
	<path id="XMLID_241_" class="st3" d="M94.5,92.7H55.2c-0.9,0-1.7-0.7-1.9-1.6L53,89.4h43.9l-0.2,1.5C96.5,91.9,95.6,92.7,94.5,92.7
		z"/>
	<path id="XMLID_240_" class="st4" d="M94.5,92.7H55.2c-0.9,0-1.7-0.7-1.9-1.6L53,89.4h43.9l-0.2,1.5C96.5,91.9,95.6,92.7,94.5,92.7
		z"/>
	<line id="XMLID_249_" class="st4" x1="82.9" y1="66.5" x2="95" y2="66.5"/>
	<line id="XMLID_13_" class="st4" x1="54.8" y1="66.5" x2="66.9" y2="66.5"/>
	<polyline id="XMLID_47_" class="st4" points="87.1,63.7 89.4,61.4 87.2,59.2 	"/>
	<polyline id="XMLID_57_" class="st4" points="63.4,63.7 61.1,61.4 63.2,59.2 	"/>
	<rect id="XMLID_86_" x="58.9" y="70" class="st5" width="1.2" height="1.2"/>
	<rect id="XMLID_85_" x="58.9" y="72.6" class="st5" width="1.2" height="1.2"/>
	<rect id="XMLID_84_" x="58.9" y="75.2" class="st5" width="1.2" height="1.2"/>
	<rect id="XMLID_83_" x="58.9" y="77.7" class="st5" width="1.2" height="1.2"/>
	<rect id="XMLID_82_" x="58.9" y="80.3" class="st5" width="1.2" height="1.2"/>
	<rect id="XMLID_81_" x="58.9" y="82.9" class="st5" width="1.2" height="1.2"/>
	<rect id="XMLID_80_" x="58.9" y="85.5" class="st5" width="1.2" height="1.2"/>
	<line id="XMLID_79_" class="st4" x1="61.9" y1="70.6" x2="72.2" y2="70.6"/>
	<line id="XMLID_78_" class="st6" x1="64.1" y1="73.2" x2="72.2" y2="73.2"/>
	<line id="XMLID_77_" class="st4" x1="63" y1="75.7" x2="66.7" y2="75.7"/>
	<line id="XMLID_76_" class="st4" x1="67.7" y1="75.7" x2="74.2" y2="75.7"/>
	<line id="XMLID_75_" class="st4" x1="76" y1="75.7" x2="88.2" y2="75.7"/>
	<line id="XMLID_74_" class="st4" x1="65.2" y1="78.3" x2="73.4" y2="78.3"/>
	<line id="XMLID_73_" class="st6" x1="79.5" y1="78.3" x2="74.8" y2="78.3"/>
	<line id="XMLID_67_" class="st4" x1="61.9" y1="80.9" x2="81.1" y2="80.9"/>
	<line id="XMLID_66_" class="st6" x1="65.3" y1="83.5" x2="75.7" y2="83.5"/>
	<line id="XMLID_65_" class="st4" x1="83.2" y1="83.5" x2="78.6" y2="83.5"/>
	<line id="XMLID_61_" class="st4" x1="61.9" y1="86.1" x2="72.2" y2="86.1"/>
	<line id="XMLID_59_" class="st4" x1="75.9" y1="86.1" x2="86.3" y2="86.1"/>
	<line id="XMLID_58_" class="st4" x1="88.2" y1="70.6" x2="78.4" y2="70.6"/>
	<g id="XMLID_48_" class="st7">
		<polygon id="XMLID_63_" class="st8" points="66.9,57.3 64.1,62.1 69.6,62.1 		"/>
		<polygon id="XMLID_62_" class="st8" points="83.5,57.3 80.8,62.1 86.3,62.1 		"/>
		<polygon id="XMLID_60_" class="st9" points="72.4,57.3 69.6,62.1 75.2,62.1 		"/>
		<polygon id="XMLID_56_" class="st10" points="66.9,57.3 69.6,62.1 72.4,57.3 		"/>
		<polygon id="XMLID_55_" class="st9" points="78,57.3 75.2,62.1 80.8,62.1 		"/>
		<polygon id="XMLID_54_" class="st10" points="69.6,62.1 75.2,74.7 75.2,62.1 		"/>
		<polygon id="XMLID_53_" class="st11" points="64.1,62.1 75.2,74.7 69.6,62.1 		"/>
		<polygon id="XMLID_52_" class="st9" points="86.3,62.1 75.2,74.7 80.8,62.1 		"/>
		<polygon id="XMLID_51_" class="st8" points="75.2,62.1 75.2,74.7 80.8,62.1 		"/>
		<polygon id="XMLID_50_" class="st10" points="72.4,57.3 75.2,62.1 78,57.3 		"/>
		<polygon id="XMLID_49_" class="st10" points="78,57.3 80.8,62.1 83.5,57.3 		"/>
	</g>
</g>
<g id="XMLID_70_" class="st0">
	<polygon id="XMLID_64_" class="st12" points="65.6,68.7 74.8,70.4 74.8,83.7 65.6,79.7 	"/>
	<polygon id="XMLID_69_" class="st13" points="84.3,79.5 74.8,83.6 74.8,70.4 84.3,68.7 	"/>
	<polygon id="XMLID_68_" class="st14" points="75.2,66.3 84.3,68.7 74.8,71.8 65.7,68.7 	"/>
	<polyline id="XMLID_71_" class="st4" points="68,69.5 74.8,71.8 74.8,79.8 	"/>
	<line id="XMLID_87_" class="st4" x1="74.8" y1="71.8" x2="81.2" y2="69.7"/>
	<circle id="XMLID_72_" class="st4" cx="75" cy="58.8" r="1.2"/>
	<circle id="XMLID_88_" class="st4" cx="83.1" cy="60.9" r="1.2"/>
	<circle id="XMLID_89_" class="st4" cx="89" cy="66.9" r="1.2"/>
	<circle id="XMLID_90_" class="st4" cx="91.2" cy="75" r="1.2"/>
	<circle id="XMLID_91_" class="st4" cx="89.1" cy="83.1" r="1.2"/>
	<circle id="XMLID_92_" class="st4" cx="83.2" cy="89" r="1.2"/>
	<circle id="XMLID_93_" class="st4" cx="75.1" cy="91.2" r="1.2"/>
	<circle id="XMLID_94_" class="st4" cx="67" cy="89.1" r="1.2"/>
	<circle id="XMLID_95_" class="st4" cx="61" cy="83.2" r="1.2"/>
	<circle id="XMLID_96_" class="st4" cx="58.8" cy="75.1" r="1.2"/>
	<circle id="XMLID_97_" class="st4" cx="60.9" cy="67" r="1.2"/>
	<circle id="XMLID_98_" class="st4" cx="66.7" cy="61" r="1.2"/>
</g>
<g id="XMLID_125_">
	<rect id="XMLID_135_" x="58.1" y="107.8" class="st15" width="32.7" height="19.2"/>
	<rect id="XMLID_134_" x="58.1" y="107.8" class="st16" width="32.7" height="9.8"/>
	<rect id="XMLID_133_" x="58.1" y="107.8" class="st17" width="32.7" height="19.2"/>
	<rect id="XMLID_132_" x="20.1" y="33.4" class="st16" width="108.3" height="64.3"/>
	<rect id="XMLID_131_" x="25.9" y="39.8" class="st18" width="96.8" height="50.8"/>
	<rect id="XMLID_103_" x="25.9" y="39.8" class="st10" width="44.8" height="25.6"/>
	<rect id="XMLID_124_" x="25.9" y="39.8" class="st18" width="44.8" height="3.7"/>
	<rect id="XMLID_113_" x="25.9" y="78.2" class="st19" width="44.8" height="12.4"/>
	<rect id="XMLID_130_" x="20.1" y="95.5" class="st18" width="108.3" height="14.6"/>
	<rect id="XMLID_129_" x="20.1" y="95.5" class="st17" width="108.8" height="14.6"/>
	<line id="XMLID_127_" class="st17" x1="51.7" y1="127.4" x2="97.4" y2="127.4"/>
	<polyline id="XMLID_102_" class="st20" points="73.3,41.8 73.3,35.7 91.1,35.4 105.2,64.2 114.1,64.2 	"/>
	<g id="XMLID_100_">
		<rect id="XMLID_99_" x="67.2" y="40.9" class="st8" width="11.8" height="48.3"/>
		<rect id="XMLID_101_" x="67.2" y="40.9" class="st21" width="3.7" height="48.3"/>
		<rect id="XMLID_105_" x="67.2" y="40.9" class="st20" width="11.8" height="48.3"/>
	</g>
	<path id="XMLID_104_" class="st19" d="M133.9,68.5l-24.4-0.6c-0.9,0-1.1-6.6-0.3-6.6l24.7-1.1c1.7,0,3.2,0.9,3.2,2.3v4
		C137,67.6,135.6,68.5,133.9,68.5z"/>
	<line id="XMLID_106_" class="st20" x1="108.9" y1="58.1" x2="108.9" y2="70.2"/>
	<g id="XMLID_849_">
		<line id="XMLID_851_" class="st20" x1="48.6" y1="49.8" x2="53.7" y2="55"/>
		<line id="XMLID_850_" class="st20" x1="48.6" y1="55" x2="53.7" y2="49.8"/>
	</g>
	<g id="XMLID_117_">
		<line id="XMLID_120_" class="st20" x1="13" y1="69.1" x2="18.1" y2="74.2"/>
		<line id="XMLID_118_" class="st20" x1="13" y1="74.2" x2="18.1" y2="69.1"/>
	</g>
	<g id="XMLID_114_">
		<line id="XMLID_116_" class="st20" x1="64.4" y1="21.1" x2="69.5" y2="26.3"/>
		<line id="XMLID_115_" class="st20" x1="64.4" y1="26.3" x2="69.5" y2="21.1"/>
	</g>
	<g id="XMLID_107_">
		<line id="XMLID_109_" class="st20" x1="25" y1="44.1" x2="33.3" y2="52.4"/>
		<line id="XMLID_108_" class="st20" x1="25" y1="52.4" x2="33.3" y2="44.1"/>
	</g>
	<g id="XMLID_121_">
		<line id="XMLID_123_" class="st20" x1="34.5" y1="75.1" x2="42.8" y2="83.4"/>
		<line id="XMLID_122_" class="st20" x1="34.5" y1="83.4" x2="42.8" y2="75.1"/>
	</g>
	<g id="XMLID_110_">
		<line id="XMLID_112_" class="st20" x1="29.3" y1="13" x2="40" y2="23.7"/>
		<line id="XMLID_111_" class="st20" x1="29.3" y1="23.7" x2="40" y2="13"/>
	</g>
</g>
<g id="XMLID_639_" class="st0">
	<circle id="XMLID_154_" class="st22" cx="81.3" cy="75.1" r="8.1"/>
	<path id="XMLID_126_" class="st23" d="M80.9,92H61.5c-0.6,0-1-0.5-1-1V59c0-0.5,0.4-1,1-1h19.3c0.5,0,1,0.5,1,1v32
		C81.9,91.6,81.4,92,80.9,92z"/>
	<line id="XMLID_140_" class="st4" x1="68.5" y1="60.2" x2="73.9" y2="60.2"/>
	<rect id="XMLID_128_" x="62.2" y="62.1" class="st14" width="18" height="25.9"/>
	<rect id="XMLID_141_" x="64.2" y="67.7" class="st5" width="2.4" height="2.4"/>
	<rect id="XMLID_142_" x="68.1" y="67.7" class="st5" width="2.4" height="2.4"/>
	<rect id="XMLID_143_" x="72" y="67.7" class="st5" width="2.4" height="2.4"/>
	<rect id="XMLID_144_" x="75.9" y="67.7" class="st5" width="2.4" height="2.4"/>
	<rect id="XMLID_148_" x="64.2" y="71.4" class="st5" width="2.4" height="2.4"/>
	<rect id="XMLID_147_" x="68.1" y="71.4" class="st5" width="2.4" height="2.4"/>
	<rect id="XMLID_146_" x="72" y="71.4" class="st5" width="2.4" height="2.4"/>
	<rect id="XMLID_145_" x="75.9" y="71.4" class="st5" width="2.4" height="2.4"/>
	<rect id="XMLID_153_" x="64.2" y="75" class="st5" width="2.4" height="2.4"/>
	<rect id="XMLID_152_" x="68.1" y="75" class="st5" width="2.4" height="2.4"/>
	<rect id="XMLID_151_" x="72" y="75" class="st5" width="2.4" height="2.4"/>
	<rect id="XMLID_150_" x="75.9" y="75" class="st5" width="2.4" height="2.4"/>
	<rect id="XMLID_158_" x="64.2" y="78.7" class="st5" width="2.4" height="2.4"/>
	<rect id="XMLID_157_" x="68.1" y="78.7" class="st5" width="2.4" height="2.4"/>
	<rect id="XMLID_156_" x="72" y="78.7" class="st5" width="2.4" height="2.4"/>
	<rect id="XMLID_155_" x="75.9" y="78.7" class="st5" width="2.4" height="2.4"/>
	<rect id="XMLID_163_" x="64.2" y="82.4" class="st5" width="2.4" height="2.4"/>
	<rect id="XMLID_162_" x="68.1" y="82.4" class="st5" width="2.4" height="2.4"/>
	<rect id="XMLID_161_" x="72" y="82.4" class="st5" width="2.4" height="2.4"/>
	<rect id="XMLID_160_" x="75.9" y="82.4" class="st5" width="2.4" height="2.4"/>
	<g id="XMLID_149_" class="st7">
		<circle id="XMLID_138_" class="st15" cx="81.3" cy="75.1" r="5.5"/>
		<circle id="XMLID_137_" class="st20" cx="81.3" cy="75.1" r="5.5"/>
		<polyline id="XMLID_139_" class="st20" points="78.5,74.8 80.5,76.7 84.1,73.1 		"/>
	</g>
</g>
<g id="XMLID_208_" class="st0">
	<line id="XMLID_180_" class="st22" x1="63.6" y1="80" x2="86.4" y2="57.1"/>
	<line id="XMLID_183_" class="st22" x1="75" y1="84.7" x2="75" y2="52.4"/>
	<line id="XMLID_181_" class="st22" x1="86.4" y1="80" x2="63.6" y2="57.1"/>
	<line id="XMLID_182_" class="st22" x1="91.2" y1="68.6" x2="58.8" y2="68.6"/>
	<line id="XMLID_967_" class="st4" x1="75" y1="78.7" x2="75" y2="97.6"/>
	<path id="XMLID_972_" class="st14" d="M83.9,85c0,0,0.5,4.4-2,6.8c-1.4,1.4-3.4,1.8-4.9,2c-1.1,0.1-2-0.8-1.9-1.9
		c0.1-1.5,0.6-3.5,2-4.9C79.5,84.5,83.9,85,83.9,85z"/>
	<path id="XMLID_966_" class="st4" d="M83.9,85c0,0,0.5,4.4-2,6.8c-1.4,1.4-3.4,1.8-4.9,2c-1.1,0.1-2-0.8-1.9-1.9
		c0.1-1.5,0.6-3.5,2-4.9C79.5,84.5,83.9,85,83.9,85z"/>
	<line id="XMLID_970_" class="st4" x1="75.6" y1="93.3" x2="84" y2="84.8"/>
	<line id="XMLID_971_" class="st4" x1="80.1" y1="88.7" x2="80.1" y2="85.3"/>
	<line id="XMLID_968_" class="st4" x1="77.1" y1="91.8" x2="77.1" y2="87"/>
	<line id="XMLID_973_" class="st4" x1="83" y1="90.2" x2="78.7" y2="90.2"/>
	<path id="XMLID_981_" class="st14" d="M65.9,85c0,0-0.5,4.4,2,6.8c1.4,1.4,3.4,1.8,4.9,2c1.1,0.1,2-0.8,1.9-1.9
		c-0.1-1.5-0.6-3.5-2-4.9C70.3,84.5,65.9,85,65.9,85z"/>
	<path id="XMLID_979_" class="st4" d="M65.9,85c0,0-0.5,4.4,2,6.8c1.4,1.4,3.4,1.8,4.9,2c1.1,0.1,2-0.8,1.9-1.9
		c-0.1-1.5-0.6-3.5-2-4.9C70.3,84.5,65.9,85,65.9,85z"/>
	<line id="XMLID_978_" class="st4" x1="74.2" y1="93.3" x2="65.7" y2="84.8"/>
	<line id="XMLID_977_" class="st4" x1="69.7" y1="88.7" x2="69.7" y2="85.3"/>
	<line id="XMLID_976_" class="st4" x1="72.7" y1="91.8" x2="72.7" y2="87"/>
	<line id="XMLID_975_" class="st4" x1="66.7" y1="90.2" x2="71.1" y2="90.2"/>
	<path id="XMLID_230_" class="st3" d="M77.4,79.3v4.6c0,1.4-1.1,2.5-2.5,2.5l0,0c-1.4,0-2.5-1.1-2.5-2.5v-4.6H77.4z"/>
	<path id="XMLID_229_" class="st4" d="M77.4,79.3v4.6c0,1.4-1.1,2.5-2.5,2.5l0,0c-1.4,0-2.5-1.1-2.5-2.5v-4.6H77.4z"/>
	<circle id="XMLID_227_" class="st13" cx="75" cy="68.5" r="9.2"/>
	<rect id="XMLID_226_" x="70.5" y="70.5" class="st13" width="8.9" height="10.2"/>
	<rect id="XMLID_225_" x="70.5" y="80.2" class="st23" width="9.1" height="2.5"/>
	<rect id="XMLID_224_" x="70.5" y="80.2" class="st4" width="9.1" height="2.5"/>
	<line id="XMLID_178_" class="st4" x1="74.9" y1="80.2" x2="74.9" y2="68.5"/>
	<line id="XMLID_179_" class="st4" x1="78.1" y1="68.7" x2="71.8" y2="68.7"/>
</g>
<g id="XMLID_207_" class="st0">
	<rect id="XMLID_170_" x="60" y="66.3" class="st3" width="29.7" height="28.7"/>
	<rect id="XMLID_187_" x="60.3" y="63.4" class="st14" width="29" height="4.7"/>
	<rect id="XMLID_192_" x="60.3" y="63.4" class="st4" width="29" height="4.7"/>
	<path id="XMLID_184_" class="st2" d="M80.9,80.4h-1.1c-0.1-0.6-0.4-1.1-0.6-1.6L80,78c0.3-0.3,0.3-0.7,0-1l-0.6-0.6
		c-0.3-0.3-0.7-0.3-1,0l-0.8,0.8c-0.5-0.3-1-0.5-1.6-0.6v-1.1c0-0.4-0.3-0.7-0.7-0.7h-0.8c-0.4,0-0.7,0.3-0.7,0.7v1.1
		c-0.6,0.1-1.1,0.3-1.5,0.6l-0.8-0.8c-0.3-0.3-0.7-0.3-1,0L69.9,77c-0.3,0.3-0.3,0.7,0,1l0.8,0.8c-0.3,0.5-0.5,1-0.7,1.6h-1.1
		c-0.4,0-0.7,0.3-0.7,0.7v0.8c0,0.4,0.3,0.7,0.7,0.7H70c0.1,0.6,0.3,1.1,0.6,1.6L69.8,85c-0.3,0.3-0.3,0.7,0,1l0.6,0.6
		c0.3,0.3,0.7,0.3,1,0l0.8-0.8c0.5,0.3,1,0.5,1.6,0.7v1.1c0,0.4,0.3,0.7,0.7,0.7h0.8c0.4,0,0.7-0.3,0.7-0.7v-1.1
		c0.6-0.1,1.1-0.3,1.6-0.6l0.8,0.8c0.3,0.3,0.7,0.3,1,0l0.6-0.6c0.3-0.3,0.3-0.7,0-1l-0.8-0.8c0.3-0.5,0.5-1,0.7-1.6H81
		c0.4,0,0.7-0.3,0.7-0.7v-1C81.6,80.7,81.2,80.4,80.9,80.4z M74.9,83.7c-1.2,0-2.2-1-2.2-2.2s1-2.2,2.2-2.2c1.2,0,2.2,1,2.2,2.2
		S76.1,83.7,74.9,83.7z"/>
	<path id="XMLID_216_" class="st4" d="M80.9,80.4h-1.1c-0.1-0.6-0.4-1.1-0.6-1.6L80,78c0.3-0.3,0.3-0.7,0-1l-0.6-0.6
		c-0.3-0.3-0.7-0.3-1,0l-0.8,0.8c-0.5-0.3-1-0.5-1.6-0.6v-1.1c0-0.4-0.3-0.7-0.7-0.7h-0.8c-0.4,0-0.7,0.3-0.7,0.7v1.1
		c-0.6,0.1-1.1,0.3-1.5,0.6l-0.8-0.8c-0.3-0.3-0.7-0.3-1,0L69.9,77c-0.3,0.3-0.3,0.7,0,1l0.8,0.8c-0.3,0.5-0.5,1-0.7,1.6h-1.1
		c-0.4,0-0.7,0.3-0.7,0.7v0.8c0,0.4,0.3,0.7,0.7,0.7H70c0.1,0.6,0.3,1.1,0.6,1.6L69.8,85c-0.3,0.3-0.3,0.7,0,1l0.6,0.6
		c0.3,0.3,0.7,0.3,1,0l0.8-0.8c0.5,0.3,1,0.5,1.6,0.7v1.1c0,0.4,0.3,0.7,0.7,0.7h0.8c0.4,0,0.7-0.3,0.7-0.7v-1.1
		c0.6-0.1,1.1-0.3,1.6-0.6l0.8,0.8c0.3,0.3,0.7,0.3,1,0l0.6-0.6c0.3-0.3,0.3-0.7,0-1l-0.8-0.8c0.3-0.5,0.5-1,0.7-1.6H81
		c0.4,0,0.7-0.3,0.7-0.7v-1C81.6,80.7,81.2,80.4,80.9,80.4z M74.9,83.7c-1.2,0-2.2-1-2.2-2.2s1-2.2,2.2-2.2c1.2,0,2.2,1,2.2,2.2
		S76.1,83.7,74.9,83.7z"/>
	<circle id="XMLID_188_" class="st2" cx="81.6" cy="65.8" r="0.6"/>
	<circle id="XMLID_189_" class="st2" cx="83.7" cy="65.8" r="0.6"/>
	<circle id="XMLID_190_" class="st2" cx="85.8" cy="65.8" r="0.6"/>
	<g id="XMLID_347_" class="st7">
		<path id="XMLID_346_" class="st18" d="M90.3,94.5H58.5v-3.4h31.9l4.2,1.6c0.1,0,0.1,0.1,0,0.2L90.3,94.5z"/>
		<rect id="XMLID_345_" x="58.5" y="91.1" class="st8" width="31.9" height="3.4"/>
		<rect id="XMLID_344_" x="58.5" y="91.1" class="st9" width="31.9" height="1.7"/>
		<rect id="XMLID_343_" x="58.5" y="91" class="st18" width="4" height="3.6"/>
		<path id="XMLID_342_" class="st20" d="M90.3,94.5H58.5v-3.4h31.9l4.2,1.6c0.1,0,0.1,0.1,0,0.2L90.3,94.5z"/>
		<line id="XMLID_341_" class="st20" x1="62.4" y1="91.1" x2="62.4" y2="94.1"/>
		<line id="XMLID_340_" class="st20" x1="90.3" y1="91.3" x2="90.3" y2="94.3"/>
	</g>
	<g id="XMLID_338_" class="st7">
		<rect id="XMLID_327_" x="55.4" y="55" class="st19" width="8.3" height="40.1"/>
		<rect id="XMLID_329_" x="60" y="55" class="st24" width="3.7" height="40.1"/>
		<line id="XMLID_331_" class="st20" x1="63.7" y1="61" x2="61.1" y2="61"/>
		<line id="XMLID_326_" class="st20" x1="63.7" y1="55.5" x2="61.1" y2="55.5"/>
		<line id="XMLID_330_" class="st20" x1="63.7" y1="66.6" x2="61.1" y2="66.6"/>
		<line id="XMLID_332_" class="st20" x1="63.7" y1="72.2" x2="61.1" y2="72.2"/>
		<line id="XMLID_333_" class="st20" x1="63.7" y1="77.8" x2="61.1" y2="77.8"/>
		<line id="XMLID_334_" class="st20" x1="63.7" y1="89" x2="61.1" y2="89"/>
		<line id="XMLID_335_" class="st20" x1="63.7" y1="83.4" x2="61.1" y2="83.4"/>
		<line id="XMLID_337_" class="st20" x1="63.7" y1="94.5" x2="61.1" y2="94.5"/>
	</g>
</g>
<g id="XMLID_209_" class="st0">
	<rect id="XMLID_191_" x="57.4" y="75.9" class="st23" width="33.8" height="19.4"/>
	<rect id="XMLID_193_" x="60.4" y="78.6" class="st13" width="27.8" height="14"/>
	<polygon id="XMLID_798_" class="st23" points="73.9,92.4 67.7,84.4 61.1,92.4 	"/>
	<polyline id="XMLID_194_" class="st4" points="70.8,88.4 67.7,84.4 61.1,92.4 	"/>
	<polygon id="XMLID_796_" class="st2" points="82.7,92.2 74.7,82 66.3,92.2 	"/>
	<line id="XMLID_800_" class="st4" x1="60.4" y1="92.4" x2="88.3" y2="92.4"/>
	<path id="XMLID_368_" class="st3" d="M84.8,84.7c0-0.2-0.1-0.3-0.3-0.3h-0.1c-0.1-0.1-0.2-0.2-0.3-0.2v-0.1c0-0.3-0.2-0.5-0.5-0.5
		c-0.1,0-0.3,0.1-0.4,0.1c0-0.5-0.5-0.9-1-0.9s-0.8,0.3-1,0.7h-0.1c-0.3,0-0.6,0.2-0.7,0.5c-0.1,0-0.1,0-0.2,0
		c-0.3,0-0.6,0.3-0.6,0.6c0,0.1,0,0.2,0.1,0.3h5.1C84.8,84.8,84.8,84.8,84.8,84.7z"/>
	<path id="XMLID_195_" class="st3" d="M64.9,85.4c0-0.1-0.1-0.2-0.2-0.2h-0.1c0-0.1-0.1-0.1-0.2-0.1c0,0,0,0,0-0.1
		c0-0.2-0.1-0.3-0.3-0.3c-0.1,0-0.2,0-0.2,0.1c0-0.3-0.3-0.5-0.6-0.5c-0.3,0-0.5,0.2-0.5,0.4h-0.1c-0.2,0-0.3,0.1-0.4,0.3h-0.1
		c-0.2,0-0.3,0.2-0.3,0.3s0,0.1,0.1,0.2L64.9,85.4L64.9,85.4z"/>
	<path id="XMLID_197_" class="st3" d="M72.1,82.5c0-0.2-0.1-0.3-0.3-0.3h-0.1c-0.1-0.1-0.2-0.2-0.3-0.2v-0.1c0-0.3-0.2-0.5-0.5-0.5
		c-0.1,0-0.2,0-0.3,0.1c0-0.4-0.4-0.8-0.9-0.8c-0.4,0-0.7,0.3-0.8,0.6h-0.1c-0.3,0-0.5,0.2-0.6,0.4c-0.1,0-0.1,0-0.2,0
		c-0.3,0-0.5,0.2-0.5,0.5c0,0.1,0,0.2,0.1,0.3H72.1C72,82.6,72.1,82.6,72.1,82.5z"/>
	<polyline id="XMLID_196_" class="st4" points="66.3,92.2 74.7,82 82.7,92.2 	"/>
	<path id="XMLID_371_" class="st14" d="M88.4,65.5c0-1-0.8-1.8-1.8-1.8c-0.3,0-0.5,0.1-0.8,0.2c-0.3-0.7-1-1.2-1.8-1.3
		c0-0.2,0.1-0.3,0.1-0.5c0-1.7-1.3-3-3-3c-0.8,0-1.5,0.3-2,0.8c-0.2-2.9-2.6-5.1-5.5-5.1c-2.5,0-4.6,1.7-5.3,4
		c-0.2,0-0.5-0.1-0.8-0.1c-1.8,0-3.2,1.2-3.6,2.8c-0.4-0.2-0.8-0.3-1.3-0.3c-1.9,0-3.4,1.5-3.4,3.4c0,0.6,0.2,1.2,0.5,1.7H88
		C88.3,66.2,88.4,65.9,88.4,65.5z"/>
	<path id="XMLID_495_" class="st25" d="M67.1,59.5c1.8,0,3.3,1.5,3.3,3.3c0,0.4-0.1,0.7-0.2,1.1c0.3-0.5,0.5-1.1,0.5-1.8
		c0-1.8-1.5-3.3-3.3-3.3l0,0c-1.4,0-2.6,0.9-3.1,2.2C65,60,66,59.5,67.1,59.5z"/>
	<path id="XMLID_492_" class="st25" d="M83.4,63c-0.8,0.6-1.9,0.4-2.5-0.4c-0.1-0.2-0.2-0.3-0.2-0.5c0,0.3,0.1,0.7,0.3,1
		c0.6,0.8,1.7,1,2.5,0.4l0,0c0.6-0.5,0.9-1.3,0.7-2C84.1,62.1,83.9,62.7,83.4,63z"/>
	<path id="XMLID_389_" class="st4" d="M84.2,62c0-1.7-1.3-3-3-3c-0.8,0-1.5,0.3-2,0.8c-0.2-2.9-2.6-5.1-5.5-5.1
		c-2.5,0-4.6,1.7-5.3,4"/>
	<line id="XMLID_199_" class="st4" x1="59.9" y1="66.4" x2="72.1" y2="66.4"/>
	<line id="XMLID_198_" class="st4" x1="82.4" y1="66.4" x2="73.8" y2="66.4"/>
	<polyline id="XMLID_1235_" class="st4" points="70.3,70.1 71.8,68.7 73.2,70.1 	"/>
	<line id="XMLID_1239_" class="st4" x1="71.8" y1="68.7" x2="71.8" y2="73.1"/>
	<polyline id="XMLID_202_" class="st6" points="75.8,71.6 77.3,73.1 78.7,71.6 	"/>
	<line id="XMLID_201_" class="st6" x1="77.3" y1="73" x2="77.3" y2="68.7"/>
	<line id="XMLID_808_" class="st4" x1="82.2" y1="69.4" x2="92.7" y2="69.4"/>
	<line id="XMLID_205_" class="st4" x1="86.6" y1="72.3" x2="94.1" y2="72.3"/>
	<line id="XMLID_206_" class="st4" x1="79.7" y1="72.3" x2="85.2" y2="72.3"/>
	<line id="XMLID_204_" class="st4" x1="56.7" y1="69.4" x2="67.2" y2="69.4"/>
	<line id="XMLID_200_" class="st4" x1="61.5" y1="72.3" x2="69.4" y2="72.3"/>
	<line id="XMLID_203_" class="st4" x1="60" y1="72.3" x2="55.9" y2="72.3"/>
</g>
<g id="XMLID_2_" class="st0">
	
		<ellipse id="XMLID_236_" transform="matrix(0.3855 -0.9227 0.9227 0.3855 -17.6188 114.3218)" class="st12" cx="77" cy="70.4" rx="5" ry="1.6"/>
	
		<ellipse id="XMLID_235_" transform="matrix(0.9251 -0.3797 0.3797 0.9251 -21.8329 35.7655)" class="st12" cx="79.7" cy="73.2" rx="5" ry="1.6"/>
	
		<ellipse id="XMLID_234_" transform="matrix(0.3856 -0.9227 0.9227 0.3856 -22.0323 120.9348)" class="st12" cx="79.8" cy="77" rx="1.6" ry="5"/>
	
		<ellipse id="XMLID_233_" transform="matrix(0.9251 -0.3797 0.3797 0.9251 -24.5003 35.2037)" class="st12" cx="77" cy="79.7" rx="1.6" ry="5"/>
	
		<ellipse id="XMLID_232_" transform="matrix(0.3858 -0.9226 0.9226 0.3858 -28.6709 116.5258)" class="st13" cx="73.2" cy="79.8" rx="5" ry="1.6"/>
	
		<ellipse id="XMLID_231_" transform="matrix(0.9252 -0.3796 0.3796 0.9252 -23.9687 32.5028)" class="st13" cx="70.4" cy="77" rx="5" ry="1.6"/>
	
		<ellipse id="XMLID_228_" transform="matrix(0.3859 -0.9225 0.9225 0.3859 -24.2794 109.8698)" class="st13" cx="70.4" cy="73.2" rx="1.6" ry="5"/>
	
		<ellipse id="XMLID_223_" transform="matrix(0.9252 -0.3794 0.3794 0.9252 -21.2369 33.0309)" class="st13" cx="73.2" cy="70.4" rx="1.6" ry="5"/>
	
		<ellipse id="XMLID_211_" transform="matrix(0.7071 -0.7071 0.7071 0.7071 -26.7864 76.8542)" class="st1" cx="79.4" cy="70.8" rx="6.1" ry="2"/>
	<ellipse id="XMLID_212_" class="st1" cx="81.2" cy="75.1" rx="6.1" ry="2"/>
	
		<ellipse id="XMLID_213_" transform="matrix(0.7072 -0.707 0.707 0.7072 -32.8907 79.4522)" class="st1" cx="79.5" cy="79.4" rx="2" ry="6.1"/>
	
		<ellipse id="XMLID_215_" transform="matrix(0.7073 -0.7069 0.7069 0.7073 -35.4521 73.2183)" class="st26" cx="70.7" cy="79.4" rx="6.1" ry="2"/>
	<ellipse id="XMLID_219_" class="st26" cx="69" cy="75.1" rx="6.1" ry="2"/>
	
		<ellipse id="XMLID_220_" transform="matrix(0.7074 -0.7068 0.7068 0.7074 -29.2582 70.6886)" class="st26" cx="70.8" cy="70.7" rx="2" ry="6.1"/>
	<circle id="XMLID_237_" class="st22" cx="75.1" cy="75.1" r="14.4"/>
	<path id="XMLID_238_" class="st26" d="M73.1,81.2c0,3.3,0.9,6.1,1.9,6.1V75.1C74,75.2,73.1,77.9,73.1,81.2z"/>
	<path id="XMLID_244_" class="st1" d="M75.1,75.1L75.1,75.1v12.3l0,0c1.1,0,2-2.7,2-6.1C77.1,77.8,76.2,75.1,75.1,75.1z"/>
	<path id="XMLID_245_" class="st26" d="M73.1,69c0,3.3,0.9,6.1,1.9,6.1V62.8C74,62.9,73.1,65.6,73.1,69z"/>
	<path id="XMLID_246_" class="st1" d="M75.1,62.8L75.1,62.8v12.3l0,0c1.1,0,2-2.7,2-6.1C77.1,65.6,76.2,62.8,75.1,62.8z"/>
	<circle id="XMLID_221_" class="st2" cx="75.1" cy="75.1" r="3.4"/>
	<circle id="XMLID_222_" class="st4" cx="75.1" cy="75.1" r="3.4"/>
	<line id="XMLID_214_" class="st4" x1="58.2" y1="75.1" x2="62.7" y2="75.1"/>
	<line id="XMLID_239_" class="st4" x1="87.3" y1="75.1" x2="91.8" y2="75.1"/>
	<line id="XMLID_210_" class="st4" x1="75.1" y1="58.2" x2="75.1" y2="62.7"/>
	<line id="XMLID_247_" class="st4" x1="75.1" y1="87.3" x2="75.1" y2="91.8"/>
</g>
<g id="XMLID_268_" class="st0">
	<rect id="XMLID_248_" x="58.1" y="54.5" class="st3" width="33.9" height="37.7"/>
	<rect id="XMLID_250_" x="58.6" y="54.7" class="st27" width="32.9" height="3.6"/>
	<rect id="XMLID_251_" x="58.6" y="54.7" class="st4" width="32.9" height="3.6"/>
	<rect id="XMLID_252_" x="62.9" y="60.6" class="st28" width="24.3" height="10.3"/>
	<rect id="XMLID_253_" x="62.9" y="71.8" class="st1" width="11.6" height="5.4"/>
	<rect id="XMLID_256_" x="75.5" y="71.8" class="st23" width="11.8" height="5.4"/>
	<g id="XMLID_255_" class="st7">
		<rect id="XMLID_257_" x="65.3" y="78.5" class="st29" width="20.3" height="1"/>
	</g>
	<g id="XMLID_259_" class="st7">
		<rect id="XMLID_260_" x="65.3" y="84.3" class="st30" width="20.3" height="1"/>
	</g>
	<g id="XMLID_261_" class="st7">
		<rect id="XMLID_262_" x="65.3" y="85.8" class="st30" width="20.3" height="1"/>
	</g>
	<g id="XMLID_263_" class="st7">
		<rect id="XMLID_264_" x="65.3" y="87.4" class="st30" width="20.3" height="1"/>
	</g>
	<g id="XMLID_254_" class="st7">
		<rect id="XMLID_258_" x="70.9" y="80.4" class="st29" width="9" height="1"/>
	</g>
	<g id="XMLID_1479_" class="st7">
		<line id="XMLID_1488_" class="st20" x1="75" y1="76.7" x2="75" y2="80.5"/>
		<path id="XMLID_1485_" class="st31" d="M75,59c-5,0-9.1,4.1-9.1,9.1s4.1,9.1,9.1,9.1s9.1-4.1,9.1-9.1S80,59,75,59z M75,76.2
			c-4.5,0-8.1-3.6-8.1-8.1S70.5,60,75,60s8.1,3.6,8.1,8.1S79.5,76.2,75,76.2z"/>
		<path id="XMLID_1484_" class="st20" d="M75,61.9c3.5,0,6.2,2.8,6.2,6.2"/>
		<path id="XMLID_1483_" class="st10" d="M73.2,79.4v14.3c0,1,0.8,1.8,1.8,1.8V79.4H73.2z"/>
		<path id="XMLID_1482_" class="st8" d="M75,79.4v16.1c1,0,1.8-0.8,1.8-1.8V79.4H75z"/>
		<line id="XMLID_1481_" class="st20" x1="73.1" y1="82" x2="76.9" y2="82"/>
		<line id="XMLID_1480_" class="st20" x1="73.1" y1="83.5" x2="76.9" y2="83.5"/>
	</g>
	<circle id="XMLID_265_" class="st2" cx="61.1" cy="56.3" r="0.6"/>
	<circle id="XMLID_266_" class="st2" cx="62.9" cy="56.3" r="0.6"/>
	<circle id="XMLID_267_" class="st2" cx="64.6" cy="56.3" r="0.6"/>
	<polyline id="XMLID_496_" class="st4" points="91.9,75.3 91.9,92.2 78.1,92.2 	"/>
	<line id="XMLID_504_" class="st4" x1="58.1" y1="92.2" x2="71.3" y2="92.3"/>
</g>
<g id="XMLID_294_" class="st0">
	<path id="XMLID_284_" class="st1" d="M73,60.5h2.8l8.7,2.1c0.8,0.2,1.4,0.9,1.4,1.7v0.5H73V60.5z"/>
	<path id="XMLID_297_" class="st32" d="M73,63.7v1.1h12.9v-0.5c0-0.2,0-0.4-0.1-0.6H73z"/>
	<path id="XMLID_285_" class="st1" d="M73,73.4h2.8l8.7-2.1c0.8-0.2,1.4-0.9,1.4-1.7v-0.5H73V73.4z"/>
	<path id="XMLID_298_" class="st32" d="M85.9,69.6v-0.5H73v1.1h12.8C85.9,70,85.9,69.8,85.9,69.6z"/>
	<path id="XMLID_286_" class="st1" d="M66.3,69.2h-2l-6.2,1.5c-0.6,0.1-1,0.6-1,1.2v0.4h9.2V69.2z"/>
	<path id="XMLID_295_" class="st12" d="M57.1,71.9v0.4h9.2v-0.6h-9.2C57.1,71.8,57.1,71.9,57.1,71.9z"/>
	<path id="XMLID_277_" class="st1" d="M66.3,65h-2l-6.2-1.5c-0.6-0.1-1-0.6-1-1.2v-0.4h9.2V65z"/>
	<path id="XMLID_296_" class="st12" d="M57.1,61.9v0.4c0,0,0,0,0,0.1h9.2V62L57.1,61.9L57.1,61.9z"/>
	<rect id="XMLID_269_" x="65.9" y="60.5" class="st3" width="7.1" height="35.5"/>
	<rect id="XMLID_270_" x="69.4" y="60.5" class="st23" width="3.6" height="35.5"/>
	<line id="XMLID_272_" class="st4" x1="65.9" y1="64.4" x2="69.1" y2="64.4"/>
	<line id="XMLID_271_" class="st4" x1="65.9" y1="67.4" x2="69.1" y2="67.4"/>
	<line id="XMLID_273_" class="st4" x1="65.9" y1="70.3" x2="69.1" y2="70.3"/>
	<line id="XMLID_278_" class="st4" x1="65.9" y1="85.3" x2="69.1" y2="85.3"/>
	<line id="XMLID_279_" class="st4" x1="65.9" y1="88.3" x2="69.1" y2="88.3"/>
	<line id="XMLID_280_" class="st4" x1="65.9" y1="91.3" x2="69.1" y2="91.3"/>
	<line id="XMLID_281_" class="st4" x1="65.9" y1="94.3" x2="69.1" y2="94.3"/>
	<rect id="XMLID_274_" x="64.2" y="74.5" class="st27" width="9.2" height="11.9"/>
	<rect id="XMLID_275_" x="68.8" y="74.5" class="st14" width="4.6" height="11.9"/>
	<rect id="XMLID_283_" x="64.2" y="74.5" class="st4" width="9.2" height="11.9"/>
	<rect id="XMLID_287_" x="62.5" y="78.8" class="st5" width="2" height="3.2"/>
	<rect id="XMLID_276_" x="61.3" y="78" class="st1" width="2" height="4.8"/>
	<circle id="XMLID_288_" class="st13" cx="82.1" cy="66.9" r="2.2"/>
	<circle id="XMLID_291_" class="st22" cx="82.1" cy="66.9" r="3.6"/>
	<line id="XMLID_293_" class="st22" x1="75.6" y1="57.1" x2="92.9" y2="57.1"/>
	<line id="XMLID_292_" class="st22" x1="90.1" y1="71.6" x2="90.1" y2="54"/>
	<rect id="XMLID_289_" x="61.3" y="81.4" class="st32" width="2" height="1.4"/>
</g>
<g id="XMLID_311_" class="st0">
	<path id="XMLID_307_" class="st23" d="M92.2,75c0,0-9.5,10.6-17.2,10.6S57.8,75,57.8,75S67.3,64.4,75,64.4S92.2,75,92.2,75z"/>
	<g id="XMLID_304_" class="st7">
		<path id="XMLID_306_" class="st19" d="M82.6,75c0-4.2-3.4-7.6-7.6-7.6v15.2C79.2,82.6,82.6,79.2,82.6,75z"/>
		<path id="XMLID_305_" class="st8" d="M75,67.4c-4.2,0-7.6,3.4-7.6,7.6s3.4,7.6,7.6,7.6l0,0V67.4L75,67.4z"/>
	</g>
	<circle id="XMLID_302_" class="st2" cx="75" cy="75" r="3.7"/>
	<path id="XMLID_299_" class="st4" d="M83,75c0,4.4-3.6,8-8,8s-8-3.6-8-8s3.6-8,8-8S83,70.6,83,75z"/>
	<circle id="XMLID_301_" class="st5" cx="75" cy="75" r="2.4"/>
	<path id="XMLID_300_" class="st22" d="M91.8,75c0,9.3-7.5,16.8-16.8,16.8S58.2,84.3,58.2,75S65.7,58.2,75,58.2S91.8,65.7,91.8,75z"
		/>
	<line id="XMLID_308_" class="st22" x1="75.1" y1="60.4" x2="75.1" y2="71.3"/>
	<line id="XMLID_303_" class="st22" x1="75.1" y1="78.7" x2="75.1" y2="89.6"/>
	<line id="XMLID_310_" class="st22" x1="79.2" y1="75" x2="90.1" y2="75"/>
	<line id="XMLID_309_" class="st22" x1="59.8" y1="75" x2="70.7" y2="75"/>
</g>
<g id="XMLID_470_" class="st0">
	<path id="XMLID_356_" class="st4" d="M75.1,81.2v-1.3c0-0.7-0.5-1.2-1.2-1.2h-8.2c-0.7,0-1.2-0.5-1.2-1.2l0,0
		c0-0.7,0.5-1.2,1.2-1.2h19.1c0.7,0,1.2-0.5,1.2-1.2v-0.2c0-0.7-0.5-1.2-1.2-1.2H65.7c-0.7,0-1.2-0.5-1.2-1.2v-0.1
		c0-0.7,0.5-1.2,1.2-1.2h19.1c0.7,0,1.2-0.5,1.2-1.2v-0.3c0-0.7-0.5-1.2-1.2-1.2h-8.5c-0.7,0-1.2-0.5-1.2-1.2v-6.1"/>
	<g id="XMLID_370_" class="st7">
		<line id="XMLID_425_" class="st20" x1="88.3" y1="60" x2="90.1" y2="61.7"/>
		<line id="XMLID_424_" class="st20" x1="88.3" y1="61.7" x2="90.1" y2="60"/>
	</g>
	<g id="XMLID_467_" class="st7">
		<line id="XMLID_469_" class="st20" x1="89.5" y1="74.3" x2="91.2" y2="76"/>
		<line id="XMLID_468_" class="st20" x1="89.5" y1="76" x2="91.2" y2="74.3"/>
	</g>
	<g id="XMLID_461_" class="st7">
		<line id="XMLID_463_" class="st20" x1="55.6" y1="67" x2="58.2" y2="69.6"/>
		<line id="XMLID_462_" class="st20" x1="55.6" y1="69.6" x2="58.2" y2="67"/>
	</g>
	<g id="XMLID_458_" class="st7">
		<line id="XMLID_460_" class="st20" x1="64.1" y1="56" x2="65.8" y2="57.8"/>
		<line id="XMLID_459_" class="st20" x1="64.1" y1="57.8" x2="65.8" y2="56"/>
	</g>
	<g id="XMLID_464_" class="st7">
		<line id="XMLID_466_" class="st20" x1="61" y1="76" x2="62.7" y2="77.8"/>
		<line id="XMLID_465_" class="st20" x1="61" y1="77.8" x2="62.7" y2="76"/>
	</g>
	<g id="XMLID_355_" class="st7">
		<line id="XMLID_457_" class="st20" x1="91.4" y1="66.6" x2="94" y2="69.2"/>
		<line id="XMLID_456_" class="st20" x1="91.4" y1="69.2" x2="94" y2="66.6"/>
	</g>
	<rect id="XMLID_312_" x="58.8" y="80.5" class="st23" width="32.6" height="15.8"/>
	<g id="XMLID_328_" class="st7">
		<rect id="XMLID_314_" x="60.1" y="81.9" class="st33" width="1.7" height="1.7"/>
		<rect id="XMLID_315_" x="63.7" y="81.9" class="st33" width="1.7" height="1.7"/>
		<rect id="XMLID_316_" x="67.2" y="81.9" class="st33" width="1.7" height="1.7"/>
		<rect id="XMLID_317_" x="70.7" y="81.9" class="st33" width="1.7" height="1.7"/>
		<rect id="XMLID_318_" x="74.2" y="81.9" class="st33" width="1.7" height="1.7"/>
		<rect id="XMLID_319_" x="77.8" y="81.9" class="st33" width="1.7" height="1.7"/>
		<rect id="XMLID_320_" x="81.3" y="81.9" class="st33" width="1.7" height="1.7"/>
		<rect id="XMLID_321_" x="84.8" y="81.9" class="st33" width="1.7" height="1.7"/>
		<rect id="XMLID_322_" x="88.4" y="81.9" class="st33" width="1.7" height="1.7"/>
	</g>
	<g id="XMLID_325_" class="st7">
		<rect id="XMLID_354_" x="60.1" y="84.7" class="st33" width="1.7" height="1.7"/>
		<rect id="XMLID_353_" x="63.7" y="84.7" class="st33" width="1.7" height="1.7"/>
		<rect id="XMLID_352_" x="67.2" y="84.7" class="st33" width="1.7" height="1.7"/>
		<rect id="XMLID_351_" x="70.7" y="84.7" class="st33" width="1.7" height="1.7"/>
		<rect id="XMLID_350_" x="74.2" y="84.7" class="st33" width="1.7" height="1.7"/>
		<rect id="XMLID_349_" x="77.8" y="84.7" class="st33" width="1.7" height="1.7"/>
		<rect id="XMLID_348_" x="81.3" y="84.7" class="st33" width="1.7" height="1.7"/>
		<rect id="XMLID_339_" x="84.8" y="84.7" class="st33" width="1.7" height="1.7"/>
		<rect id="XMLID_336_" x="88.4" y="84.7" class="st33" width="1.7" height="1.7"/>
	</g>
	<g id="XMLID_324_" class="st7">
		<rect id="XMLID_366_" x="60.1" y="87.5" class="st33" width="1.7" height="1.7"/>
		<rect id="XMLID_365_" x="63.7" y="87.5" class="st33" width="1.7" height="1.7"/>
		<rect id="XMLID_364_" x="67.2" y="87.5" class="st33" width="1.7" height="1.7"/>
		<rect id="XMLID_363_" x="70.7" y="87.5" class="st33" width="1.7" height="1.7"/>
		<rect id="XMLID_362_" x="74.2" y="87.5" class="st33" width="1.7" height="1.7"/>
		<rect id="XMLID_361_" x="77.8" y="87.5" class="st33" width="1.7" height="1.7"/>
		<rect id="XMLID_360_" x="81.3" y="87.5" class="st33" width="1.7" height="1.7"/>
		<rect id="XMLID_359_" x="84.8" y="87.5" class="st33" width="1.7" height="1.7"/>
		<rect id="XMLID_358_" x="88.4" y="87.5" class="st33" width="1.7" height="1.7"/>
	</g>
	<g id="XMLID_323_" class="st7">
		<rect id="XMLID_380_" x="60.1" y="90.3" class="st33" width="1.7" height="1.7"/>
		<rect id="XMLID_379_" x="63.7" y="90.3" class="st33" width="1.7" height="1.7"/>
		<rect id="XMLID_378_" x="67.2" y="90.3" class="st33" width="1.7" height="1.7"/>
		<rect id="XMLID_377_" x="70.7" y="90.3" class="st33" width="1.7" height="1.7"/>
		<rect id="XMLID_376_" x="74.2" y="90.3" class="st33" width="1.7" height="1.7"/>
		<rect id="XMLID_375_" x="77.8" y="90.3" class="st33" width="1.7" height="1.7"/>
		<rect id="XMLID_374_" x="81.3" y="90.3" class="st33" width="1.7" height="1.7"/>
		<rect id="XMLID_373_" x="84.8" y="90.3" class="st33" width="1.7" height="1.7"/>
		<rect id="XMLID_372_" x="88.4" y="90.3" class="st33" width="1.7" height="1.7"/>
	</g>
	<g id="XMLID_313_" class="st7">
		<rect id="XMLID_393_" x="60.1" y="93.1" class="st33" width="1.7" height="1.7"/>
		<rect id="XMLID_392_" x="63.7" y="93.1" class="st33" width="1.7" height="1.7"/>
		<rect id="XMLID_388_" x="67.2" y="93.1" class="st33" width="15.8" height="1.7"/>
		<rect id="XMLID_385_" x="84.8" y="93.1" class="st33" width="1.7" height="1.7"/>
		<rect id="XMLID_384_" x="88.4" y="93.1" class="st33" width="1.7" height="1.7"/>
	</g>
	<g id="XMLID_417_" class="st7">
		<path id="XMLID_418_" class="st34" d="M73.8,58.7c-0.2,0.1-0.6,0.2-1,0.2c-1.1,0-1.9-0.7-1.9-2c0-1.2,0.8-2,2-2
			c0.5,0,0.8,0.1,0.9,0.2l-0.1,0.4c-0.2-0.1-0.5-0.2-0.8-0.2c-0.9,0-1.5,0.6-1.5,1.6s0.5,1.6,1.5,1.6c0.3,0,0.6-0.1,0.8-0.2
			L73.8,58.7z"/>
		<path id="XMLID_420_" class="st34" d="M74.3,58.2c0.2,0.1,0.6,0.3,0.9,0.3c0.5,0,0.8-0.3,0.8-0.7c0-0.4-0.2-0.6-0.7-0.8
			c-0.6-0.2-1-0.6-1-1.1c0-0.6,0.5-1.1,1.3-1.1c0.4,0,0.7,0.1,0.9,0.2l-0.1,0.4c-0.1-0.1-0.4-0.2-0.7-0.2c-0.5,0-0.7,0.3-0.7,0.6
			c0,0.4,0.2,0.5,0.8,0.8c0.7,0.3,1,0.6,1,1.1c0,0.6-0.4,1.1-1.4,1.1c-0.4,0-0.8-0.1-1-0.2L74.3,58.2z"/>
		<path id="XMLID_422_" class="st34" d="M77.2,58.2c0.2,0.1,0.6,0.3,0.9,0.3c0.5,0,0.8-0.3,0.8-0.7c0-0.4-0.2-0.6-0.7-0.8
			c-0.6-0.2-1-0.6-1-1.1c0-0.6,0.5-1.1,1.3-1.1c0.4,0,0.7,0.1,0.9,0.2l-0.1,0.4c-0.1-0.1-0.4-0.2-0.7-0.2c-0.5,0-0.7,0.3-0.7,0.6
			c0,0.4,0.2,0.5,0.8,0.8c0.7,0.3,1,0.6,1,1.1c0,0.6-0.4,1.1-1.4,1.1c-0.4,0-0.8-0.1-1-0.2L77.2,58.2z"/>
	</g>
	<g id="XMLID_408_" class="st7">
		<path id="XMLID_409_" class="st8" d="M62.8,63.2v1.2h1.4v-1.2h0.4v2.9h-0.4v-1.4h-1.4v1.4h-0.4v-2.9H62.8z"/>
		<path id="XMLID_411_" class="st8" d="M65.8,63.5h-0.9v-0.3h2.2v0.3h-0.9v2.6h-0.4C65.8,66.1,65.8,63.5,65.8,63.5z"/>
		<path id="XMLID_413_" class="st8" d="M69.9,64.8c0-0.4,0-0.9,0-1.3l0,0c-0.1,0.3-0.2,0.7-0.4,1.1L69,66h-0.3l-0.5-1.4
			c-0.1-0.4-0.3-0.8-0.3-1.1l0,0c0,0.4,0,0.9-0.1,1.3L67.7,66h-0.4l0.2-2.9H68l0.5,1.4c0.1,0.4,0.2,0.7,0.3,1l0,0
			c0.1-0.3,0.2-0.6,0.3-1l0.5-1.4h0.5l0.2,2.9h-0.4V64.8z"/>
		<path id="XMLID_415_" class="st8" d="M70.9,63.2h0.4v2.6h1.2v0.3h-1.6V63.2z"/>
	</g>
	<g id="XMLID_403_" class="st7">
		<path id="XMLID_404_" class="st19" d="M55.6,56.5h0.6v2.9c0,1.2-0.6,1.5-1.3,1.5c-0.2,0-0.5,0-0.6-0.1l0.1-0.5
			c0.1,0,0.3,0.1,0.5,0.1c0.5,0,0.8-0.2,0.8-1.1v-2.8H55.6z"/>
		<path id="XMLID_406_" class="st19" d="M57,60.2c0.3,0.2,0.6,0.3,1,0.3c0.6,0,0.9-0.3,0.9-0.8c0-0.4-0.2-0.6-0.8-0.9
			c-0.7-0.3-1.2-0.6-1.2-1.2c0-0.7,0.6-1.2,1.4-1.2c0.5,0,0.8,0.1,1,0.2l-0.2,0.5c-0.1-0.1-0.4-0.2-0.8-0.2c-0.6,0-0.8,0.4-0.8,0.7
			c0,0.4,0.3,0.6,0.9,0.9c0.7,0.3,1.1,0.6,1.1,1.3c0,0.7-0.5,1.3-1.5,1.3c-0.4,0-0.9-0.1-1.1-0.3L57,60.2z"/>
	</g>
	<g id="XMLID_396_" class="st7">
		<path id="XMLID_397_" class="st8" d="M89.7,57.1c-0.2,0.1-0.5,0.2-0.9,0.2c-1,0-1.7-0.6-1.7-1.8c0-1.1,0.7-1.8,1.8-1.8
			c0.4,0,0.7,0.1,0.8,0.2l-0.1,0.4c-0.2-0.1-0.4-0.1-0.7-0.1c-0.8,0-1.4,0.5-1.4,1.4c0,0.8,0.5,1.4,1.3,1.4c0.3,0,0.6-0.1,0.7-0.1
			L89.7,57.1z"/>
		<path id="XMLID_399_" class="st8" d="M91.5,54.4v1.2h1.2v0.3h-1.2v1.2h-0.3v-1.2H90v-0.3h1.2v-1.2H91.5z"/>
		<path id="XMLID_401_" class="st8" d="M94.6,54.4v1.2h1.2v0.3h-1.2v1.2h-0.3v-1.2h-1.2v-0.3h1.2v-1.2H94.6z"/>
	</g>
	<g id="XMLID_381_" class="st7">
		<path id="XMLID_382_" class="st19" d="M79.8,61.6c0.2,0,0.5-0.1,0.8-0.1c0.4,0,0.7,0.1,0.9,0.3s0.3,0.4,0.3,0.7
			c0,0.3-0.1,0.5-0.2,0.7c-0.2,0.2-0.6,0.4-1,0.4c-0.1,0-0.2,0-0.3,0v1.3h-0.4L79.8,61.6L79.8,61.6z M80.3,63.2c0.1,0,0.2,0,0.3,0
			c0.5,0,0.8-0.2,0.8-0.7c0-0.4-0.3-0.6-0.8-0.6c-0.2,0-0.3,0-0.4,0v1.3H80.3z"/>
		<path id="XMLID_387_" class="st19" d="M82.8,61.6v1.3h1.6v-1.3h0.4v3.2h-0.4v-1.5h-1.6v1.5h-0.4v-3.2H82.8z"/>
		<path id="XMLID_391_" class="st19" d="M85.5,61.6c0.2,0,0.5-0.1,0.8-0.1c0.4,0,0.7,0.1,0.9,0.3c0.2,0.2,0.3,0.4,0.3,0.7
			c0,0.3-0.1,0.5-0.2,0.7c-0.2,0.2-0.6,0.4-1,0.4c-0.1,0-0.2,0-0.3,0v1.3h-0.4L85.5,61.6L85.5,61.6z M85.9,63.2c0.1,0,0.2,0,0.3,0
			c0.5,0,0.8-0.2,0.8-0.7c0-0.4-0.3-0.6-0.8-0.6c-0.2,0-0.3,0-0.4,0L85.9,63.2L85.9,63.2z"/>
	</g>
</g>
<g id="XMLID_3_" class="st0">
	<path id="XMLID_473_" class="st4" d="M60.7,82.5h-5c-0.6,0-1-0.5-1-1V69.6c0-0.6,0.5-1,1-1H75c0.6,0,1-0.5,1-1V66c0-0.6-0.5-1-1-1
		H60.2c-0.6,0-1-0.5-1-1v-1.7c0-0.6,0.5-1,1-1h6.1c0.9,0,1.6-0.7,1.7-1.6V57"/>
	<rect id="XMLID_472_" x="59.7" y="71" class="st23" width="30.7" height="22.1"/>
	<line id="XMLID_481_" class="st35" x1="65.3" y1="71" x2="65.3" y2="93.1"/>
	<line id="XMLID_480_" class="st4" x1="62.5" y1="74.6" x2="62.5" y2="77.8"/>
	<line id="XMLID_479_" class="st4" x1="62.5" y1="80.9" x2="62.5" y2="84"/>
	<line id="XMLID_478_" class="st4" x1="62.5" y1="87.2" x2="62.5" y2="90.3"/>
	<rect id="XMLID_477_" x="67.2" y="72.4" class="st14" width="21.9" height="19"/>
	<polyline id="XMLID_483_" class="st4" points="59.7,93 90.4,93 90.4,84 	"/>
	<polyline id="XMLID_476_" class="st4" points="90.4,71 59.7,71 59.7,79.2 	"/>
	<path id="XMLID_474_" class="st23" d="M94.9,92.1h-1.1l-0.4-2.4c0-0.1,0-0.1,0-0.2V67.2l1-2.1l1,2.1v22.4c0,0.1,0,0.1,0,0.2
		L94.9,92.1z"/>
	<polygon id="XMLID_475_" class="st36" points="93.4,67.2 94.4,65.1 95.4,67.2 	"/>
	<path id="XMLID_471_" class="st4" d="M94.9,92.1h-1.1l-0.4-2.4c0-0.1,0-0.1,0-0.2V67.2l1-2.1l1,2.1v22.4c0,0.1,0,0.1,0,0.2
		L94.9,92.1z"/>
</g>
<g id="XMLID_4_" class="st0">
	<path id="XMLID_497_" class="st13" d="M90.3,68.7c0.9,0,1.5,0.7,1.5,1.5v15.3c0,0.9-0.7,1.5-1.5,1.5c-0.8,0-1.5-0.7-1.5-1.5v-3.8
		c0-0.9-0.6-1.5-1.4-1.5S86,80.9,86,81.7v1c0,0.9-0.7,1.5-1.5,1.5c-0.8,0-1.5-0.7-1.5-1.5v-6.1c0-0.9-0.5-1.5-1.2-1.5
		s-1.2,0.6-1.2,1.4s-0.5,1.4-1.2,1.4s-1.2-0.7-1.2-1.5v-6.1c0-0.9,0.7-1.5,1.5-1.5H82h8.3V68.7z"/>
	<path id="XMLID_501_" class="st4" d="M83.2,82.8v-6.1c0-0.9-0.5-1.5-1.2-1.5s-1.2,0.6-1.2,1.4c0,0.8-0.5,1.4-1.2,1.4
		s-1.2-0.7-1.2-1.5"/>
	<path id="XMLID_502_" class="st4" d="M88.9,85.5v-3.8c0-0.9-0.6-1.5-1.4-1.5s-1.4,0.7-1.4,1.5v1"/>
	<path id="XMLID_500_" class="st4" d="M90.3,68.7c0.9,0,1.5,0.7,1.5,1.5v15.3"/>
	<rect id="XMLID_491_" x="65.4" y="59.2" class="st23" width="3.5" height="4.6"/>
	<path id="XMLID_489_" class="st23" d="M59.6,69.8c0-4,3.3-7.3,7.3-7.3s7.3,3.3,7.3,7.3H59.6z"/>
	<path id="XMLID_493_" class="st1" d="M67.7,62.9c-3.9,0-7.1,3.1-7.3,6.9h-0.9c0-4,3.3-7.3,7.3-7.3c1.1,0,2.1,0.2,3,0.7
		C69.2,63,68.5,62.9,67.7,62.9z"/>
	<path id="XMLID_482_" class="st23" d="M63.1,93.4h7.5c2.4,0,4.3-1.9,4.3-4.3V70.3c0-1.6-1.3-2.8-2.8-2.8h-9c-2.4,0-4.3,1.9-4.3,4.3
		V89C58.7,91.4,60.7,93.4,63.1,93.4z"/>
	<path id="XMLID_494_" class="st1" d="M62.7,67.5h1.8c0.6,0.7,1,0.4,1,0.9v25h-2.9c-2.2,0-4-1.8-4-4V69.7
		C58.7,67.5,60.5,67.5,62.7,67.5z"/>
	<line id="XMLID_498_" class="st4" x1="58.2" y1="67.6" x2="75.5" y2="67.6"/>
	<line id="XMLID_484_" class="st4" x1="60.4" y1="93" x2="72.4" y2="93"/>
	<rect id="XMLID_488_" x="66.3" y="73.8" class="st2" width="8.6" height="12.8"/>
	<rect id="XMLID_490_" x="67" y="74.2" class="st13" width="7.9" height="11.8"/>
	<path id="XMLID_499_" class="st1" d="M68.1,61.2c0-0.5,0.4-0.8,0.8-0.8V62C68.4,62,68.1,61.6,68.1,61.2z"/>
	<path id="XMLID_485_" class="st4" d="M78.6,63.6c-0.2,0.3-0.2,0.7-0.2,1.1c0,1.5,1.2,2.6,2.6,2.6c1.4,0,2.5-1.1,2.6-2.5
		c0.7,0.7,1.7,1.1,2.7,1.1c2.2,0,4-1.8,4-4c0-2.2-1.8-4-4-4c-0.8,0-1.5,0.2-2.1,0.6c-0.5-1.1-1.6-1.9-2.9-1.9
		c-1.5,0-2.8,1.1-3.1,2.6h-5.5"/>
	<line id="XMLID_487_" class="st4" x1="76.6" y1="61.2" x2="70.4" y2="61.2"/>
	<path id="XMLID_486_" class="st4" d="M85.9,60.2c1,0,1.8,0.8,1.8,1.8"/>
</g>
<g id="XMLID_623_" class="st0">
	<g id="XMLID_508_" class="st7">
		<rect id="XMLID_518_" x="55" y="82.9" class="st19" width="40.1" height="8.3"/>
		<rect id="XMLID_517_" x="55" y="82.9" class="st24" width="40.1" height="3.7"/>
		<line id="XMLID_516_" class="st20" x1="61" y1="82.9" x2="61" y2="85.5"/>
		<line id="XMLID_515_" class="st20" x1="55.5" y1="82.9" x2="55.5" y2="85.5"/>
		<line id="XMLID_514_" class="st20" x1="66.6" y1="82.9" x2="66.6" y2="85.5"/>
		<line id="XMLID_513_" class="st20" x1="72.2" y1="82.9" x2="72.2" y2="85.5"/>
		<line id="XMLID_512_" class="st20" x1="77.8" y1="82.9" x2="77.8" y2="85.5"/>
		<line id="XMLID_511_" class="st20" x1="89" y1="82.9" x2="89" y2="85.5"/>
		<line id="XMLID_510_" class="st20" x1="83.4" y1="82.9" x2="83.4" y2="85.5"/>
		<line id="XMLID_509_" class="st20" x1="94.5" y1="82.9" x2="94.5" y2="85.5"/>
	</g>
	<g id="XMLID_505_" class="st7">
		<path id="XMLID_506_" class="st33" d="M69.9,60.8h10.4c0.5,0,0.9-0.1,1.2-0.2h0.3l0.1,3.5h-0.3c-0.1-1-0.4-1.7-0.8-2
			c-0.4-0.3-0.8-0.4-1.3-0.4h-2.8v11.8c0,0.4,0,0.7,0.1,1c0.1,0.3,0.3,0.5,0.5,0.7c0.3,0.2,0.7,0.3,1.2,0.3v0.3h-7v-0.3
			c0.8,0,1.3-0.2,1.5-0.5c0.2-0.4,0.3-0.8,0.3-1.4V61.7h-2.8c-0.5,0-0.9,0.2-1.2,0.5c-0.3,0.3-0.6,0.9-0.9,1.9h-0.3l0.1-3.5h0.3
			C69,60.7,69.4,60.8,69.9,60.8z"/>
	</g>
	<rect id="XMLID_503_" x="62.1" y="56.9" class="st5" width="2.2" height="2.2"/>
	<rect id="XMLID_539_" x="85.9" y="56.9" class="st5" width="2.2" height="2.2"/>
	<rect id="XMLID_541_" x="62.1" y="77.4" class="st5" width="2.2" height="2.2"/>
	<rect id="XMLID_540_" x="85.9" y="77.4" class="st5" width="2.2" height="2.2"/>
	<line id="XMLID_543_" class="st22" x1="63.1" y1="57.9" x2="84.9" y2="57.9"/>
	<line id="XMLID_545_" class="st22" x1="63.2" y1="78.5" x2="63.2" y2="56.7"/>
	<line id="XMLID_544_" class="st22" x1="87" y1="78.9" x2="87" y2="57.2"/>
	<line id="XMLID_542_" class="st22" x1="63.1" y1="78.5" x2="84.9" y2="78.5"/>
	<g id="XMLID_519_" class="st7">
		<path id="XMLID_526_" class="st18" d="M88.8,93.2H56.9v-3.4h31.9l4.2,1.6c0.1,0,0.1,0.1,0,0.2L88.8,93.2z"/>
		<rect id="XMLID_525_" x="56.9" y="89.8" class="st8" width="31.9" height="3.4"/>
		<rect id="XMLID_524_" x="56.9" y="89.8" class="st9" width="31.9" height="1.7"/>
		<rect id="XMLID_523_" x="56.9" y="89.7" class="st18" width="4" height="3.6"/>
		<path id="XMLID_522_" class="st20" d="M88.8,93.2H56.9v-3.4h31.9l4.2,1.6c0.1,0,0.1,0.1,0,0.2L88.8,93.2z"/>
		<line id="XMLID_521_" class="st20" x1="60.8" y1="89.8" x2="60.8" y2="92.7"/>
		<line id="XMLID_520_" class="st20" x1="88.8" y1="90" x2="88.8" y2="92.9"/>
	</g>
</g>
<g id="XMLID_566_" class="st0">
	<rect id="XMLID_538_" x="55" y="57.4" class="st3" width="27.4" height="21"/>
	<rect id="XMLID_537_" x="55.3" y="54.7" class="st14" width="26.6" height="4.3"/>
	<rect id="XMLID_536_" x="55.3" y="54.7" class="st4" width="26.6" height="4.3"/>
	<circle id="XMLID_529_" class="st2" cx="74.9" cy="56.9" r="0.6"/>
	<circle id="XMLID_528_" class="st2" cx="76.8" cy="56.9" r="0.6"/>
	<circle id="XMLID_527_" class="st2" cx="78.7" cy="56.9" r="0.6"/>
	<line id="XMLID_562_" class="st4" x1="75.6" y1="70.4" x2="75.6" y2="74.8"/>
	<line id="XMLID_568_" class="st4" x1="85.2" y1="74.3" x2="82.1" y2="77.4"/>
	<line id="XMLID_570_" class="st4" x1="83.7" y1="73.4" x2="86" y2="75.6"/>
	<line id="XMLID_571_" class="st4" x1="67.8" y1="73.4" x2="65.5" y2="75.6"/>
	<line id="XMLID_569_" class="st4" x1="66.4" y1="74.3" x2="69.5" y2="77.4"/>
	<circle id="XMLID_546_" class="st23" cx="75.5" cy="84" r="11.3"/>
	<path id="XMLID_560_" class="st13" d="M75.5,72.7c6.2,0,11.3,5.1,11.3,11.3H75.5V72.7z"/>
	<path id="XMLID_561_" class="st4" d="M86.8,84c0-6.2-5.1-11.3-11.3-11.3h-0.4"/>
	<circle id="XMLID_547_" class="st5" cx="75.5" cy="74.6" r="0.5"/>
	<circle id="XMLID_548_" class="st5" cx="80.2" cy="75.9" r="0.5"/>
	<circle id="XMLID_549_" class="st5" cx="83.6" cy="79.3" r="0.5"/>
	<circle id="XMLID_550_" class="st5" cx="84.9" cy="84" r="0.5"/>
	<circle id="XMLID_551_" class="st5" cx="83.7" cy="88.6" r="0.5"/>
	<circle id="XMLID_552_" class="st5" cx="80.2" cy="92.1" r="0.5"/>
	<circle id="XMLID_553_" class="st5" cx="75.6" cy="93.3" r="0.5"/>
	<circle id="XMLID_554_" class="st5" cx="70.9" cy="92.1" r="0.5"/>
	<circle id="XMLID_555_" class="st5" cx="67.4" cy="88.7" r="0.5"/>
	<circle id="XMLID_556_" class="st5" cx="66.2" cy="84.1" r="0.5"/>
	<circle id="XMLID_557_" class="st5" cx="67.4" cy="79.4" r="0.5"/>
	<circle id="XMLID_558_" class="st5" cx="70.8" cy="75.9" r="0.5"/>
	<rect id="XMLID_563_" x="73.7" y="69.3" class="st23" width="3.8" height="1.5"/>
	<rect id="XMLID_559_" x="73.7" y="69.3" class="st4" width="3.8" height="1.5"/>
	<circle id="XMLID_565_" class="st2" cx="75.5" cy="84" r="1.2"/>
	<circle id="XMLID_564_" class="st4" cx="75.5" cy="84" r="1.2"/>
	<line id="XMLID_567_" class="st4" x1="76.7" y1="84" x2="82.3" y2="84"/>
	<line id="XMLID_531_" class="st4" x1="57.3" y1="62.7" x2="67.8" y2="62.7"/>
	<line id="XMLID_530_" class="st4" x1="86" y1="62.7" x2="70.2" y2="62.7"/>
	<line id="XMLID_532_" class="st4" x1="79.3" y1="64.8" x2="63.5" y2="64.8"/>
	<line id="XMLID_533_" class="st4" x1="80.4" y1="64.8" x2="90.9" y2="64.8"/>
	<line id="XMLID_534_" class="st4" x1="74.5" y1="67.3" x2="95" y2="67.3"/>
	<polyline id="XMLID_535_" class="st4" points="55,67.3 55,78.4 64.2,78.4 	"/>
	<line id="XMLID_572_" class="st4" x1="82.3" y1="69.3" x2="82.3" y2="73.6"/>
</g>
<g id="XMLID_593_" class="st0">
	<path id="XMLID_591_" class="st3" d="M77.5,86.6v5c0,1.5-1.2,2.8-2.8,2.8l0,0c-1.5,0-2.8-1.2-2.8-2.8v-5H77.5z"/>
	<path id="XMLID_587_" class="st4" d="M77.5,86.6v5c0,1.5-1.2,2.8-2.8,2.8l0,0c-1.5,0-2.8-1.2-2.8-2.8v-5H77.5z"/>
	<circle id="XMLID_584_" class="st13" cx="74.8" cy="70.7" r="10"/>
	<rect id="XMLID_583_" x="69.9" y="74.7" class="st13" width="9.7" height="11"/>
	<rect id="XMLID_582_" x="69.9" y="85.2" class="st23" width="9.9" height="2.7"/>
	<rect id="XMLID_581_" x="69.9" y="85.2" class="st4" width="9.9" height="2.7"/>
	<line id="XMLID_580_" class="st4" x1="72.2" y1="89.5" x2="75.4" y2="89.5"/>
	<line id="XMLID_579_" class="st4" x1="74.7" y1="91.1" x2="77.8" y2="91.1"/>
	<polygon id="XMLID_575_" class="st5" points="77,70.4 73.8,70.4 77,63 71.5,70.9 70.5,72.3 72.3,72.3 75.4,72.3 72.3,78.9 
		77.8,71.9 78.9,70.4 	"/>
	<path id="XMLID_1448_" class="st4" d="M88.7,77.4c0,0.8-1.7,0.8-1.7,1.7c0,0.8,1.7,0.8,1.7,1.7c0,0.8-1.7,0.8-1.7,1.7
		c0,0.8,1.7,0.8,1.7,1.7"/>
	<path id="XMLID_578_" class="st4" d="M64.8,87.8c0,0.7-1.4,0.7-1.4,1.4c0,0.7,1.4,0.7,1.4,1.4c0,0.7-1.4,0.7-1.4,1.4
		c0,0.7,1.4,0.7,1.4,1.4"/>
	<path id="XMLID_595_" class="st4" d="M83.5,55.7c0,0.7-1.4,0.7-1.4,1.4c0,0.7,1.4,0.7,1.4,1.4c0,0.7-1.4,0.7-1.4,1.4
		c0,0.7,1.4,0.7,1.4,1.4"/>
	<path id="XMLID_573_" class="st4" d="M60.4,65.8c0,0.8-1.7,0.8-1.7,1.7c0,0.8,1.7,0.8,1.7,1.7c0,0.8-1.7,0.8-1.7,1.7
		c0,0.8,1.7,0.8,1.7,1.7"/>
	<circle id="XMLID_1452_" class="st4" cx="91.9" cy="68.2" r="1"/>
	<circle id="XMLID_592_" class="st4" cx="85.8" cy="89.5" r="1"/>
	<circle id="XMLID_586_" class="st4" cx="64.8" cy="58" r="1"/>
	<circle id="XMLID_577_" class="st4" cx="92.4" cy="58" r="1.4"/>
	<circle id="XMLID_576_" class="st4" cx="57.4" cy="84.7" r="1.2"/>
	<circle id="XMLID_574_" class="st4" cx="64.8" cy="81.5" r="0.8"/>
</g>
<g id="XMLID_622_" class="st0">
	<g id="XMLID_597_" class="st7">
		<rect id="XMLID_676_" x="70.1" y="88.1" class="st15" width="9.9" height="5.8"/>
		<rect id="XMLID_675_" x="70.1" y="88.1" class="st16" width="9.9" height="2.9"/>
		<rect id="XMLID_674_" x="70.1" y="88.1" class="st20" width="9.9" height="5.8"/>
		<rect id="XMLID_673_" x="58.6" y="65.7" class="st16" width="32.7" height="19.5"/>
		<rect id="XMLID_672_" x="60.4" y="67.6" class="st18" width="29.2" height="15.4"/>
		<rect id="XMLID_671_" x="60.6" y="68.4" class="st10" width="13.6" height="7.7"/>
		<rect id="XMLID_598_" x="75.5" y="68.4" class="st19" width="13.6" height="7.7"/>
		<rect id="XMLID_668_" x="58.6" y="84.4" class="st18" width="32.7" height="4.4"/>
		<rect id="XMLID_667_" x="58.9" y="84.4" class="st20" width="32.1" height="4.4"/>
		<line id="XMLID_666_" class="st20" x1="68.2" y1="94" x2="82" y2="94"/>
		<rect id="XMLID_594_" x="63.6" y="77.3" class="st30" width="22.9" height="0.8"/>
		<rect id="XMLID_599_" x="63.6" y="79.4" class="st30" width="22.9" height="0.8"/>
		<rect id="XMLID_600_" x="63.6" y="81.6" class="st30" width="22.9" height="0.8"/>
	</g>
	<g id="XMLID_653_" class="st7">
		<line id="XMLID_655_" class="st20" x1="78.5" y1="61.2" x2="80.3" y2="63"/>
		<line id="XMLID_654_" class="st20" x1="78.5" y1="63" x2="80.3" y2="61.2"/>
	</g>
	<g id="XMLID_616_" class="st7">
		<line id="XMLID_618_" class="st20" x1="69.2" y1="66.5" x2="71" y2="68.3"/>
		<line id="XMLID_617_" class="st20" x1="69.2" y1="68.3" x2="71" y2="66.5"/>
	</g>
	<g id="XMLID_610_" class="st7">
		<line id="XMLID_612_" class="st20" x1="87.9" y1="59.7" x2="90.2" y2="62"/>
		<line id="XMLID_611_" class="st20" x1="87.9" y1="62" x2="90.2" y2="59.7"/>
	</g>
	<g id="XMLID_619_" class="st7">
		<line id="XMLID_621_" class="st20" x1="59.8" y1="60.3" x2="62.2" y2="62.6"/>
		<line id="XMLID_620_" class="st20" x1="59.8" y1="62.6" x2="62.2" y2="60.3"/>
	</g>
	<g id="XMLID_613_" class="st7">
		<line id="XMLID_615_" class="st20" x1="69.7" y1="55.6" x2="72.2" y2="58.1"/>
		<line id="XMLID_614_" class="st20" x1="69.7" y1="58.1" x2="72.2" y2="55.6"/>
	</g>
	<g id="XMLID_596_" class="st7">
		<path id="XMLID_636_" class="st31" d="M86.1,94.4h-7.8c-0.5,0-1-0.5-1-1V79.8c0-0.5,0.5-1,1-1h7.8c0.6,0,1,0.5,1,1v13.6
			C87.1,94,86.6,94.4,86.1,94.4z"/>
		<line id="XMLID_637_" class="st20" x1="80.9" y1="79.9" x2="83.4" y2="79.9"/>
		<rect id="XMLID_638_" x="78" y="80.7" class="st18" width="8.3" height="11.9"/>
		<rect id="XMLID_601_" x="78.5" y="81.6" class="st8" width="3.4" height="7.2"/>
		<rect id="XMLID_602_" x="82.4" y="81.6" class="st19" width="3.4" height="7.2"/>
		<rect id="XMLID_603_" x="78.5" y="89.5" class="st30" width="7.3" height="0.8"/>
		<rect id="XMLID_604_" x="78.5" y="91" class="st30" width="7.3" height="0.8"/>
	</g>
	<g id="XMLID_607_" class="st7">
		<polyline id="XMLID_605_" class="st20" points="65.3,74.8 66.8,73.2 68.4,74.8 		"/>
		<polyline id="XMLID_609_" class="st20" points="81.1,73.2 82.6,74.8 84.2,73.2 		"/>
		<path id="XMLID_608_" class="st20" d="M74.8,66c2.2,0,4.2,0.9,5.6,2.3c1.4,1.4,2.3,3.4,2.3,5.6"/>
		<path id="XMLID_606_" class="st20" d="M74.8,81.9c-2.2,0-4.2-0.9-5.6-2.3c-1.4-1.4-2.3-3.4-2.3-5.6"/>
	</g>
	<path id="XMLID_625_" class="st4" d="M78.5,73.3h-0.7c-0.1-0.4-0.2-0.7-0.4-1l0.5-0.5c0.2-0.2,0.2-0.5,0-0.7l-0.4-0.4
		c-0.2-0.2-0.5-0.2-0.7,0l-0.5,0.5c-0.3-0.2-0.7-0.3-1-0.4V70c0-0.3-0.2-0.5-0.5-0.5h-0.5c-0.3,0-0.5,0.2-0.5,0.5v0.7
		c-0.4,0.1-0.7,0.2-1,0.4l-0.5-0.5c-0.2-0.2-0.5-0.2-0.7,0L71.2,71c-0.2,0.2-0.2,0.5,0,0.7l0.5,0.5c-0.2,0.3-0.4,0.7-0.4,1h-0.7
		c-0.3,0-0.5,0.2-0.5,0.5v0.5c0,0.3,0.2,0.5,0.5,0.5h0.7c0.1,0.4,0.2,0.7,0.4,1l-0.5,0.5c-0.2,0.2-0.2,0.5,0,0.7l0.4,0.4
		c0.2,0.2,0.5,0.2,0.7,0l0.5-0.5c0.3,0.2,0.7,0.4,1,0.4v0.7c0,0.3,0.2,0.5,0.5,0.5h0.5c0.3,0,0.5-0.2,0.5-0.5v-0.7
		c0.4-0.1,0.7-0.2,1-0.4l0.5,0.5c0.2,0.2,0.5,0.2,0.7,0l0.4-0.4c0.2-0.2,0.2-0.5,0-0.7l-0.5-0.5c0.2-0.3,0.3-0.7,0.4-1h0.7
		c0.3,0,0.5-0.2,0.5-0.5v-0.5C79,73.5,78.8,73.3,78.5,73.3z M74.5,75.5c-0.8,0-1.5-0.7-1.5-1.5s0.7-1.5,1.5-1.5S76,73.2,76,74
		S75.3,75.5,74.5,75.5z"/>
</g>
<g id="XMLID_699_" class="st0">
	<path id="XMLID_624_" class="st14" d="M89.5,95H56.7V74.6h36.6v16.6C93.3,93.2,92.1,95,89.5,95z"/>
	<polyline id="XMLID_629_" class="st4" points="81.3,95.3 56.7,95.3 56.7,74.5 64.9,74.5 	"/>
	<g id="XMLID_631_" class="st7">
		<path id="XMLID_634_" class="st21" d="M65.5,83.8h-4.8v-3.6h4.8V83.8z M61,83.5h4.2v-3H61V83.5z"/>
	</g>
	<g id="XMLID_650_" class="st7">
		<path id="XMLID_652_" class="st21" d="M71.4,83.8h-4.8v-3.6h4.8C71.4,80.2,71.4,83.8,71.4,83.8z M66.9,83.5h4.2v-3h-4.2
			C66.9,80.5,66.9,83.5,66.9,83.5z"/>
	</g>
	<g id="XMLID_658_" class="st7">
		<path id="XMLID_659_" class="st21" d="M77.2,83.8h-4.8v-3.6h4.8V83.8z M72.7,83.5h4.2v-3h-4.2V83.5z"/>
	</g>
	<g id="XMLID_662_" class="st7">
		<path id="XMLID_663_" class="st21" d="M83.1,83.8h-4.8v-3.6h4.8V83.8z M78.6,83.5h4.2v-3h-4.2V83.5z"/>
	</g>
	<g id="XMLID_669_" class="st7">
		<path id="XMLID_670_" class="st21" d="M89,83.8h-4.8v-3.6H89V83.8z M84.5,83.5h4.2v-3h-4.2V83.5z"/>
	</g>
	<g id="XMLID_695_" class="st7">
		<path id="XMLID_696_" class="st21" d="M65.5,89.8h-4.8v-3.6h4.8V89.8z M61,89.5h4.2v-3H61V89.5z"/>
	</g>
	<g id="XMLID_691_" class="st7">
		<path id="XMLID_692_" class="st21" d="M71.4,89.8h-4.8v-3.6h4.8C71.4,86.2,71.4,89.8,71.4,89.8z M66.9,89.5h4.2v-3h-4.2
			C66.9,86.5,66.9,89.5,66.9,89.5z"/>
	</g>
	<g id="XMLID_687_" class="st7">
		<path id="XMLID_688_" class="st21" d="M77.2,89.8h-4.8v-3.6h4.8V89.8z M72.7,89.5h4.2v-3h-4.2V89.5z"/>
	</g>
	<g id="XMLID_683_" class="st7">
		<path id="XMLID_684_" class="st21" d="M83.1,89.8h-4.8v-3.6h4.8V89.8z M78.6,89.5h4.2v-3h-4.2V89.5z"/>
	</g>
	<g id="XMLID_679_" class="st7">
		<path id="XMLID_680_" class="st21" d="M89,89.8h-4.8v-3.6H89V89.8z M84.5,89.5h4.2v-3h-4.2V89.5z"/>
	</g>
	<line id="XMLID_630_" class="st22" x1="60.7" y1="85.1" x2="86.4" y2="85.1"/>
	<g id="XMLID_633_" class="st7">
		<line id="XMLID_649_" class="st20" x1="73.3" y1="58.9" x2="73.3" y2="63.6"/>
		<path id="XMLID_648_" class="st30" d="M66.4,84.6L73.9,65c0.1-0.4-0.1-0.6-0.4-0.6h-1.7c-0.4,0-0.7,0.3-0.8,0.7L66.4,84.6
			C66.3,85,66.3,85,66.4,84.6z"/>
		<path id="XMLID_647_" class="st30" d="M80.7,84.6L73.2,65c-0.1-0.4,0.1-0.6,0.4-0.6h1.7c0.4,0,0.8,0.3,0.8,0.7L80.7,84.6
			C80.8,85,80.8,85,80.7,84.6z"/>
		<circle id="XMLID_646_" class="st19" cx="73.3" cy="63.8" r="2.9"/>
		<circle id="XMLID_645_" class="st20" cx="73.3" cy="63.8" r="2.9"/>
		<circle id="XMLID_644_" class="st34" cx="73.3" cy="63.8" r="1.2"/>
		<rect id="XMLID_643_" x="72.3" y="54.7" class="st37" width="1.9" height="5.1"/>
		<rect id="XMLID_642_" x="72.3" y="54.7" class="st16" width="1" height="5.1"/>
		<path id="XMLID_641_" class="st20" d="M80,72.9c-1.6,1.6-3.9,2.7-6.4,2.7c-2.5,0-4.8-1-6.4-2.7"/>
	</g>
	<line id="XMLID_651_" class="st4" x1="81" y1="74.6" x2="86.4" y2="74.6"/>
	<path id="XMLID_628_" class="st27" d="M87.4,69.2c2.2-1.4,5.9-0.4,5.9,3.3v19c-0.3-3.7-4.3-4.2-5.9-2.8V69.2z"/>
	<path id="XMLID_632_" class="st25" d="M91.6,88.5c0.8,0.5,1.5,1.4,1.7,2.7l0,0V72.5c0-1.6-0.7-2.6-1.6-3.3c0,0-0.1,0-0.1,0.1
		C91.6,69.3,91.6,88.5,91.6,88.5z"/>
</g>
<g id="XMLID_702_" class="st0">
	<g id="XMLID_726_" class="st7">
		<rect id="XMLID_736_" x="55.7" y="58.2" class="st19" width="7" height="33.7"/>
		<rect id="XMLID_735_" x="55.7" y="58.2" class="st24" width="3.1" height="33.7"/>
		<line id="XMLID_734_" class="st20" x1="55.7" y1="86.7" x2="57.9" y2="86.7"/>
		<line id="XMLID_733_" class="st20" x1="55.7" y1="91.4" x2="57.9" y2="91.4"/>
		<line id="XMLID_732_" class="st20" x1="55.7" y1="82" x2="57.9" y2="82"/>
		<line id="XMLID_731_" class="st20" x1="55.7" y1="77.3" x2="57.9" y2="77.3"/>
		<line id="XMLID_730_" class="st20" x1="55.7" y1="72.7" x2="57.9" y2="72.7"/>
		<line id="XMLID_729_" class="st20" x1="55.7" y1="63.3" x2="57.9" y2="63.3"/>
		<line id="XMLID_728_" class="st20" x1="55.7" y1="68" x2="57.9" y2="68"/>
		<line id="XMLID_727_" class="st20" x1="55.7" y1="58.6" x2="57.9" y2="58.6"/>
	</g>
	<g id="XMLID_704_" class="st7">
		<path id="XMLID_714_" class="st18" d="M94.2,63.4v26.8h-2.8V63.4l1.3-3.5c0-0.1,0.1-0.1,0.2,0L94.2,63.4z"/>
		<rect id="XMLID_713_" x="91.4" y="63.4" class="st8" width="2.8" height="26.8"/>
		<rect id="XMLID_712_" x="91.4" y="63.4" class="st9" width="1.4" height="26.8"/>
		<rect id="XMLID_711_" x="91.3" y="86.9" class="st18" width="3" height="3.3"/>
		<path id="XMLID_710_" class="st20" d="M94.2,63.4v26.8h-2.8V63.4l1.3-3.5c0-0.1,0.1-0.1,0.2,0L94.2,63.4z"/>
		<line id="XMLID_709_" class="st20" x1="91.4" y1="86.9" x2="93.9" y2="86.9"/>
		<line id="XMLID_708_" class="st20" x1="91.5" y1="63.4" x2="94" y2="63.4"/>
	</g>
	<polygon id="XMLID_707_" class="st3" points="69.9,58.3 64.6,63.4 64.6,91.5 89.6,91.5 89.6,58.3 	"/>
	<polygon id="XMLID_706_" class="st14" points="69.9,58.3 64.6,63.4 69.9,63.4 	"/>
	<polyline id="XMLID_705_" class="st4" points="70.1,58.3 70.1,63.7 64.6,63.7 	"/>
	<polygon id="XMLID_701_" class="st13" points="81.4,66.7 76.3,75.4 86.4,75.4 81.4,66.7 76.3,75.4 86.4,75.4 	"/>
	<circle id="XMLID_700_" class="st14" cx="75.6" cy="76.8" r="6"/>
	<rect id="XMLID_703_" x="67.9" y="76.8" class="st13" width="7.8" height="7.8"/>
</g>
<g id="XMLID_738_" class="st0">
	<polygon id="XMLID_751_" class="st14" points="78.7,93.2 75.1,91.8 71.5,93.2 71.5,82 78.7,82 	"/>
	<polygon id="XMLID_897_" class="st38" points="78.7,93.2 75.1,91.8 71.5,93.2 71.5,82 78.7,82 	"/>
	<path id="XMLID_715_" class="st13" d="M82.6,86.9l-7.2-3.7c-0.1-0.1-0.3-0.1-0.4,0l-7.1,3.9c-0.4,0.2-0.8-0.1-0.7-0.5l1.3-8
		c0-0.2,0-0.3-0.1-0.4l-5.9-5.6c-0.3-0.3-0.1-0.8,0.3-0.8l8-1.3c0.2,0,0.3-0.1,0.4-0.3l3.5-7.3c0.2-0.4,0.7-0.4,0.9,0l3.7,7.2
		c0.1,0.1,0.2,0.2,0.4,0.3l8,1.1c0.4,0.1,0.6,0.5,0.3,0.8L82,78c-0.1,0.1-0.2,0.3-0.1,0.4l1.5,8C83.4,86.7,83,87.1,82.6,86.9z"/>
	<line id="XMLID_717_" class="st4" x1="75" y1="56.8" x2="75" y2="60"/>
	<line id="XMLID_716_" class="st4" x1="79.9" y1="57.4" x2="79.1" y2="60.6"/>
	<line id="XMLID_718_" class="st4" x1="84.5" y1="59.3" x2="82.8" y2="62.1"/>
	<line id="XMLID_719_" class="st4" x1="88.4" y1="62.4" x2="86.1" y2="64.6"/>
	<line id="XMLID_720_" class="st4" x1="91.4" y1="66.3" x2="88.6" y2="67.9"/>
	<line id="XMLID_721_" class="st4" x1="93.3" y1="70.9" x2="90.1" y2="71.7"/>
	<line id="XMLID_722_" class="st4" x1="93.9" y1="75.8" x2="90.6" y2="75.7"/>
	<line id="XMLID_723_" class="st4" x1="93.2" y1="80.7" x2="90.1" y2="79.8"/>
	<line id="XMLID_724_" class="st4" x1="91.3" y1="85.2" x2="88.5" y2="83.6"/>
	<line id="XMLID_725_" class="st4" x1="88.2" y1="89.1" x2="86" y2="86.8"/>
	<line id="XMLID_737_" class="st4" x1="84.3" y1="92.1" x2="82.7" y2="89.3"/>
	<line id="XMLID_741_" class="st4" x1="65.4" y1="91.9" x2="67" y2="89.1"/>
	<line id="XMLID_742_" class="st4" x1="61.5" y1="88.8" x2="63.8" y2="86.6"/>
	<line id="XMLID_743_" class="st4" x1="58.5" y1="84.9" x2="61.4" y2="83.3"/>
	<line id="XMLID_744_" class="st4" x1="56.7" y1="80.3" x2="59.8" y2="79.5"/>
	<line id="XMLID_745_" class="st4" x1="56.1" y1="75.4" x2="59.4" y2="75.4"/>
	<line id="XMLID_746_" class="st4" x1="56.8" y1="70.5" x2="60" y2="71.4"/>
	<line id="XMLID_747_" class="st4" x1="58.8" y1="66" x2="61.6" y2="67.6"/>
	<line id="XMLID_748_" class="st4" x1="61.9" y1="62.1" x2="64.1" y2="64.4"/>
	<line id="XMLID_749_" class="st4" x1="65.9" y1="59.1" x2="67.4" y2="62"/>
	<line id="XMLID_750_" class="st4" x1="70.5" y1="57.3" x2="71.2" y2="60.5"/>
</g>
<g id="XMLID_1211_" class="st0">
	<g id="XMLID_739_" class="st7">
		<circle id="XMLID_1000_" class="st30" cx="67.4" cy="77.2" r="12.1"/>
		<path id="XMLID_782_" class="st8" d="M78.9,73.5C79,73.5,78.8,73.5,78.9,73.5L78.9,73.5z M79,73.7C78.8,74.1,79,73.8,79,73.7
			L79,73.7z M73.9,72.5c0,0-2.2-2.1-0.6-2.2v-0.1c-0.1,0,0,0,0,0.1c0-0.1-0.3,0-0.5,0c-0.1,0,0.1-0.1,0-0.1v-0.1c0.1,0,0.1,0,0-0.1
			c0,0,0.3-0.3,0.4-0.1c0-0.1-0.1-0.1,0-0.1c0-0.1-1.2-1.3-2-1.8c0,0,0,0-0.1,0c-0.2-0.2-0.4-0.3-0.6-0.3c0.1,0,0-0.1,0-0.1
			c1.3,0.3,2-1.2,3-0.8c0,0,0.1,0,0.1,0.1l0,0l0,0c0,0,0.1,0,0.1,0.1c-0.1-0.2,3.3,2.2,3,2.8l0,0c0,0,0,0-0.1,0.1
			c0.1,0.1,0.1,0.1,0,0.1c0.2,0.1,0.2,0,0.1,0c0.4,0.1,0.3,0.4,0.3,0.6c0-0.2-1.3,0.1-0.1,0.2C75,70.4,74.6,71.8,73.9,72.5z
			 M73.2,69.8C73.3,69.8,73.3,69.7,73.2,69.8L73.2,69.8z M73.2,70C73.2,70,73.4,69.9,73.2,70L73.2,70z M72.9,70.9
			C73,70.9,72.9,70.9,72.9,70.9L72.9,70.9z M73,70.6C73.1,70.5,73.1,70.5,73,70.6L73,70.6z M73.3,70.5C73,70.5,73.3,70.5,73.3,70.5
			L73.3,70.5z M73.2,70.8C73.2,70.8,73.3,70.9,73.2,70.8L73.2,70.8z M73.3,70.6C73.5,70.8,73.1,70.4,73.3,70.6L73.3,70.6z
			 M76.6,69.8C76.6,69.8,76.7,69.8,76.6,69.8L76.6,69.8z M76.4,70.4C76.6,70.3,76.2,70.4,76.4,70.4L76.4,70.4z M76.5,70.5
			C76.7,70.4,76.3,70.5,76.5,70.5L76.5,70.5z M76.6,69.9C76.5,69.9,76.8,69.9,76.6,69.9L76.6,69.9z M77.2,70.7
			C77.2,70.7,77.1,70.7,77.2,70.7L77.2,70.7z M76.9,69.8L76.9,69.8L76.9,69.8z M76.4,70.4C76.5,70.4,76.4,70.4,76.4,70.4L76.4,70.4z
			 M76.9,69.8L76.9,69.8L76.9,69.8L76.9,69.8z M73.1,69.8C73.3,69.7,73.1,69.7,73.1,69.8L73.1,69.8z M60.1,70.6
			C60.1,70.6,60.2,70.5,60.1,70.6C60.2,70.5,60.1,70.6,60.1,70.6z M57.8,71.2C58.1,71.3,57.4,71.2,57.8,71.2L57.8,71.2z M60.3,70.5
			L60.3,70.5L60.3,70.5z M66.4,67.6C66.5,67.7,66.4,67.5,66.4,67.6L66.4,67.6z M66.6,67.7C66.7,67.7,66.7,67.7,66.6,67.7L66.6,67.7
			L66.6,67.7C66.5,67.7,66.5,67.7,66.6,67.7C66.4,67.7,66.5,67.7,66.6,67.7L66.6,67.7z M66.6,67.7C66.7,67.7,66.7,67.7,66.6,67.7
			L66.6,67.7z M66.5,67C66.6,67,66.6,67,66.5,67L66.5,67z M66.5,67C66.6,67,66.7,67,66.5,67L66.5,67z M66.6,66.9L66.6,66.9
			L66.6,66.9z M66.4,66.9C67,67.2,67.1,67.2,66.4,66.9L66.4,66.9z M66.4,66.9C66.5,66.9,66.4,66.8,66.4,66.9L66.4,66.9z M70.7,71.9
			C70.7,72,70.8,71.9,70.7,71.9L70.7,71.9z M66.4,67.4C66.4,67.4,66,67.4,66.4,67.4L66.4,67.4z M66.9,67.3l-0.1-0.1
			C66.7,67.2,66.8,67.3,66.9,67.3z M67.2,66.7C67.5,66.8,66.9,66.6,67.2,66.7L67.2,66.7z M69.8,68.1C69.7,68.1,69.7,68.1,69.8,68.1
			C69.7,68.2,69.8,68.2,69.8,68.1z M68.6,77.5L68.6,77.5L68.6,77.5z M67,67.6C67.1,67.7,66.8,67.6,67,67.6L67,67.6z M67,67.8
			C66.9,67.8,67,67.8,67,67.8L67,67.8z M66.9,67.6C66.8,67.7,66.9,67.6,66.9,67.6L66.9,67.6z M66.7,67.6
			C66.3,67.8,68,67.3,66.7,67.6L66.7,67.6z M67,67.7L67,67.7C66.8,67.6,67.1,67.7,67,67.7z M71.9,66.8c-0.1,0-0.2,0-0.3,0
			C72,66.9,71.6,66.8,71.9,66.8z M69.2,66.5L69.2,66.5L69.2,66.5z M68.4,66.3C68.3,66.3,68.3,66.3,68.4,66.3
			C68.3,66.3,68.4,66.3,68.4,66.3z M69.9,66.7L69.9,66.7L69.9,66.7z M69.9,66.7L69.9,66.7L69.9,66.7L69.9,66.7L69.9,66.7z
			 M67.6,66.7c-0.3-0.5,1.4,0,2,0.3c0-0.1-0.3-0.2-0.1-0.2c-0.1,0-0.1-0.1,0-0.1c-0.1,0-0.1,0,0.1-0.1c-0.7,0.2-0.9-0.4-1.1-0.4
			c0.1,0,0.1,0,0-0.1c0,0,0,0-0.1-0.1c0.2,0.1,4.2-0.4,4.1,0.4c0,0,0,0,0,0.1c0,0.2-0.9,0.1-1,0.1c0.1,0,0.1,0,0.2,0.1
			c-0.6,0-0.9,0.4-1.5,0.4c-0.1,0,0.2,0.1,0.1,0c0.5,0.3-0.8,1-1.8,0.6c0,0,0-0.1,0-0.2c0-0.3,0.5,0,0.7-0.1c-0.1,0-0.1,0-0.1,0
			c-0.1,0,0,0,0.1-0.1c-0.1,0-0.4-0.1-0.3-0.2C68.2,67.4,67.9,67.2,67.6,66.7L67.6,66.7L67.6,66.7z M70.4,66.2
			C70.4,66.2,70.3,66.3,70.4,66.2L70.4,66.2z M69.1,66.3C69.1,66.2,69.1,66.3,69.1,66.3L69.1,66.3z M69.2,66.5
			C69.1,66.5,69.1,66.5,69.2,66.5C68.8,66.5,69,66.7,69.2,66.5z M70.1,67.3C70,67.3,70,67.3,70.1,67.3L70.1,67.3z M70,67.3L70,67.3
			L70,67.3z M69.9,66.7C69.9,66.8,69.9,66.8,69.9,66.7C70,66.7,70,66.7,69.9,66.7L69.9,66.7L69.9,66.7L69.9,66.7c0,0-0.1,0-0.2,0.1
			C69.5,66.9,69.8,66.8,69.9,66.7z M69.5,67.7C69.5,67.7,69.4,67.7,69.5,67.7L69.5,67.7z M69.1,67.6L69.1,67.6L69.1,67.6z
			 M69.1,67.4L69.1,67.4L69.1,67.4z M69,67.2C68.9,67.2,69.1,67.2,69,67.2L69,67.2z M69.8,66.8C69.7,66.8,69.8,66.8,69.8,66.8
			L69.8,66.8z M68.2,67.6L68.2,67.6C68.3,67.6,68.6,67.5,68.2,67.6z M66.7,69.6C66.9,69.6,66.6,69.5,66.7,69.6L66.7,69.6z
			 M68.7,70.4c0,0,0,0.1,0.1,0.1C68.9,70.5,68.7,70.5,68.7,70.4z M65.2,67.1C65.2,67.1,65,67.1,65.2,67.1L65.2,67.1z M70.5,71.5
			C70.5,71.4,70.4,71.4,70.5,71.5C70.4,71.4,70.5,71.5,70.5,71.5z M65.4,67.2C64.9,67.1,66.1,67.4,65.4,67.2L65.4,67.2z M66.5,69.6
			C66.5,69.6,66.5,69.5,66.5,69.6C66.4,69.6,66.5,69.6,66.5,69.6z M70.7,67.9h0.1C70.8,67.9,70.7,67.9,70.7,67.9z M69.5,69.9
			C69.5,69.9,69.6,69.9,69.5,69.9C69.6,69.8,69.7,69.8,69.5,69.9L69.5,69.9C69.6,69.8,69.6,69.8,69.5,69.9L69.5,69.9L69.5,69.9
			L69.5,69.9z M69.2,78.1C69.2,78.1,69.1,78.1,69.2,78.1C69.1,78.1,69.2,78.1,69.2,78.1z M79,74.3C79.1,74.3,79.1,74.2,79,74.3
			C79,74.2,79,74.3,79,74.3z M78.9,73.8C78.9,73.7,78.9,73.8,78.9,73.8L78.9,73.8z M68.6,74.3h-0.2C68.4,74.3,68.5,74.4,68.6,74.3z
			 M67.5,88.4C67.5,88.3,67.5,88.3,67.5,88.4C67.6,88.4,67.5,88.3,67.5,88.4z M67.8,87.1C67.8,87.2,67.9,87.3,67.8,87.1L67.8,87.1z
			 M67.7,88.6C67.7,88.6,67.5,88.5,67.7,88.6C67.6,88.6,67.7,88.6,67.7,88.6z M70,78.6C70.4,78.7,70,78.6,70,78.6L70,78.6z M70,78.6
			C69.9,78.6,70,78.6,70,78.6L70,78.6z M68.8,78.2C67.4,77.4,68.1,77.9,68.8,78.2L68.8,78.2z M68.8,78.2
			C68.9,78.2,68.8,78.2,68.8,78.2L68.8,78.2z M67.9,77.7C68.2,77.6,68,77.6,67.9,77.7L67.9,77.7z M78.2,74.5
			C79.8,74.4,78.2,74.5,78.2,74.5L78.2,74.5z M78.8,73.6C78.9,73.7,78.9,73.6,78.8,73.6L78.8,73.6z M79,74.4
			C79.1,74.9,79.2,75.2,79,74.4L79,74.4z M77.1,69.8C77.1,69.9,77.1,69.8,77.1,69.8L77.1,69.8z M79.3,77.2c-0.7,0.6,0.2-1,0.1-2
			c-0.1,0.1-0.2-0.1-0.3-0.1s-0.2,0.1-0.2,0.1c0,0.8-0.8,2-2,3.5c-0.3,0.4-0.2,1-0.3,1.4C75.4,83.9,80.5,76.1,79.3,77.2z M60.1,70.5
			l0.1-0.1C60.2,70.5,60.1,70.5,60.1,70.5z M58.2,76.7L58.2,76.7C58.4,76.8,58.2,76.7,58.2,76.7z M59.5,70.8
			C59.6,71,59.4,70.6,59.5,70.8L59.5,70.8z M57.9,71.2C58.1,71.2,57.4,71.1,57.9,71.2L57.9,71.2z M57.5,71.3
			C57.5,71.4,57.5,71.5,57.5,71.3L57.5,71.3z M57.5,71.3L57.5,71.3L57.5,71.3z M62.2,72.3C62.1,72.2,62.2,72.3,62.2,72.3L62.2,72.3z
			 M62.2,72.3C61.7,72.1,61.9,72.2,62.2,72.3L62.2,72.3z M66.5,67.9C66.3,67.9,66.3,68,66.5,67.9L66.5,67.9z M70.8,71.8
			C70.8,71.8,70.7,71.8,70.8,71.8C70.7,71.9,70.8,71.9,70.8,71.8z M66.8,67.2c-0.1,0,0,0.1,0.1,0.1C66.9,67.2,66.8,67.1,66.8,67.2z
			 M71.2,71.7C71.3,71.5,71.1,72,71.2,71.7L71.2,71.7z M69.8,68.1C69.8,68.1,69.7,68.1,69.8,68.1C69.7,68.1,69.8,68.1,69.8,68.1z
			 M67.4,67C68,67.6,67.8,67.4,67.4,67L67.4,67z M68.3,67.7C68.3,67.8,68.4,67.7,68.3,67.7C68.3,67.6,68.3,67.7,68.3,67.7z
			 M66.7,69.4C66.8,69.4,66.6,69.5,66.7,69.4L66.7,69.4z M67.7,67.8C67.6,67.8,67.7,67.9,67.7,67.8C67.7,67.9,67.7,67.8,67.7,67.8z
			 M66.7,68.4c-0.7,0.3,0.9,0.6,0.6,0.3C67.1,68.3,67.1,68.3,66.7,68.4z M69.2,71.2L69.2,71.2C69.1,71.2,69.4,71.3,69.2,71.2z
			 M67.8,68L67.8,68C67.4,67.6,67.9,68.1,67.8,68z M68.7,70.5C68.7,70.5,68.6,70.4,68.7,70.5C68.6,70.4,68.6,70.5,68.7,70.5z
			 M68.9,71.1C68.9,71.2,68.9,71.2,68.9,71.1C68.7,71.3,68.7,71.3,68.9,71.1C68.8,71.3,68.8,71.3,68.9,71.1c0,0.1,0,0,0.2-0.1
			C69.1,71,68.9,71.1,68.9,71.1C68.9,71.2,68.9,71.1,68.9,71.1z M68.2,67.9c0.2,0.1,0.4,0.2,1.2,0.3C69.1,68.1,68.7,68,68.2,67.9
			C68.3,67.9,68.3,67.9,68.2,67.9L68.2,67.9L68.2,67.9L68.2,67.9L68.2,67.9z M69.7,68.2C69.7,68.2,69.6,68.2,69.7,68.2L69.7,68.2z
			 M67.4,67.6c0.3,0.1,0.5,0.2,0.7,0.3c-0.2-0.1-0.4-0.1-0.6-0.1C67.6,67.7,67.5,67.7,67.4,67.6C67.4,67.6,67.5,67.6,67.4,67.6z
			 M67.8,67.8C68,67.8,67.8,67.8,67.8,67.8L67.8,67.8z M69.4,68.2c0.1,0,0.2,0,0.2,0S69.5,68.2,69.4,68.2z M65,67.4
			C64.9,67.4,65,67.4,65,67.4L65,67.4z M66.2,67.6c-0.5-0.3-0.7-0.1-1.2-0.2h-0.1L64,67.3c0.6,0.1,0.9,0.1,0.9,0.1
			C63.6,67.6,66.4,67.7,66.2,67.6z M69.6,71.1C69.5,71.1,69.4,71.3,69.6,71.1L69.6,71.1z M65.1,67.2C65,67.2,65.1,67.3,65.1,67.2
			C65.2,67.3,65.2,67.2,65.1,67.2z M70.8,67.9h-0.1C70.7,67.8,70.8,67.9,70.8,67.9z M69.5,69.9L69.5,69.9L69.5,69.9z M69.2,78
			L69.2,78C69.1,78,69.2,78.1,69.2,78z M72.5,74.4C72.4,74.4,72.5,74.3,72.5,74.4L72.5,74.4z M72.4,74.4
			C72.4,74.4,72.5,74.4,72.4,74.4C72.5,74.3,72.5,74.4,72.4,74.4z M76.9,72c0,0.1,0.9,0.2,1.1,0c0.5-0.6-0.7-0.4-0.8-0.4
			C76.6,71.2,76.9,71.9,76.9,72z M79.1,74.2C79.1,74.2,79.1,74.1,79.1,74.2L79.1,74.2z M79,73.6C79,73.6,78.9,73.6,79,73.6L79,73.6z
			 M78.9,73.7C79,73.7,79,73.7,78.9,73.7L78.9,73.7z M67.8,87.1C67.7,87,68,87.1,67.8,87.1L67.8,87.1z M58.1,71.1
			C58.2,71.1,58.2,71.1,58.1,71.1L58.1,71.1z M71,74.5L71,74.5L71,74.5z M62.7,68.8C62.8,68.7,62.5,68.9,62.7,68.8L62.7,68.8z
			 M71.3,74.6c-0.1-0.1-0.2-0.1-0.3-0.1C71.1,74.6,71.1,74.7,71.3,74.6z M69.4,69.7C69.5,69.7,69.1,69.7,69.4,69.7
			C69.3,69.7,69.3,69.7,69.4,69.7z M73.8,82.3c0.8,2.3-5.8,4.4-5.4,6.3c-0.5,0-0.4,0.1-0.8-0.2c0.1,0.1,0-0.2,0-0.4l0,0
			c0,0,0-0.1,0,0l0.1-0.1c0,0-0.1-0.1,0-0.1c0-0.1-0.1,0-0.1,0l0,0c0,0.1,0,0.1,0,0.1c0-0.1,0-0.1,0,0l0,0c0-0.1,0-0.1,0-0.1l0,0
			c-0.3-0.2,0.7-0.7,0.5-1.2c0.8,0.1-0.4-7.2,0.1-7.1c-0.7-0.2-3.8-1.8-4-3.4c0,0-0.1-0.5-0.3-0.4c0,0.3,0.7,1.2,0.5,1.3
			c0.1,0-1.8-4.3-2.3-5.5v0.1c0,0,0,0,0,0.1c0,0-0.1-0.2-0.1,0v-0.1c0.1,0-0.1-0.5,0-0.6c-0.1,0.1,0,0.3-0.1,0.4
			c0.1-0.1,0-0.4-0.1-0.5l0,0V71l0,0l0,0l0,0c0,0.1,0,0.3,0,0.4c-0.3-0.5-1.9-1.3-2-1.2c-0.4,0.2-0.9,1.1-1.4,0.9c0,0,0-0.1-0.1,0
			l0,0c0,0-0.1,0-0.1,0.1c0.1,0,0.6-0.4,0.7-0.6c0,0,0,0,0-0.1c-0.1,0-0.2-0.1-0.1,0c-0.6-0.2-1.4-0.5-0.2-1.2
			c0.3,0.2,2.1-0.3,3.9-0.5c0,0,0,0.2,0,0l0,0c1.3-0.1,2.6,0,3.2,0.9v0.1c0,0,0-0.1,0,0c-0.1-0.2-0.2-0.5,0.3-0.4
			c-0.2-0.1-2.5-0.6-0.9-0.4c-0.3-0.1-1.2-0.4-0.5-0.7c-0.7,0.2-0.5,0.2-1.2,0.1c0.1,0,0.1-0.1,0-0.1c0.1,0,0.3-0.5,0.3-0.5
			c0.1,0,0.1,0,0-0.1c0.5,0,2.3,0.6,2.6,0.6c0,0.2-0.1,1,0.4,1c-0.4,0,0.2,0.2-0.7,0.1c0.8,0.6,0.9,0.1,0.9,0.1s0,0,0-0.1
			c0.1,0,0.2,0,0.2-0.1c0.3-0.1,0.2,0.7,0.2,0.6h0.1c-0.1-0.1,0.1-0.2,0.3-0.3c-0.5,0.2,0.1-1.2,0-1.3c0.1,0.1,0-0.1,0-0.1
			c0.1,0,0.6,0.1,0.6,0.1s-0.1,0,0,0.1c-0.2,1-0.4,0.7,0.1,1.4c-0.6,0.6,0.3,2,0.5,3.1c0.1,0,0.2,0,0,0c0,0.1,0,0.1,0,0.2l0,0
			c0,0.1,0,0.1,0,0.2c0.1,0,0.1,0,0.1,0.1c0.1-0.1,0,0,0.1,0c-0.1-0.3,0-0.6,0.1-0.9c0,0-0.1-0.1,0,0l0,0c0.2-0.3,0.4-0.7,0.2-1.1
			c0,0,2.1,1.3,1.8,0.6c0.2,0.6,1.3,2.3,1.2,2.4c-0.1,0.1,0,0.1,0,0.1l0,0l0,0l0,0l-0.1,0.1c-0.1,0-0.1,0-0.2,0.1c0,0,0.2-0.1,0-0.1
			l-0.5-0.1c-0.2-0.3,0.2,0.1,0-0.1c0,0,0.3-0.4,0.4-0.5c-0.3,0.1-0.6,0-0.9,0c0,0,0.1,0,0.1,0.1c0.3,0.2-0.1-0.1-0.1-0.1
			c-0.3,0-0.6,0.1-0.8,0.2c0.6-0.4,0.6,0.1,0.7,0.4l0,0l0,0l0,0c-1.3-0.3-1.6,2.3-2.7,3c-0.4,0.3-0.7,0.3-0.9,0.1c0,0.1,0,0.2,0,0.3
			c0.4,2.1,1,0.6,1.9,1.5c0,0-0.3,0.4-0.1,0.4C69.6,79.7,73.2,80.5,73.8,82.3L73.8,82.3C73.8,82.4,73.8,82.4,73.8,82.3z M70.2,74.1
			C70.3,74.1,70.2,74.1,70.2,74.1L70.2,74.1z M67.9,74.7C67.9,74.6,67.9,74.7,67.9,74.7L67.9,74.7z M68.5,74.8
			C67.9,75,69.2,74.6,68.5,74.8L68.5,74.8z M69,76C69.1,76,69,76,69,76L69,76z M69,75.9C69,75.9,69.1,75.9,69,75.9L69,75.9z
			 M69.2,75.4C69.3,75.4,69.3,75.3,69.2,75.4L69.2,75.4z M69.1,75.7C69.2,75.4,69.2,75.5,69.1,75.7L69.1,75.7z M68.9,74.7
			C68.8,74.7,68.8,74.8,68.9,74.7L68.9,74.7z M68.4,74.2C67.7,74,69.4,74.8,68.4,74.2L68.4,74.2z M67.6,70.8
			C67.5,70.8,67.7,70.8,67.6,70.8L67.6,70.8z M61.7,71.1L61.7,71.1L61.7,71.1L61.7,71.1L61.7,71.1L61.7,71.1z M62,71.4L62,71.4
			L62,71.4L62,71.4z M62,71.5L62,71.5L62,71.5L62,71.5z M62.8,72.6C62.8,72.7,62.9,72.7,62.8,72.6L62.8,72.6z M63.2,73.1
			C63.4,73.3,62.7,72.8,63.2,73.1L63.2,73.1z M64.9,70.8C64.9,70.8,63.9,71.1,64.9,70.8L64.9,70.8z M65.6,69.7
			C65.6,69.7,65.5,69.7,65.6,69.7L65.6,69.7z M65.7,69.5C65.6,69.5,65.8,69.5,65.7,69.5L65.7,69.5z M66.7,72.8L66.7,72.8
			C66.3,72.1,66.8,73.1,66.7,72.8z M66.7,73.1C66.7,72.8,66.6,73.3,66.7,73.1L66.7,73.1z M68.2,79.5C68.3,79.6,68.2,79.5,68.2,79.5
			L68.2,79.5z M67.6,87.6L67.6,87.6C67.7,87.6,67.7,87.6,67.6,87.6z M67.7,88.2C67.7,88.1,67.6,88.1,67.7,88.2L67.7,88.2z
			 M67.8,88.4C67.8,88.4,67.8,88.2,67.8,88.4L67.8,88.4z M68,88.6C68,88.6,67.9,88.5,68,88.6L68,88.6z M71.7,81.4
			C71.7,81.4,71.8,81.4,71.7,81.4L71.7,81.4z M71.8,81.3C71.6,81.3,72,81.3,71.8,81.3L71.8,81.3z M67.5,88C67.6,88,67.6,88,67.5,88
			C67.6,88.1,67.6,88.1,67.5,88C67.6,88.1,67.6,88,67.5,88C67.6,88,67.6,88,67.5,88z M66.2,68.2C66.2,68.2,66.2,68.3,66.2,68.2
			C66.3,68.3,66.3,68.3,66.2,68.2z M62.4,68.9L62.4,68.9L62.4,68.9z M62.6,68.8C62.5,68.7,62.4,68.8,62.6,68.8L62.6,68.8z
			 M71.8,70.7L71.8,70.7L71.8,70.7z M69.5,68.9L69.5,68.9L69.5,68.9z M69,69.6c-0.1,0-0.2,0-0.3,0.1c-0.4-0.4-0.7-0.8,0.2-1.1
			c0,0,0,0,0.1,0c-0.2,0.1-0.3,0.2-0.2,0.4c0.6,0,3,0.3,3.1,1.6v0.1c0,0-0.2,0.1-0.1,0.1c-0.2,0,0,0-0.1,0c0,0-0.3,0.1-0.1,0.1
			C71.4,71,71,70.6,71,70.7v0.1c0.4,0.1,0.3,0.7,0.3,0.7c-0.1-0.1-0.1,0,0,0.1c-0.4-0.2-0.6-0.2-0.2,0.1c-0.2-0.2-1.5-0.7-1.5-0.8
			c-0.1-0.2,0.2-0.4,0.3-0.6c-0.2,0-0.1,0,0,0c0.1-0.1,0.2-0.3,0-0.4l0,0l0,0c-0.1-0.1-0.3-0.2-0.7-0.3C69.3,69.6,69,69.6,69,69.6z
			 M70.6,69.7C70.6,69.6,70.6,69.7,70.6,69.7L70.6,69.7z M70.8,71.3C70.8,71.4,70.8,71.2,70.8,71.3L70.8,71.3z M70.6,69.6
			C70.7,69.6,70.6,69.6,70.6,69.6L70.6,69.6z M70.5,69.5L70.5,69.5C70.6,69.5,70.5,69.5,70.5,69.5z M68.8,69.5
			C68.6,69.5,68.9,69.5,68.8,69.5L68.8,69.5z M68.8,69.2C68.7,69.1,69,69.2,68.8,69.2L68.8,69.2z M71.5,74.7
			C71.6,74.6,71.4,74.6,71.5,74.7C71.6,74.6,71.4,74.6,71.5,74.7c0-0.1,0-0.1,0-0.2C71.5,74.6,71.4,74.6,71.5,74.7
			C71.3,74.6,71.4,74.6,71.5,74.7C71.3,74.6,71.4,74.7,71.5,74.7z M68.8,68.6C68.8,68.6,68.9,68.6,68.8,68.6
			C68.9,68.6,68.8,68.6,68.8,68.6z M68.5,70C68.4,70.1,68.6,69.7,68.5,70c0.1-0.2,0.2-0.2,0.3-0.3l-0.1-0.1
			c-0.2,0.1-0.3,0.1-0.4,0.2C68.3,69.9,68.4,69.9,68.5,70C68.4,70.1,68.4,70.1,68.5,70z M69.5,68.9C70,69.3,69.5,68.9,69.5,68.9
			L69.5,68.9z M71,74.5C70.9,74.5,71,74.6,71,74.5L71,74.5z M70.1,69.2C70.1,69.2,70,69.3,70.1,69.2L70.1,69.2z M68.4,74.2
			C68.4,74.2,68.5,74.2,68.4,74.2L68.4,74.2z M68,70.4C68.2,70.6,68.1,70.4,68,70.4L68,70.4z M70.5,69.5L70.5,69.5L70.5,69.5z
			 M66.7,72.8L66.7,72.8C66.6,72.8,66.7,72.8,66.7,72.8z M70.2,78.6C70.2,78.6,70.1,78.5,70.2,78.6L70.2,78.6z M70.2,78.6
			C70,78.5,69.9,78.4,70.2,78.6L70.2,78.6z M69.7,78.4C69.7,78.4,69.8,78.4,69.7,78.4L69.7,78.4z M69.7,78.4
			C69.3,78.3,68.6,78.1,69.7,78.4L69.7,78.4z M68.7,78.4C68.8,78.5,68.3,78.1,68.7,78.4L68.7,78.4z M73,69.8L73,69.8L73,69.8z
			 M70.9,67.8L70.9,67.8C71,67.9,70.9,67.8,70.9,67.8z M78.9,73.5C78.9,73.5,78.8,73.6,78.9,73.5L78.9,73.5z"/>
		<circle id="XMLID_1003_" class="st20" cx="67.4" cy="77.2" r="12.1"/>
	</g>
	<g id="XMLID_1205_" class="st7">
		<g>
			<defs>
				<circle id="SVGID_1_" cx="73.7" cy="69.4" r="8.7"/>
			</defs>
			<clipPath id="SVGID_2_">
				<use xlink:href="#SVGID_1_"  style="overflow:visible;"/>
			</clipPath>
			<g id="XMLID_1004_" class="st39">
				<path id="XMLID_1201_" class="st30" d="M81.5,76.1c0.1,8.3-6.5,15.2-14.9,15.4c-8.3,0.1-15.2-6.5-15.4-14.9
					c-0.1-8.3,6.5-15.2,14.9-15.4C74.4,61.1,81.3,67.7,81.5,76.1z"/>
				<path id="XMLID_1006_" class="st8" d="M80.7,71.7C80.9,71.7,80.7,71.7,80.7,71.7L80.7,71.7z M80.8,72C80.6,72.4,80.8,72,80.8,72
					L80.8,72z M74.6,70.4c0.1,0-2.7-2.6-0.7-2.7c0,0,0-0.1,0-0.2c-0.1,0,0,0,0,0.1c0-0.2-0.4,0-0.7,0c-0.1,0,0.1-0.1,0-0.1v-0.1
					c0.1,0,0.1,0,0-0.1c0,0,0.4-0.3,0.5-0.1c0-0.1-0.1-0.1,0-0.1c0-0.2-1.4-1.6-2.5-2.3c0,0,0,0.1-0.1-0.1c-0.3-0.2-0.5-0.3-0.7-0.4
					c0.1,0,0-0.1,0-0.1c1.6,0.4,2.5-1.5,3.8-1c0,0,0.1,0,0.1,0.1c0,0,0,0,0.1,0l0,0l0.1,0.1c-0.1-0.2,4.2,2.8,3.8,3.5l0,0
					c0,0,0,0.1-0.1,0.1c0.1,0.1,0.1,0.1,0,0.1c0.3,0.1,0.2,0,0.1,0c0.5,0.1,0.4,0.5,0.4,0.8c0-0.2-1.6,0.1-0.1,0.3
					C75.9,67.8,75.4,69.6,74.6,70.4z M73.7,67L73.7,67L73.7,67z M73.7,67.2C73.7,67.2,73.9,67.2,73.7,67.2L73.7,67.2z M73.3,68.5
					C73.4,68.4,73.2,68.4,73.3,68.5L73.3,68.5z M73.4,68C73.5,68,73.5,67.9,73.4,68L73.4,68z M73.7,67.9
					C73.4,67.9,73.8,67.9,73.7,67.9L73.7,67.9z M73.6,68.3C73.6,68.3,73.7,68.4,73.6,68.3L73.6,68.3z M73.7,68.1
					C74,68.3,73.5,67.8,73.7,68.1L73.7,68.1z M77.9,67C77.9,67,78,67.1,77.9,67L77.9,67z M77.7,67.8C77.9,67.7,77.4,67.8,77.7,67.8
					L77.7,67.8z M77.8,67.9C78,67.8,77.5,67.9,77.8,67.9L77.8,67.9z M77.9,67.1C77.8,67.1,78.2,67.1,77.9,67.1L77.9,67.1z
					 M78.6,68.1L78.6,68.1L78.6,68.1z M78.3,67.1L78.3,67.1L78.3,67.1z M77.7,67.8C77.7,67.8,77.6,67.8,77.7,67.8L77.7,67.8z
					 M78.3,67L78.3,67L78.3,67L78.3,67z M73.6,67C73.7,67,73.5,67,73.6,67L73.6,67z M57.2,68.1L57.2,68.1
					C57.3,67.9,57.2,68,57.2,68.1z M54.4,68.8C54.7,68.9,53.8,68.8,54.4,68.8L54.4,68.8z M57.4,67.9C57.4,67.9,57.5,68,57.4,67.9
					C57.5,67.9,57.5,67.9,57.4,67.9z M65.1,64.3C65.3,64.4,65.1,64.1,65.1,64.3L65.1,64.3z M65.4,64.4
					C65.5,64.4,65.4,64.4,65.4,64.4L65.4,64.4L65.4,64.4C65.3,64.3,65.2,64.3,65.4,64.4C65.1,64.5,65.2,64.5,65.4,64.4
					C65.3,64.4,65.4,64.4,65.4,64.4z M65.4,64.4C65.4,64.4,65.5,64.4,65.4,64.4L65.4,64.4z M65.3,63.5
					C65.4,63.6,65.3,63.5,65.3,63.5L65.3,63.5z M65.3,63.5C65.3,63.6,65.5,63.5,65.3,63.5L65.3,63.5z M65.4,63.5
					C65.3,63.5,65.4,63.5,65.4,63.5L65.4,63.5z M65.1,63.4C65.9,63.7,66,63.8,65.1,63.4L65.1,63.4z M65.1,63.4
					C65.2,63.4,65.1,63.3,65.1,63.4L65.1,63.4z M70.5,69.7C70.5,69.7,70.6,69.7,70.5,69.7C70.6,69.6,70.5,69.7,70.5,69.7z M65.1,64
					C65.1,64,64.7,64,65.1,64L65.1,64z M65.7,63.9c0.1,0-0.1-0.1-0.2-0.1C65.5,63.8,65.6,63.9,65.7,63.9z M66.1,63.2
					C66.5,63.2,65.8,63.1,66.1,63.2L66.1,63.2z M69.3,64.9C69.3,64.9,69.2,65,69.3,64.9C69.3,65,69.4,65,69.3,64.9z M67.9,76.7
					C67.8,76.7,67.9,76.7,67.9,76.7L67.9,76.7z M65.9,64.3C66,64.4,65.6,64.2,65.9,64.3L65.9,64.3z M65.9,64.5
					C65.8,64.5,65.9,64.6,65.9,64.5L65.9,64.5z M65.7,64.3C65.7,64.3,65.8,64.3,65.7,64.3L65.7,64.3z M65.5,64.3
					C65,64.5,67.1,63.9,65.5,64.3L65.5,64.3z M65.9,64.4L65.9,64.4C65.6,64.3,66,64.4,65.9,64.4z M72,63.3c-0.2,0-0.3,0-0.4,0
					C72.1,63.5,71.6,63.3,72,63.3z M68.6,62.9L68.6,62.9L68.6,62.9z M67.6,62.7C67.5,62.7,67.5,62.7,67.6,62.7L67.6,62.7z
					 M69.5,63.1L69.5,63.1C69.5,63.2,69.5,63.1,69.5,63.1z M69.5,63.2L69.5,63.2L69.5,63.2L69.5,63.2L69.5,63.2z M66.6,63.2
					c-0.3-0.6,1.8-0.1,2.5,0.4c0-0.1-0.4-0.2-0.1-0.2c-0.1-0.1-0.1-0.1,0-0.1c-0.2,0-0.1,0,0.1-0.1c-0.9,0.2-1.1-0.4-1.4-0.4
					c0.2,0,0.1,0,0-0.1c0.1,0,0,0-0.1-0.1c0.2,0.1,5.2-0.6,5.1,0.5c0,0,0,0,0,0.1c0,0.2-1.1,0.1-1.3,0.1c0.1,0,0.2,0.1,0.2,0.1
					c-0.8,0-1.1,0.6-1.9,0.6c-0.1,0,0.2,0.1,0.1,0c0.6,0.3-1,1.3-2.2,0.7v-0.2c0.1-0.4,0.6,0,0.8-0.2c-0.1,0-0.1,0-0.1,0
					c-0.1,0,0,0,0.1-0.1c-0.1,0-0.5-0.2-0.4-0.3C67.4,64,66.9,63.7,66.6,63.2L66.6,63.2C66.6,63.1,66.6,63.2,66.6,63.2z M70.1,62.6
					C70.1,62.6,70,62.6,70.1,62.6L70.1,62.6z M68.6,62.6C68.5,62.6,68.5,62.6,68.6,62.6L68.6,62.6z M68.6,62.9
					C68.5,62.9,68.5,62.9,68.6,62.9C68.1,63,68.4,63.1,68.6,62.9z M69.7,63.9C69.6,63.9,69.7,63.9,69.7,63.9L69.7,63.9z M69.6,63.9
					C69.7,63.9,69.6,63.9,69.6,63.9L69.6,63.9z M69.5,63.2C69.6,63.3,69.6,63.2,69.5,63.2C69.6,63.2,69.6,63.1,69.5,63.2
					C69.5,63.1,69.5,63.1,69.5,63.2C69.5,63.1,69.5,63.1,69.5,63.2L69.5,63.2c0,0-0.1,0-0.2,0.1C69,63.4,69.4,63.3,69.5,63.2z
					 M68.9,64.4C69.1,64.4,68.9,64.4,68.9,64.4L68.9,64.4z M68.5,64.3L68.5,64.3L68.5,64.3z M68.5,64C68.5,64.1,68.5,64,68.5,64
					L68.5,64z M68.4,63.8C68.3,63.8,68.5,63.7,68.4,63.8L68.4,63.8z M69.3,63.3C69.3,63.3,69.4,63.3,69.3,63.3L69.3,63.3z
					 M67.4,64.3L67.4,64.3C67.5,64.3,67.8,64.2,67.4,64.3z M65.5,66.7C65.7,66.7,65.4,66.7,65.5,66.7L65.5,66.7z M68,67.8
					C68,67.8,68,68,68,67.8C68.2,68,68,67.9,68,67.8z M63.6,63.6C63.6,63.6,63.4,63.6,63.6,63.6L63.6,63.6z M70.2,69.1L70.2,69.1
					L70.2,69.1z M63.9,63.8C63.2,63.6,64.8,64.1,63.9,63.8L63.9,63.8z M65.2,66.8C65.2,66.8,65.2,66.7,65.2,66.8
					C65.2,66.7,65.2,66.8,65.2,66.8z M70.5,64.7L70.5,64.7C70.6,64.7,70.5,64.6,70.5,64.7z M69,67.2C69,67.2,69.1,67.2,69,67.2
					C69.2,67.1,69.2,67.1,69,67.2L69,67.2C69.1,67.1,69.1,67.1,69,67.2C69,67.1,69,67.1,69,67.2C69,67.1,69,67.1,69,67.2
					C69,67.1,69,67.2,69,67.2z M68.6,77.4L68.6,77.4C68.6,77.4,68.6,77.5,68.6,77.4z M80.9,72.6C81,72.6,81,72.6,80.9,72.6
					L80.9,72.6z M80.8,72C80.8,72,80.8,72.1,80.8,72L80.8,72z M67.8,72.7c0,0-0.2-0.1-0.2,0C67.6,72.6,67.8,72.7,67.8,72.7z
					 M66.5,90.3C66.5,90.2,66.5,90.2,66.5,90.3C66.6,90.3,66.5,90.2,66.5,90.3z M66.8,88.7C66.9,88.8,67,88.9,66.8,88.7L66.8,88.7z
					 M66.8,90.6l-0.2-0.1C66.6,90.5,66.8,90.6,66.8,90.6z M69.6,78.1C70.1,78.2,69.6,78.1,69.6,78.1L69.6,78.1z M69.6,78.1
					C69.5,78.1,69.7,78.1,69.6,78.1L69.6,78.1z M68.2,77.6C66.3,76.6,67.2,77.1,68.2,77.6L68.2,77.6z M68.2,77.6
					C68.2,77.6,68.2,77.5,68.2,77.6L68.2,77.6z M67,76.9C67.4,76.8,67.1,76.8,67,76.9L67,76.9z M79.9,73C81.8,72.7,79.9,73,79.9,73
					L79.9,73z M80.7,71.8C80.8,71.9,80.7,71.9,80.7,71.8L80.7,71.8z M80.9,72.8C81,73.4,81.2,73.8,80.9,72.8L80.9,72.8z M78.5,67.1
					L78.5,67.1L78.5,67.1z M81.2,76.3c-0.9,0.7,0.3-1.2,0.1-2.5c-0.1,0.1-0.2-0.1-0.3-0.1s-0.3,0.1-0.2,0.1c0,1-0.9,2.6-2.5,4.3
					c-0.4,0.5-0.3,1.3-0.4,1.8C76.3,84.7,82.8,74.9,81.2,76.3z M57.2,68L57.2,68C57.4,67.9,57.2,67.9,57.2,68z M54.9,75.7L54.9,75.7
					C55.2,75.8,54.9,75.6,54.9,75.7z M56.5,68.3C56.6,68.5,56.3,68,56.5,68.3L56.5,68.3z M54.4,68.8C54.7,68.8,53.8,68.7,54.4,68.8
					L54.4,68.8z M54,69C54,69.1,54,69.2,54,69L54,69z M54,69C54,69,54,68.9,54,69L54,69z M59.8,70.1C59.8,70.1,59.9,70.1,59.8,70.1
					L59.8,70.1z M59.8,70.1C59.3,69.9,59.5,70,59.8,70.1L59.8,70.1z M65.2,64.6C65.1,64.7,65,64.7,65.2,64.6L65.2,64.6z M70.6,69.6
					C70.6,69.6,70.5,69.6,70.6,69.6C70.5,69.6,70.6,69.6,70.6,69.6z M65.6,63.7c-0.1,0,0,0.1,0.2,0.1C65.8,63.8,65.6,63.7,65.6,63.7
					z M71.2,69.4C71.2,69.1,71,69.8,71.2,69.4L71.2,69.4z M69.3,64.9C69.3,64.9,69.2,64.9,69.3,64.9C69.3,64.9,69.4,64.9,69.3,64.9z
					 M66.3,63.6C67.1,64.3,66.8,64,66.3,63.6L66.3,63.6z M67.5,64.5C67.5,64.5,67.6,64.4,67.5,64.5C67.5,64.3,67.5,64.4,67.5,64.5z
					 M65.5,66.6C65.7,66.5,65.4,66.6,65.5,66.6L65.5,66.6z M66.7,64.6L66.7,64.6C66.8,64.6,66.7,64.6,66.7,64.6z M65.5,65.3
					c-0.9,0.3,1.1,0.8,0.8,0.3C66.1,65.2,65.9,65.1,65.5,65.3z M68.7,68.8L68.7,68.8C68.5,68.8,68.9,68.9,68.7,68.8z M66.9,64.8
					L66.9,64.8C66.3,64.3,67,64.9,66.9,64.8z M68,67.9C68,67.9,67.9,67.8,68,67.9C67.9,67.8,67.9,67.9,68,67.9z M68.3,68.7
					c0,0.1-0.1,0.1-0.1,0.2c-0.1,0.1-0.2,0.1,0,0c0,0.1,0,0.1,0,0c0.1-0.1,0.2-0.1,0.3-0.3c0,0-0.2,0.2-0.3,0.3
					C68.3,68.8,68.3,68.7,68.3,68.7z M67.4,64.6c0.3,0.1,0.5,0.2,1.5,0.4C68.5,64.9,68,64.8,67.4,64.6
					C67.5,64.6,67.5,64.6,67.4,64.6C67.4,64.6,67.3,64.6,67.4,64.6C67.3,64.6,67.4,64.6,67.4,64.6L67.4,64.6L67.4,64.6z M69.2,65.1
					C69.2,65.1,69.1,65.1,69.2,65.1L69.2,65.1z M66.4,64.3c0.4,0.2,0.7,0.3,0.8,0.3c-0.3-0.1-0.6-0.1-0.7-0.1
					C66.6,64.4,66.6,64.4,66.4,64.3C66.4,64.3,66.5,64.3,66.4,64.3z M66.9,64.5C67.1,64.5,66.9,64.5,66.9,64.5L66.9,64.5z M68.9,65
					c0.1,0,0.2,0,0.3,0.1C69.1,65,69,65,68.9,65z M63.4,64C63.3,64,63.3,64,63.4,64L63.4,64z M64.9,64.3c-0.6-0.4-0.9-0.1-1.5-0.3
					c-0.1,0-0.1,0-0.1,0s-1.1-0.2-1.1-0.1C63,64,63.3,64,63.3,64C61.7,64.3,65.1,64.4,64.9,64.3z M69.1,68.6
					C69,68.7,68.9,68.9,69.1,68.6L69.1,68.6z M63.5,63.8c-0.1,0,0,0,0.1,0.1C63.7,63.9,63.6,63.8,63.5,63.8z M70.6,64.6
					C70.6,64.6,70.4,64.6,70.6,64.6C70.5,64.6,70.7,64.6,70.6,64.6z M69,67.1L69,67.1L69,67.1z M68.6,77.3L68.6,77.3
					C68.6,77.3,68.6,77.4,68.6,77.3z M72.7,72.7C72.7,72.8,72.7,72.7,72.7,72.7L72.7,72.7z M72.7,72.7L72.7,72.7L72.7,72.7z
					 M78.3,69.8c0,0.1,1.2,0.3,1.3,0c0.6-0.8-0.9-0.5-0.9-0.5C77.9,68.7,78.3,69.7,78.3,69.8z M81,72.5L81,72.5L81,72.5z M80.9,71.8
					C80.8,71.8,80.8,71.8,80.9,71.8C80.8,71.8,80.9,71.8,80.9,71.8z M80.8,71.9C80.9,71.9,80.9,71.9,80.8,71.9L80.8,71.9z
					 M66.9,88.7C66.7,88.6,67.1,88.7,66.9,88.7L66.9,88.7z M54.8,68.7C54.9,68.7,54.8,68.7,54.8,68.7L54.8,68.7z M70.9,72.9
					L70.9,72.9L70.9,72.9z M60.4,65.8C60.7,65.7,60.3,65.9,60.4,65.8L60.4,65.8z M71.3,73c-0.1-0.1-0.3-0.1-0.4-0.1
					C70.9,73.1,71,73.2,71.3,73z M68.8,66.9C69,66.9,68.5,66.9,68.8,66.9L68.8,66.9z M74.4,82.7c1,2.9-7.3,5.6-6.8,7.9
					c-0.6,0-0.6,0.1-1-0.3c0.1,0.1,0-0.2,0-0.5l0,0c0,0,0-0.1,0,0l0.1-0.1c0,0-0.1-0.1,0-0.1c0-0.1-0.1,0-0.1,0l0,0
					c0,0.1,0,0.1-0.1,0.1c0-0.1,0-0.1-0.1-0.1c0,0,0,0,0,0.1c0-0.1,0-0.1,0-0.2l0,0c-0.3-0.3,0.9-0.9,0.6-1.5c1.1,0.1-0.5-9,0.1-8.9
					c-0.9-0.2-4.8-2.2-5-4.2c0-0.1-0.2-0.6-0.3-0.5c0,0.3,0.9,1.5,0.6,1.7c0.1-0.1-2.3-5.4-2.9-6.9v0.1c0,0,0,0,0,0.1
					c0,0-0.1-0.2-0.1,0c0,0,0-0.1-0.1-0.1c0.1,0-0.1-0.6,0-0.7c-0.1,0.2,0,0.4-0.1,0.5c0.1-0.1,0-0.5-0.1-0.7l0,0v0.1c0.1,0,0,0,0,0
					l0,0c0,0,0,0-0.1,0c0,0.1,0,0.4,0,0.5c-0.4-0.6-2.4-1.6-2.5-1.5c-0.4,0.2-1.2,1.4-1.8,1.2c0-0.1,0-0.1-0.1,0c-0.1,0,0,0,0,0
					s-0.1,0-0.2,0.1c0.1,0,0.7-0.5,0.9-0.7c0,0,0,0,0-0.1c-0.1,0-0.2-0.1-0.1-0.1c-0.8-0.2-1.8-0.7-0.3-1.5c0.3,0.3,2.6-0.4,4.9-0.6
					c0,0,0,0.2,0,0l0,0c1.7-0.1,3.3,0,4.1,1.1V67c0-0.1,0-0.1,0-0.1c-0.1-0.3-0.2-0.6,0.3-0.5c-0.2-0.1-3.2-0.7-1.1-0.6
					c-0.4-0.2-1.5-0.5-0.7-0.9c-0.9,0.2-0.6,0.2-1.4,0.1c0.1-0.1,0.1-0.1,0-0.1c0.1,0,0.4-0.6,0.3-0.6c0.1,0,0.1,0,0-0.1
					c0.7-0.1,2.9,0.7,3.2,0.7c0,0.3-0.1,1.2,0.5,1.3c-0.6-0.1,0.3,0.3-0.8,0.1c1,0.7,1.1,0.1,1.1,0.1c0.1,0,0.1,0,0-0.1
					c0.1,0,0.2-0.1,0.2-0.2c0.4-0.2,0.3,0.8,0.2,0.8h0.1c-0.1-0.2,0.1-0.3,0.3-0.3c-0.7,0.3,0.1-1.5,0-1.6c0.1,0.1,0.1-0.1,0-0.1
					c0.1,0,0.8,0.1,0.8,0.2c-0.1,0-0.1,0.1,0,0.1c-0.2,1.2-0.5,0.9,0.1,1.7c-0.8,0.8,0.3,2.5,0.7,3.8c0.1,0,0.3,0,0,0
					c0,0.1,0,0.1,0,0.2c0.1,0,0,0,0,0c0,0.1,0,0.2,0,0.2c0.1,0,0.1,0,0.2,0.1c0.1-0.2,0.1,0,0.1-0.1c-0.1-0.4,0-0.7,0.2-1.1
					c0,0-0.2-0.2,0-0.1c0,0,0,0,0,0.1c0.2-0.4,0.4-0.9,0.3-1.4c0,0.1,2.6,1.6,2.2,0.7c0.3,0.8,1.6,2.9,1.5,3c-0.2,0.1,0,0.1,0,0.1
					l0,0l0,0l0,0c-0.1,0-0.1,0.1-0.2,0.2c-0.1,0-0.2,0.1-0.3,0.1c0,0,0.2-0.1,0-0.1c0,0-0.6-0.1-0.6-0.2c-0.3-0.4,0.2,0.2,0-0.1
					c0,0,0.4-0.6,0.5-0.7c-0.4,0.1-0.8,0-1.2,0.1c0,0,0.1,0.1,0.2,0.1c0.4,0.3-0.1-0.1-0.2-0.1c-0.4,0-0.7,0.1-1,0.3
					c0.7-0.5,0.8,0.1,0.9,0.5l0,0l0,0l0,0c-1.7-0.4-2,2.8-3.4,3.7c-0.6,0.4-0.9,0.3-1.2,0.1c0,0.1,0,0.2,0,0.3
					c0.5,2.6,1.2,0.7,2.4,1.8c0,0-0.3,0.5-0.1,0.5C69.1,79.4,73.6,80.5,74.4,82.7C74.4,82.7,74.4,82.6,74.4,82.7
					C74.4,82.8,74.4,82.7,74.4,82.7z M69.9,72.5C70,72.4,69.9,72.4,69.9,72.5L69.9,72.5z M67,73.1L67,73.1L67,73.1z M67.8,73.3
					C67,73.5,68.6,73,67.8,73.3L67.8,73.3z M68.4,74.8C68.5,74.8,68.3,74.7,68.4,74.8L68.4,74.8z M68.4,74.7
					C68.4,74.7,68.4,74.6,68.4,74.7L68.4,74.7z M68.7,74C68.7,74.1,68.8,73.9,68.7,74L68.7,74z M68.5,74.4
					C68.7,74,68.6,74.1,68.5,74.4L68.5,74.4z M68.2,73.2C68.1,73.2,68.1,73.2,68.2,73.2L68.2,73.2z M67.7,72.6
					C66.7,72.3,68.9,73.3,67.7,72.6L67.7,72.6z M66.6,68.2C66.6,68.3,66.7,68.3,66.6,68.2L66.6,68.2z M59.2,68.7
					C59.2,68.6,59.2,68.7,59.2,68.7C59.3,68.7,59.3,68.7,59.2,68.7L59.2,68.7C59.3,68.7,59.3,68.7,59.2,68.7
					C59.3,68.7,59.3,68.7,59.2,68.7z M59.6,69.1L59.6,69.1L59.6,69.1L59.6,69.1z M59.6,69.1L59.6,69.1L59.6,69.1L59.6,69.1z
					 M60.7,70.6C60.6,70.7,60.7,70.6,60.7,70.6L60.7,70.6z M61.1,71.2C61.4,71.4,60.5,70.8,61.1,71.2L61.1,71.2z M63.2,68.3
					C63.3,68.3,62,68.7,63.2,68.3L63.2,68.3z M64.1,67C64.1,67,64,66.9,64.1,67L64.1,67z M64.3,66.7C64.2,66.7,64.3,66.7,64.3,66.7
					L64.3,66.7z M65.4,70.8L65.4,70.8C65,70,65.6,71.2,65.4,70.8z M65.6,71.2C65.5,70.7,65.4,71.4,65.6,71.2L65.6,71.2z M67.3,79.2
					C67.5,79.3,67.3,79.2,67.3,79.2L67.3,79.2z M66.7,89.3L66.7,89.3L66.7,89.3z M66.7,90C66.8,90,66.7,90,66.7,90L66.7,90z
					 M66.8,90.3C66.8,90.4,66.9,90.1,66.8,90.3L66.8,90.3z M67.1,90.5C67.1,90.5,67,90.4,67.1,90.5L67.1,90.5z M71.7,81.6
					C71.7,81.6,71.8,81.5,71.7,81.6L71.7,81.6z M71.8,81.4C71.6,81.4,72.1,81.4,71.8,81.4L71.8,81.4z M66.6,89.9L66.6,89.9
					L66.6,89.9C66.6,89.9,66.6,89.8,66.6,89.9C66.6,89.8,66.6,89.8,66.6,89.9z M64.9,65.1L64.9,65.1C65,65.1,65,65.1,64.9,65.1z
					 M60.1,65.9L60.1,65.9L60.1,65.9z M60.3,65.7C60.2,65.7,60.1,65.7,60.3,65.7L60.3,65.7z M71.9,68.1L71.9,68.1L71.9,68.1z
					 M69,65.9L69,65.9L69,65.9z M68.4,66.8c-0.2,0-0.3,0-0.4,0.1c-0.6-0.6-0.9-0.9,0.2-1.3c0,0,0,0,0.1,0.1
					c-0.2,0.1-0.4,0.3-0.2,0.5c0.8,0,3.7,0.4,3.9,2c0,0,0,0.2,0,0.1l-0.2,0.2c-0.2,0,0,0-0.1,0.1c0,0-0.3,0.1-0.2,0.2
					c-0.1-0.1-0.6-0.6-0.6-0.5c0,0,0,0.2-0.1,0.2c0.5,0.1,0.3,0.9,0.4,0.9c-0.1-0.1-0.1,0,0,0.1c-0.5-0.3-0.7-0.3-0.3,0.1
					c-0.3-0.2-1.9-0.9-1.9-0.9c-0.2-0.3,0.2-0.5,0.4-0.7c-0.2,0-0.1,0,0,0c0.2-0.2,0.2-0.3,0-0.6l0,0l0,0c-0.2-0.1-0.4-0.2-0.8-0.4
					C68.7,66.8,68.4,66.8,68.4,66.8z M70.4,66.9C70.4,66.8,70.4,66.9,70.4,66.9L70.4,66.9z M70.6,68.9C70.7,69,70.6,68.7,70.6,68.9
					L70.6,68.9z M70.4,66.8C70.5,66.8,70.4,66.8,70.4,66.8L70.4,66.8z M70.2,66.7L70.2,66.7C70.4,66.7,70.3,66.7,70.2,66.7z
					 M68.1,66.7C67.9,66.7,68.2,66.7,68.1,66.7L68.1,66.7z M68.2,66.3C68,66.2,68.3,66.3,68.2,66.3L68.2,66.3z M71.5,73.1
					C71.6,73.1,71.3,73.1,71.5,73.1c0.1-0.1-0.1-0.1,0-0.2v-0.1c-0.1,0.1-0.1,0.1-0.2,0.1C71.3,73,71.4,73,71.5,73.1
					C71.3,73.1,71.4,73.2,71.5,73.1z M68.2,65.5L68.2,65.5L68.2,65.5z M67.7,67.3C67.6,67.4,67.8,66.9,67.7,67.3
					c0.1-0.2,0.2-0.3,0.3-0.3l-0.1-0.1c-0.2,0.1-0.4,0.2-0.5,0.3c0.1,0.1,0.1,0.2,0.2,0.3C67.6,67.4,67.7,67.4,67.7,67.3z M69,65.9
					C69.6,66.5,69,65.9,69,65.9L69,65.9z M70.8,72.9C70.8,72.9,70.8,73,70.8,72.9L70.8,72.9z M69.7,66.3
					C69.8,66.3,69.6,66.4,69.7,66.3L69.7,66.3z M67.7,72.6C67.6,72.5,67.7,72.6,67.7,72.6L67.7,72.6z M67.1,67.8
					C67.4,68.1,67.3,67.8,67.1,67.8L67.1,67.8z M70.2,66.7L70.2,66.7C70.3,66.7,70.3,66.7,70.2,66.7z M65.4,70.8L65.4,70.8
					L65.4,70.8z M69.8,78C69.9,78,69.8,78,69.8,78L69.8,78z M69.8,78C69.7,77.9,69.5,77.8,69.8,78L69.8,78z M69.3,77.8
					C69.2,77.8,69.3,77.8,69.3,77.8L69.3,77.8z M69.3,77.8C68.8,77.6,67.9,77.4,69.3,77.8L69.3,77.8z M68,77.8
					C68.1,77.9,67.6,77.4,68,77.8L68,77.8z M73.4,67C73.3,67,73.3,67,73.4,67C73.4,67.1,73.4,67,73.4,67z M70.7,64.6h0.1
					C70.8,64.6,70.7,64.6,70.7,64.6z M80.8,71.7C80.8,71.7,80.6,71.7,80.8,71.7L80.8,71.7z"/>
				<path id="XMLID_1005_" class="st20" d="M81.5,76.1c0.1,8.3-6.5,15.2-14.9,15.4c-8.3,0.1-15.2-6.5-15.4-14.9
					c-0.1-8.3,6.5-15.2,14.9-15.4C74.4,61.1,81.3,67.7,81.5,76.1z"/>
			</g>
		</g>
	</g>
	<g id="XMLID_756_" class="st7">
		<line id="XMLID_765_" class="st20" x1="80.1" y1="76" x2="82.9" y2="78.8"/>
		<path id="XMLID_762_" class="st31" d="M66.8,62.7c-3.8,3.8-3.8,9.9,0,13.6c3.8,3.8,9.9,3.8,13.6,0c3.8-3.8,3.8-9.9,0-13.6
			C76.7,58.9,70.6,58.9,66.8,62.7z M79.7,75.6c-3.3,3.3-8.8,3.3-12.1,0c-3.3-3.3-3.3-8.8,0-12.1c3.3-3.3,8.8-3.3,12.1,0
			C83.1,66.8,83.1,72.2,79.7,75.6z"/>
		<path id="XMLID_760_" class="st19" d="M80.8,79.3L91.4,90c0.7,0.7,2,0.7,2.7,0l-12-12L80.8,79.3z"/>
		<path id="XMLID_759_" class="st40" d="M82.1,78l12,12c0.7-0.7,0.7-2,0-2.7L83.5,76.6L82.1,78z"/>
		<line id="XMLID_758_" class="st20" x1="82.6" y1="81.3" x2="85.5" y2="78.5"/>
		<line id="XMLID_757_" class="st20" x1="83.8" y1="82.5" x2="86.6" y2="79.7"/>
	</g>
	<line id="XMLID_1206_" class="st4" x1="62.8" y1="56.2" x2="67.8" y2="56.2"/>
	<line id="XMLID_761_" class="st4" x1="85.5" y1="56.2" x2="70" y2="56.2"/>
	<line id="XMLID_1207_" class="st4" x1="81.7" y1="59" x2="66.2" y2="59"/>
	<line id="XMLID_1208_" class="st4" x1="72.3" y1="93.8" x2="56.9" y2="93.8"/>
	<line id="XMLID_1210_" class="st4" x1="84.2" y1="91" x2="68.7" y2="91"/>
	<line id="XMLID_1209_" class="st4" x1="73.2" y1="93.8" x2="76.8" y2="93.8"/>
</g>
<g id="XMLID_1215_" class="st0">
	<path id="XMLID_1261_" class="st4" d="M87.4,56.4c0,0.8-1.7,0.8-1.7,1.7c0,0.8,1.7,0.8,1.7,1.7c0,0.8-1.7,0.8-1.7,1.7
		c0,0.8,1.7,0.8,1.7,1.7"/>
	<path id="XMLID_1260_" class="st4" d="M60.5,64.9c0,0.7-1.4,0.7-1.4,1.4c0,0.7,1.4,0.7,1.4,1.4c0,0.7-1.4,0.7-1.4,1.4
		c0,0.7,1.4,0.7,1.4,1.4"/>
	<g id="XMLID_1213_" class="st7">
		<path id="XMLID_1279_" class="st16" d="M78.7,60c0,0,3.1,0.6,3.2,3.1l0,0c0,0,2.8,0.5,2,3.9c0,0,2.1,1.6,1.5,5.3l0,0
			c0,0,2.9,2-0.3,4.9v0.3c0,0,0.4,2.4-2.4,4.5c0,0-1.2,1-3.1,3.3c-0.9,1.1-3.9,2.4-5.4-2V60.8C74.2,60.8,76.1,57.1,78.7,60z"/>
		<path id="XMLID_1278_" class="st8" d="M69.2,60c0,0-3.1,0.6-3.2,3.1l0,0c0,0-2.8,0.5-2,3.9c0,0-2.1,1.6-1.5,5.3l0,0
			c0,0-2.9,2,0.3,4.9v0.3c0,0-0.4,2.4,2.4,4.5c0,0,1.2,1,3.1,3.3c0.9,1.1,3.9,2.4,5.4-2V60.8C73.6,60.8,71.7,57.1,69.2,60z"/>
		<path id="XMLID_1277_" class="st20" d="M82.3,68.8c-0.7,0.5-1.5,0.6-2.3,0.5c-0.8-0.1-1.5-0.6-1.9-1.3c-0.5-0.7-0.6-1.5-0.5-2.3"
			/>
		<path id="XMLID_1276_" class="st20" d="M79.9,76.6c-0.7,0.5-1.5,0.6-2.3,0.5c-0.8-0.1-1.5-0.6-1.9-1.3c-0.5-0.7-0.6-1.5-0.5-2.3"
			/>
		<path id="XMLID_1274_" class="st20" d="M77.7,72.4c-0.5-0.6-0.8-1.4-0.7-2.2c0.1-0.8,0.5-1.6,1.1-2"/>
		<path id="XMLID_1273_" class="st20" d="M83.1,76.1c-0.3-0.7-0.8-1.4-1.5-1.7C80.8,74,80,74,79.2,74.2"/>
		<path id="XMLID_1272_" class="st20" d="M79.7,64.7c-0.6-0.5-1-1.3-1-2.1c0-0.8,0.3-1.6,0.8-2.2"/>
		<path id="XMLID_1271_" class="st20" d="M75.8,64.8c0.8,0,1.5-0.3,2.1-0.9c0.6-0.6,0.9-1.4,0.9-2.1"/>
		<path id="XMLID_1268_" class="st20" d="M65.6,68.8c0.7,0.5,1.5,0.6,2.3,0.5c0.8-0.1,1.5-0.6,1.9-1.3c0.5-0.7,0.6-1.5,0.5-2.3"/>
		<path id="XMLID_1267_" class="st20" d="M68,76.6c0.7,0.5,1.5,0.6,2.3,0.5c0.8-0.1,1.5-0.6,1.9-1.3c0.5-0.7,0.6-1.5,0.5-2.3"/>
		<path id="XMLID_1265_" class="st20" d="M70.2,72.4c0.5-0.6,0.8-1.4,0.7-2.2c-0.1-0.8-0.5-1.6-1.1-2"/>
		<path id="XMLID_1264_" class="st20" d="M64.8,76.1c0.3-0.7,0.8-1.4,1.5-1.7c0.8-0.4,1.6-0.4,2.3-0.1"/>
		<path id="XMLID_1263_" class="st20" d="M68.1,64.7c0.6-0.5,1-1.3,1-2.1c0-0.8-0.3-1.6-0.8-2.2"/>
		<path id="XMLID_1262_" class="st20" d="M72.1,64.8c-0.8,0-1.5-0.3-2.1-0.9c-0.6-0.6-0.9-1.4-0.9-2.1"/>
	</g>
	<g id="XMLID_1250_" class="st7">
		<line id="XMLID_1254_" class="st20" x1="60.5" y1="57.8" x2="62" y2="57.8"/>
		<line id="XMLID_1253_" class="st20" x1="64.4" y1="57.8" x2="65.9" y2="57.8"/>
		<line id="XMLID_1252_" class="st20" x1="63.2" y1="60.4" x2="63.2" y2="58.9"/>
		<line id="XMLID_1251_" class="st20" x1="63.2" y1="56.6" x2="63.2" y2="55.1"/>
	</g>
	<g id="XMLID_1233_" class="st7">
		<line id="XMLID_1238_" class="st20" x1="74.4" y1="55.8" x2="75.2" y2="55.8"/>
		<line id="XMLID_1237_" class="st20" x1="76.5" y1="55.8" x2="77.4" y2="55.8"/>
		<line id="XMLID_1236_" class="st20" x1="75.9" y1="57.3" x2="75.9" y2="56.4"/>
		<line id="XMLID_1234_" class="st20" x1="75.9" y1="55.1" x2="75.9" y2="54.2"/>
	</g>
	<g id="XMLID_1223_" class="st7">
		<line id="XMLID_1227_" class="st20" x1="87" y1="67.6" x2="87.9" y2="67.6"/>
		<line id="XMLID_1226_" class="st20" x1="89.2" y1="67.6" x2="90.1" y2="67.6"/>
		<line id="XMLID_1225_" class="st20" x1="88.5" y1="69.1" x2="88.5" y2="68.3"/>
		<line id="XMLID_1224_" class="st20" x1="88.5" y1="66.9" x2="88.5" y2="66.1"/>
	</g>
	<rect id="XMLID_1212_" x="58" y="74.3" class="st28" width="32.1" height="21.4"/>
	<polygon id="XMLID_1219_" class="st13" points="89,74.3 89,94.8 58,94.8 58,95.8 90,95.8 90,74.3 	"/>
	<rect id="XMLID_1220_" x="58" y="74.3" class="st26" width="1" height="21.4"/>
	<polygon id="XMLID_1231_" class="st41" points="58,74.3 58,74.9 59.5,79 90,79 90,74.9 89.8,74.3 	"/>
	<polygon id="XMLID_1214_" class="st28" points="92,77.5 60,77.5 58,74.3 90,74.3 	"/>
</g>
<g id="XMLID_5_" class="st0">
	<rect id="XMLID_781_" x="59" y="55.4" class="st3" width="32" height="35.6"/>
	<rect id="XMLID_780_" x="59.5" y="55.5" class="st13" width="31.1" height="3.4"/>
	<rect id="XMLID_779_" x="59.5" y="55.5" class="st4" width="31.1" height="3.4"/>
	<rect id="XMLID_778_" x="63.6" y="61.1" class="st1" width="23" height="9.7"/>
	<rect id="XMLID_777_" x="63.6" y="71.7" class="st14" width="11" height="5.1"/>
	<rect id="XMLID_776_" x="75.5" y="71.7" class="st23" width="11.1" height="5.1"/>
	<g id="XMLID_774_" class="st7">
		<rect id="XMLID_775_" x="65.8" y="78" class="st29" width="19.2" height="0.9"/>
	</g>
	<g id="XMLID_772_" class="st7">
		<rect id="XMLID_773_" x="65.8" y="83.5" class="st30" width="19.2" height="0.9"/>
	</g>
	<g id="XMLID_770_" class="st7">
		<rect id="XMLID_771_" x="65.8" y="85" class="st30" width="19.2" height="0.9"/>
	</g>
	<g id="XMLID_768_" class="st7">
		<rect id="XMLID_769_" x="65.8" y="86.5" class="st30" width="19.2" height="0.9"/>
	</g>
	<g id="XMLID_766_" class="st7">
		<rect id="XMLID_767_" x="71.2" y="79.8" class="st29" width="8.5" height="0.9"/>
	</g>
	<circle id="XMLID_755_" class="st2" cx="61.9" cy="57.1" r="0.6"/>
	<circle id="XMLID_754_" class="st2" cx="63.5" cy="57.1" r="0.6"/>
	<circle id="XMLID_753_" class="st2" cx="65.2" cy="57.1" r="0.6"/>
	<polyline id="XMLID_752_" class="st4" points="91,63.7 91,91 84.1,91 	"/>
	<polyline id="XMLID_1216_" class="st4" points="59.1,63.7 59.1,91 66.9,91 	"/>
	<path id="XMLID_1289_" class="st4" d="M69.6,85.5v-8.7c0-3,2.5-5.5,5.5-5.5l0,0c3,0,5.5,2.5,5.5,5.5v8.7"/>
	<path id="XMLID_1288_" class="st13" d="M81.6,94.6h-13c-0.5,0-1-0.5-1-1v-13c0-0.5,0.5-1,1-1h13c0.5,0,1,0.5,1,1v13
		C82.6,94.1,82.1,94.6,81.6,94.6z"/>
	<path id="XMLID_1295_" class="st41" d="M81.8,79.6V93c0,0.4-0.4,0.8-0.8,0.8H67.6c0,0.4,0.4,0.8,0.8,0.8h13.5
		c0.4,0,0.8-0.4,0.8-0.8V80.4C82.6,79.9,82.2,79.6,81.8,79.6z"/>
	<circle id="XMLID_1290_" class="st5" cx="75.1" cy="85.2" r="1.8"/>
	<path id="XMLID_1291_" class="st5" d="M75.1,90.5L75.1,90.5c-0.4,0-0.8-0.4-0.8-0.8v-3.6c0-0.4,0.4-0.8,0.8-0.8l0,0
		c0.4,0,0.8,0.4,0.8,0.8v3.6C75.9,90.2,75.5,90.5,75.1,90.5z"/>
</g>
<g id="XMLID_1_" class="st0">
	<rect id="XMLID_177_" x="73.8" y="56.7" class="st4" width="2.5" height="2.5"/>
	<rect id="XMLID_176_" x="88.1" y="56.7" class="st4" width="2.5" height="2.5"/>
	<rect id="XMLID_136_" x="59.4" y="56.7" class="st4" width="2.5" height="2.5"/>
	<rect id="XMLID_175_" x="88.1" y="71" class="st4" width="2.5" height="2.5"/>
	<rect id="XMLID_174_" x="59.4" y="71" class="st4" width="2.5" height="2.5"/>
	<path id="XMLID_172_" class="st4" d="M76.3,58c6.9,0.6,12.4,6.1,13,13"/>
	<path id="XMLID_171_" class="st4" d="M60.7,71c0.6-6.9,6-12.3,12.9-13"/>
	<path id="XMLID_168_" class="st23" d="M74.9,82.6L74.9,82.6H77l3.1-9.5l-4.3-7.6h-0.7L75,72.7c0.2,0.1,0.7,0.3,0.8,0.4
		c0.5,0.5,0.5,1.4,0,2c-0.5,0.5-1.4,0.5-2,0c-0.5-0.5-0.5-1.4,0-2c0.1-0.1,0.5-0.4,0.7-0.4l0.2-7.2H74L69.6,73l3.1,9.5L74.9,82.6z"
		/>
	<line id="XMLID_169_" class="st4" x1="62" y1="57.9" x2="73.6" y2="57.9"/>
	<line id="XMLID_159_" class="st4" x1="76.3" y1="57.9" x2="88" y2="57.9"/>
	<polygon id="XMLID_173_" class="st12" points="77,82.7 77.6,81.1 72.4,81.1 72.9,82.6 74.9,82.6 75,82.7 	"/>
	<rect id="XMLID_164_" x="70.4" y="82" class="st28" width="9.2" height="11.4"/>
	<rect id="XMLID_165_" x="76.8" y="82" class="st13" width="2.7" height="11.4"/>
	<line id="XMLID_167_" class="st4" x1="75" y1="65.6" x2="75" y2="72.8"/>
	<circle id="XMLID_166_" class="st4" cx="75" cy="74.3" r="1.6"/>
	<line id="XMLID_290_" class="st4" x1="67.8" y1="93.3" x2="82.1" y2="93.3"/>
</g>
</svg>
